<svg width="24" height="24" viewBox="0 0 24 24" fill="none" xmlns="http://www.w3.org/2000/svg">
<g clip-path="url(#clip0_358_3394)">
<path d="M30 0H-6V24H30V0Z" fill="#F7E017"/>
<path d="M-6 1.66602V12.3327L30 17.3327V11.666L-6 1.66602Z" fill="white"/>
<path d="M-6 7.33398V12.334L30 22.334V17.334L-6 7.33398Z" fill="black"/>
<path d="M11.1936 18.9904C10.5483 18.9047 9.95662 18.6994 9.54562 18.4181C9.46595 18.3634 9.39095 18.3187 9.37929 18.3187C9.36729 18.3187 9.35762 18.3794 9.35762 18.4544C9.35762 18.6667 9.27229 18.7737 9.05762 18.8294C8.85229 18.8827 8.53895 18.7751 8.28495 18.5644C8.02195 18.3461 7.71829 18.1794 7.46129 18.1127C7.24962 18.0574 6.96862 18.0664 6.76562 18.1344C6.67129 18.1661 6.56395 18.2107 6.52662 18.2337C6.48962 18.2567 6.44795 18.2754 6.43462 18.2754C6.39862 18.2754 6.40362 18.0471 6.44129 17.9741C6.49095 17.8784 6.61329 17.7841 6.75595 17.7321C6.82795 17.7057 6.88695 17.6721 6.88695 17.6571C6.88695 17.6421 6.86262 17.5871 6.83295 17.5354C6.73629 17.3661 6.77596 17.2021 6.94462 17.0731C7.11729 16.9411 7.40962 16.9184 7.66795 17.0167C7.73295 17.0414 7.79362 17.0617 7.80262 17.0617C7.83662 17.0617 7.81595 17.0141 7.72229 16.8777C7.61429 16.7197 7.59295 16.6417 7.60629 16.4537C7.62362 16.2157 7.81762 16.0211 8.05529 16.0037C8.24929 15.9897 8.36995 16.0551 8.65629 16.3277C9.51129 17.1431 10.441 17.5924 11.5253 17.7141C11.799 17.7447 12.3496 17.7284 12.6726 17.6797C13.6483 17.5327 14.6313 17.0421 15.399 16.3191C15.6116 16.1187 15.714 16.0657 15.8883 16.0651C16.04 16.0644 16.1463 16.1134 16.255 16.2334C16.354 16.3434 16.3876 16.4477 16.377 16.6147C16.37 16.7217 16.3526 16.7744 16.289 16.8781C16.195 17.0311 16.211 17.0451 16.397 16.9731C16.6483 16.8751 16.958 16.9204 17.125 17.0791C17.272 17.2187 17.286 17.3584 17.1716 17.5477C17.13 17.6171 17.096 17.6821 17.096 17.6924C17.096 17.7114 17.1276 17.7204 17.2803 17.7451C17.48 17.7771 17.5943 17.9254 17.5943 18.1521C17.5943 18.2201 17.586 18.2754 17.5756 18.2754C17.5656 18.2754 17.49 18.2477 17.4076 18.2137C17.175 18.1177 17.0426 18.0931 16.7706 18.0947C16.5636 18.0961 16.4923 18.1057 16.348 18.1527C16.127 18.2251 15.8906 18.3644 15.698 18.5361C15.4856 18.7254 15.352 18.7851 15.1453 18.7834C14.9533 18.7814 14.822 18.7257 14.7526 18.6161C14.7156 18.5574 14.7103 18.5217 14.7193 18.3891C14.7253 18.3027 14.724 18.2321 14.717 18.2321C14.7096 18.2321 14.635 18.2794 14.5506 18.3377C14.3293 18.4897 14.1883 18.5651 13.935 18.6654C13.1623 18.9711 12.0473 19.1034 11.1936 18.9904Z" fill="#CF1126"/>
<path d="M11.5468 17.5047C10.2608 17.3813 9.03037 16.7115 8.2822 15.6495C7.46987 14.5417 7.21387 13.0789 7.46183 11.7415C7.59362 11.1326 7.85947 10.5233 8.3133 10.0897C7.95163 10.8565 7.82944 11.7353 8.02231 12.566C8.32194 14.2245 9.7235 15.6284 11.4003 15.8712C12.0636 16.0633 12.7499 15.8604 13.3835 15.6548C14.7813 15.1621 15.8461 13.8353 15.9761 12.3521C16.0873 11.5495 15.9641 10.715 15.6025 9.98828C15.8086 10.0973 16.0687 10.5245 16.2221 10.8118C16.7556 11.8453 16.7799 13.0837 16.4659 14.1865C16.0399 15.5897 14.9671 16.8191 13.5489 17.2659C12.9053 17.4762 12.2208 17.5403 11.5469 17.5048L11.5468 17.5047Z" fill="#CF1126"/>
<path d="M5.06978 15.6635C4.9855 15.6503 4.89257 15.7332 4.92435 15.8201C4.98512 15.9078 5.08982 15.9507 5.18428 15.9927C5.41067 16.0835 5.65692 16.1188 5.89998 16.1129C5.81621 16.1127 5.92874 16.1138 5.96003 16.1129C6.1525 16.1134 6.3439 16.0788 6.52483 16.0135C6.62543 15.9782 6.75364 15.9461 6.79486 15.8348C6.83509 15.7623 6.76219 15.6899 6.68867 15.7044C6.58629 15.7268 6.49056 15.7732 6.38901 15.7997C6.16993 15.8615 5.93921 15.8854 5.71225 15.8667C5.54627 15.8465 5.38545 15.7934 5.23191 15.7286C5.17867 15.7051 5.12873 15.6709 5.06978 15.6635Z" fill="#CF1126"/>
<path d="M5.16348 15.3175C5.07828 15.3048 5.00489 15.4029 5.04042 15.4811C5.10592 15.5761 5.21599 15.6266 5.31895 15.6711C5.49797 15.7427 5.69242 15.7727 5.88479 15.7669C5.81173 15.7667 5.90987 15.7678 5.93696 15.7669C6.10052 15.7671 6.26323 15.7348 6.41445 15.6725C6.50689 15.6366 6.6201 15.6017 6.65859 15.5C6.68846 15.4441 6.66569 15.3627 6.59527 15.3584C6.53098 15.3552 6.47551 15.3961 6.41599 15.4145C6.19983 15.5039 5.96193 15.5418 5.72886 15.5216C5.58364 15.5029 5.4449 15.4494 5.3132 15.3873C5.26371 15.3634 5.21916 15.3261 5.16348 15.3175Z" fill="#CF1126"/>
<path d="M5.27688 14.985C5.20385 14.9763 5.15362 15.0586 5.16592 15.1244C5.17681 15.1822 5.22866 15.221 5.27155 15.2564C5.44919 15.3863 5.67431 15.4417 5.89241 15.4344C5.8077 15.4341 6.00606 15.4358 5.94557 15.4342C6.08371 15.4336 6.22017 15.3998 6.34444 15.34C6.4274 15.3039 6.52482 15.2622 6.55278 15.1675C6.56615 15.1233 6.57452 15.0599 6.52474 15.0351C6.47262 15.006 6.42085 15.0508 6.37345 15.069C6.21381 15.1502 6.03595 15.1954 5.85655 15.1946C5.70153 15.1998 5.55544 15.1346 5.42095 15.0643C5.37215 15.0395 5.3319 14.9963 5.27688 14.985Z" fill="#CF1126"/>
<path d="M4.05241 10.0898C3.94383 10.1985 4.02674 10.3989 4.02087 10.5413C4.07714 10.9799 4.14704 11.4241 4.31077 11.8369C4.51127 12.2403 4.93714 12.456 5.1952 12.8125C5.28745 12.9844 5.2547 13.191 5.27414 13.379C5.28941 13.8912 5.28467 14.4038 5.27571 14.916C5.507 15.0321 5.75817 15.1489 6.02424 15.1043C6.18193 15.0666 6.47464 15.0432 6.50744 14.8862C6.4947 14.0028 6.48643 13.1192 6.47468 12.236C6.385 11.9653 6.10965 11.8253 5.90371 11.6522C5.73374 11.4846 5.57558 11.3043 5.43078 11.1155C5.34338 10.9683 5.00184 10.9152 5.1254 11.1714C5.19785 11.3932 5.38275 11.5584 5.42904 11.7915C5.43916 11.9192 5.59163 12.1541 5.46148 12.2286C5.37869 12.0879 5.25874 11.9681 5.10541 11.8967C4.95767 11.7865 4.71345 11.7407 4.66011 11.5461C4.62096 11.2701 4.47961 11.0201 4.29721 10.8133C4.34422 10.5654 4.29738 10.2554 4.0831 10.0969L4.05241 10.0898Z" fill="#CF1126"/>
<path d="M4.38123 10.1406C4.28247 10.1566 4.28583 10.2824 4.33153 10.3486C4.38014 10.4915 4.39338 10.6468 4.36706 10.7956C4.54265 11.0011 4.67862 11.247 4.7196 11.5169C4.72059 11.6183 4.82735 11.6519 4.89656 11.7021C5.05894 11.8054 5.24149 11.8804 5.38609 12.0098C5.41652 12.0423 5.43948 12.0774 5.41798 12.011C5.39542 11.9261 5.38381 11.8324 5.31729 11.7682C5.22614 11.6702 5.11229 11.5827 4.97953 11.5528C4.96846 11.4157 4.90315 11.2897 4.8428 11.1684C4.77592 11.0525 4.70605 10.9282 4.59145 10.853C4.59606 10.6498 4.59273 10.4365 4.50526 10.249C4.4796 10.2008 4.44182 10.1435 4.38127 10.1406H4.38123Z" fill="#CF1126"/>
<path d="M4.66074 10.2207C4.59193 10.2411 4.60509 10.326 4.62688 10.3779C4.65984 10.5218 4.665 10.6704 4.66231 10.8174C4.78868 10.9174 4.86772 11.0624 4.9397 11.2036C4.98481 11.2979 5.02758 11.3953 5.04488 11.4991C5.14741 11.5331 5.23712 11.5973 5.31725 11.6683C5.2855 11.5723 5.2147 11.4979 5.16711 11.4102C5.11539 11.319 5.06599 11.2238 5.0441 11.1205C4.94549 11.0152 4.89119 10.8661 4.91274 10.7221C4.91716 10.5628 4.86576 10.3983 4.75921 10.2784C4.73238 10.2519 4.70034 10.2227 4.66074 10.2207Z" fill="#CF1126"/>
<path d="M4.97193 10.2659C4.93452 10.2725 4.91175 10.3081 4.89172 10.3371C4.88398 10.3662 4.91964 10.3975 4.92532 10.4291C4.96908 10.5389 4.9856 10.6592 4.97253 10.7767C4.96965 10.8601 4.99949 10.9415 5.04199 11.0122C5.05426 10.9601 5.10254 10.9226 5.15488 10.9175C5.17391 10.9141 5.2019 10.9238 5.19081 10.8947C5.17751 10.7352 5.15321 10.5748 5.09745 10.4241C5.07584 10.3703 5.0513 10.3136 5.00467 10.2767C4.99521 10.27 4.9839 10.2643 4.97193 10.2659Z" fill="#CF1126"/>
<path d="M18.9341 15.6635C19.0184 15.6503 19.1113 15.7332 19.0796 15.8201C19.0188 15.9078 18.9141 15.9507 18.8196 15.9927C18.5932 16.0835 18.347 16.1188 18.1039 16.1129C18.1877 16.1127 18.0752 16.1138 18.0439 16.1129C17.8514 16.1134 17.66 16.0788 17.4791 16.0135C17.3785 15.9782 17.2503 15.9461 17.209 15.8348C17.1688 15.7623 17.2417 15.6899 17.3152 15.7044C17.4176 15.7268 17.5133 15.7732 17.6149 15.7997C17.834 15.8615 18.0647 15.8854 18.2917 15.8667C18.4576 15.8465 18.6185 15.7934 18.772 15.7286C18.8252 15.7051 18.8752 15.6709 18.9341 15.6635Z" fill="#CF1126"/>
<path d="M18.8404 15.3175C18.9256 15.3048 18.999 15.4029 18.9635 15.4811C18.898 15.5761 18.7879 15.6266 18.685 15.6711C18.5059 15.7427 18.3115 15.7727 18.1191 15.7669C18.1922 15.7667 18.094 15.7678 18.067 15.7669C17.9034 15.7671 17.7407 15.7348 17.5895 15.6725C17.497 15.6366 17.3838 15.6017 17.3453 15.5C17.3154 15.4441 17.3382 15.3627 17.4086 15.3584C17.4729 15.3552 17.5284 15.3961 17.5879 15.4145C17.8041 15.5039 18.042 15.5418 18.275 15.5216C18.4203 15.5029 18.559 15.4494 18.6907 15.3873C18.7402 15.3634 18.7848 15.3261 18.8404 15.3175Z" fill="#CF1126"/>
<path d="M18.727 14.985C18.8001 14.9763 18.8503 15.0586 18.838 15.1244C18.8271 15.1822 18.7752 15.221 18.7324 15.2564C18.5547 15.3863 18.3296 15.4417 18.1115 15.4344C18.1962 15.4341 17.9978 15.4358 18.0583 15.4342C17.9202 15.4336 17.7837 15.3998 17.6595 15.34C17.5765 15.3039 17.4791 15.2622 17.4511 15.1675C17.4378 15.1233 17.4294 15.0599 17.4792 15.0351C17.5313 15.006 17.5831 15.0508 17.6305 15.069C17.7901 15.1502 17.968 15.1954 18.1474 15.1946C18.3024 15.1998 18.4485 15.1346 18.583 15.0643C18.6318 15.0395 18.672 14.9963 18.727 14.985Z" fill="#CF1126"/>
<path d="M19.9515 10.0898C20.0601 10.1985 19.9772 10.3989 19.983 10.5413C19.9268 10.9799 19.8569 11.4241 19.6931 11.8369C19.4926 12.2403 19.0668 12.456 18.8087 12.8125C18.7165 12.9844 18.7492 13.191 18.7298 13.379C18.7145 13.8912 18.7192 14.4038 18.7282 14.916C18.4969 15.0321 18.2457 15.1489 17.9797 15.1043C17.822 15.0666 17.5293 15.0432 17.4965 14.8862C17.5092 14.0028 17.5175 13.1192 17.5292 12.236C17.6189 11.9653 17.8943 11.8253 18.1002 11.6522C18.2702 11.4846 18.4283 11.3043 18.5731 11.1155C18.6605 10.9683 19.0021 10.9152 18.8785 11.1714C18.8061 11.3932 18.6212 11.5584 18.5749 11.7915C18.5647 11.9192 18.4123 12.1541 18.5424 12.2286C18.6252 12.0879 18.7452 11.9681 18.8985 11.8967C19.0462 11.7865 19.2905 11.7407 19.3438 11.5461C19.3829 11.2701 19.5243 11.0201 19.7067 10.8133C19.6597 10.5654 19.7065 10.2554 19.9208 10.0969L19.9515 10.0898Z" fill="#CF1126"/>
<path d="M19.6227 10.1406C19.7214 10.1566 19.7181 10.2824 19.6724 10.3486C19.6238 10.4915 19.6105 10.6468 19.6368 10.7956C19.4613 11.0011 19.3253 11.247 19.2843 11.5169C19.2833 11.6183 19.1766 11.6519 19.1073 11.7021C18.945 11.8054 18.7624 11.8804 18.6178 12.0098C18.5874 12.0423 18.5644 12.0774 18.5859 12.011C18.6085 11.9261 18.6201 11.8324 18.6866 11.7682C18.7778 11.6702 18.8916 11.5827 19.0244 11.5528C19.0354 11.4157 19.1008 11.2897 19.1611 11.1684C19.228 11.0525 19.2979 10.9282 19.4125 10.853C19.4078 10.6498 19.4112 10.4365 19.4987 10.249C19.5243 10.2008 19.5621 10.1435 19.6226 10.1406H19.6227Z" fill="#CF1126"/>
<path d="M19.3432 10.2207C19.412 10.2411 19.3988 10.326 19.377 10.3779C19.3441 10.5218 19.3389 10.6704 19.3416 10.8174C19.2152 10.9174 19.1362 11.0624 19.0642 11.2036C19.0191 11.2979 18.9763 11.3953 18.959 11.4991C18.8565 11.5331 18.7668 11.5973 18.6867 11.6683C18.7184 11.5723 18.7892 11.4979 18.8368 11.4102C18.8885 11.319 18.9379 11.2238 18.9598 11.1205C19.0584 11.0152 19.1127 10.8661 19.0912 10.7221C19.0867 10.5628 19.1381 10.3983 19.2447 10.2784C19.2715 10.2519 19.3036 10.2227 19.3432 10.2207Z" fill="#CF1126"/>
<path d="M19.032 10.2659C19.0694 10.2725 19.0922 10.3081 19.1122 10.3371C19.1199 10.3662 19.0843 10.3975 19.0786 10.4291C19.0348 10.5389 19.0183 10.6592 19.0314 10.7767C19.0343 10.8601 19.0044 10.9415 18.9619 11.0122C18.9496 10.9601 18.9014 10.9226 18.849 10.9175C18.83 10.9141 18.802 10.9238 18.8131 10.8947C18.8264 10.7352 18.8507 10.5748 18.9065 10.4241C18.9281 10.3703 18.9526 10.3136 18.9992 10.2767C19.0087 10.27 19.02 10.2643 19.032 10.2659Z" fill="#CF1126"/>
<path d="M11.8576 15.8659C11.4078 15.823 11.002 15.4952 10.8633 15.0659C10.8708 14.9919 10.9628 15.1072 11.0063 15.115C11.088 15.1603 11.1763 15.1977 11.2704 15.2035C11.3889 15.2544 11.4623 15.3713 11.5754 15.4322C11.628 15.4731 11.8139 15.5536 11.7794 15.4234C11.7358 15.3554 11.7058 15.2693 11.7433 15.1914C11.8064 15.053 11.9034 14.9326 12.001 14.8172C12.0728 14.7932 12.1208 14.9347 12.1722 14.9824C12.2432 15.0917 12.3288 15.225 12.2871 15.3608C12.2464 15.4111 12.2197 15.5624 12.3284 15.5115C12.4625 15.4526 12.5723 15.3535 12.6835 15.2609C12.7807 15.193 12.9053 15.1882 13.0072 15.1286C13.0545 15.1166 13.1529 15.0221 13.1734 15.0745C13.1175 15.2241 13.024 15.3581 12.924 15.4816C12.762 15.6666 12.5429 15.8057 12.2978 15.845C12.1529 15.8715 12.0043 15.8771 11.8576 15.8659Z" fill="#CF1126"/>
<path d="M12.3864 15.3398C12.3963 15.2495 12.3757 15.1573 12.3296 15.0753C12.2589 14.9311 12.1589 14.8031 12.0614 14.6766C11.9695 14.6228 11.9185 14.7985 11.8574 14.849C11.7622 14.9915 11.6426 15.1375 11.6369 15.3168C11.5833 15.4002 11.4834 15.2488 11.4403 15.199C11.3581 15.0826 11.2958 14.945 11.306 14.7994C11.2963 14.5649 11.3412 14.3314 11.4267 14.1134C11.4912 13.9273 11.5959 13.7465 11.5852 13.5432C11.5927 13.3902 11.5616 13.2213 11.4377 13.1184C11.3198 13.0259 11.5141 13.0061 11.5758 13.0541C11.6814 13.0612 11.7385 13.2357 11.835 13.1925C11.8735 13.1014 11.8811 12.9926 11.9603 12.9215C12.0381 12.815 12.1194 12.9667 12.1461 13.0378C12.201 13.1002 12.143 13.2547 12.2321 13.2587C12.339 13.1838 12.4152 13.058 12.5518 13.0306C12.6073 12.999 12.702 13.0264 12.6289 13.0901C12.5278 13.1849 12.4414 13.3034 12.4229 13.4445C12.392 13.6214 12.4362 13.8008 12.5134 13.9601C12.6616 14.2731 12.7762 14.6267 12.7012 14.9749C12.6664 15.1297 12.5613 15.2631 12.4335 15.353C12.4174 15.3627 12.3919 15.362 12.3864 15.3398Z" fill="#CF1126"/>
<path d="M12.2258 12.9871C12.1772 12.8996 12.1183 12.8134 12.0367 12.754C11.9573 12.7538 11.9083 12.8539 11.8544 12.9064C11.8166 12.9767 11.7707 13.0943 11.6775 13.0023C11.5294 12.9159 11.5032 12.7265 11.5041 12.5704C11.4948 12.3174 11.5967 12.0813 11.6872 11.8508C11.7448 11.7066 11.7306 11.5442 11.6955 11.3964C11.6513 11.2267 11.515 11.1089 11.4102 10.9765C11.4173 10.9253 11.5513 10.9533 11.6018 10.9631C11.7137 10.9914 11.7806 11.0906 11.8641 11.1606C11.9235 11.1426 11.8993 11.0226 11.9269 10.9662C11.9289 10.8868 12.0347 10.7821 12.0783 10.8958C12.1436 10.968 12.0762 11.1112 12.1605 11.1562C12.2409 11.1265 12.2806 11.0386 12.3561 10.9989C12.4304 10.9482 12.5354 10.9426 12.6154 10.9823C12.6435 11.0561 12.5274 11.1175 12.4937 11.1816C12.3587 11.3484 12.3112 11.5786 12.369 11.7853C12.4149 11.9475 12.4962 12.0988 12.5242 12.2665C12.558 12.4549 12.5568 12.6528 12.5081 12.8384C12.4789 12.9511 12.3813 13.0264 12.2805 13.0732C12.2557 13.0501 12.2426 13.0161 12.2258 12.9871L12.2258 12.9871Z" fill="#CF1126"/>
<path d="M11.7198 10.8954C11.6078 10.8134 11.5708 10.735 11.5708 10.58C11.5708 10.5007 11.5854 10.4577 11.6378 10.3857C11.7148 10.279 11.7008 10.2454 11.5918 10.2767C11.4164 10.327 11.3328 10.281 11.3268 10.1317C11.3241 10.0587 11.3394 10.0277 11.4378 9.90971C11.5164 9.81504 11.5451 9.76537 11.5294 9.7497C11.5141 9.73437 11.4211 9.81504 11.2301 10.0094C11.0778 10.1644 10.9064 10.3227 10.8494 10.3614C10.5214 10.5827 10.2081 10.617 10.0651 10.4467C9.99178 10.3597 9.99578 10.3107 10.0804 10.258C10.1194 10.234 10.1851 10.1787 10.2268 10.135C10.3251 10.0327 10.6181 9.82137 10.7634 9.74804C10.8814 9.68837 10.9094 9.64804 10.8328 9.64804C10.7334 9.64804 10.4148 9.85537 10.1731 10.0774C10.1021 10.143 9.99978 10.216 9.94611 10.2397C9.82545 10.293 9.58845 10.3127 9.48311 10.278C9.40878 10.2534 9.27311 10.1254 9.27311 10.0797C9.27311 10.0677 9.30411 10.041 9.34178 10.0207C9.37945 10.0007 9.44711 9.95171 9.49178 9.91271C9.68511 9.74304 10.0514 9.56837 10.3421 9.50737C10.4344 9.48804 10.4004 9.44137 10.2974 9.44604C10.0978 9.45471 9.70145 9.64037 9.46478 9.83571C9.18745 10.0644 8.76911 10.0427 8.63444 9.79271C8.61111 9.74971 8.59745 9.70937 8.60411 9.70304C8.61045 9.6967 8.69278 9.67204 8.78711 9.64804C8.88911 9.62237 9.09111 9.5387 9.28411 9.44237C9.58778 9.29104 9.67778 9.25871 9.88678 9.22504C9.98078 9.21004 9.98578 9.16404 9.89444 9.15337C9.77678 9.13937 9.59644 9.19837 9.27778 9.35504C8.86844 9.55637 8.75378 9.59104 8.53811 9.57837C8.34144 9.56637 8.23045 9.51604 8.07078 9.36504C7.96645 9.26604 7.81845 9.01471 7.84745 8.98571C7.85445 8.97871 7.90245 8.9857 7.95411 9.0007C8.01145 9.0177 8.17578 9.02904 8.37378 9.02937C8.65078 9.03004 8.72444 9.0227 8.87211 8.98004C9.11911 8.9087 9.44745 8.74171 9.67211 8.57404C10.1018 8.25271 10.4521 8.1237 10.8988 8.1217C11.3111 8.12004 11.5734 8.21537 11.8058 8.45104C11.8844 8.53071 11.9514 8.58237 11.9624 8.57137C11.9728 8.56104 11.9841 8.42171 11.9874 8.26171C11.9874 8.26171 12.1088 8.25004 12.1344 8.28404C12.1344 8.54371 12.1374 8.56404 12.1751 8.56404C12.1998 8.56404 12.2261 8.53871 12.2424 8.49937C12.2778 8.41437 12.4084 8.29804 12.5481 8.22737C12.8498 8.07437 13.3718 8.0697 13.7911 8.21604C13.9678 8.27804 14.1638 8.38871 14.3504 8.53271C14.5378 8.67671 14.9208 8.86937 15.1471 8.93371C15.3761 8.99871 15.7798 9.01504 15.9868 8.96804C16.0721 8.94871 16.1521 8.93271 16.1648 8.93271C16.2411 8.93271 16.1111 9.18704 15.9584 9.33604C15.6794 9.6087 15.3164 9.60737 14.8058 9.33204C14.4874 9.1607 14.1068 9.06704 14.1068 9.16037C14.1068 9.17971 14.1268 9.19271 14.1564 9.19271C14.2671 9.19271 14.4808 9.26704 14.7788 9.40837C15.1011 9.56171 15.2821 9.62637 15.3894 9.62637C15.4674 9.62637 15.4698 9.67471 15.3971 9.78137C15.3201 9.89504 15.1894 9.95137 15.0048 9.95104C14.8284 9.95037 14.7304 9.91171 14.5728 9.78071C14.3091 9.56137 13.6521 9.31671 13.6774 9.44737C13.6824 9.47337 13.7141 9.48937 13.7818 9.4997C14.0104 9.5347 14.2788 9.6627 14.5534 9.86837C14.6381 9.93204 14.7261 9.9947 14.7484 10.008C14.7861 10.03 14.7868 10.0367 14.7571 10.0924C14.7078 10.1844 14.5834 10.2557 14.4488 10.2697C14.2744 10.2877 14.1228 10.2357 13.9658 10.1044C13.6344 9.82704 13.3221 9.62637 13.2221 9.62637C13.1404 9.62637 13.1771 9.67137 13.3211 9.7477C13.5104 9.84804 13.7051 9.9837 13.8484 10.1154C13.9161 10.178 13.9924 10.24 14.0178 10.2537C14.0778 10.2857 14.0754 10.3327 14.0094 10.419C13.9421 10.507 13.8308 10.5457 13.6864 10.5304C13.3984 10.5 13.1738 10.361 12.8208 9.99471C12.6828 9.85171 12.5598 9.73471 12.5471 9.73471C12.5001 9.73471 12.5278 9.79837 12.6188 9.90037C12.7314 10.0264 12.7531 10.0974 12.7104 10.1997C12.6728 10.2904 12.6101 10.3114 12.4814 10.2767C12.3498 10.241 12.3291 10.2734 12.4154 10.3807C12.5441 10.541 12.5251 10.7374 12.3674 10.8724C12.3184 10.914 12.2671 10.9484 12.2531 10.9484C12.2394 10.9484 12.2048 10.9127 12.1758 10.869C12.0744 10.715 11.9854 10.716 11.8868 10.8717C11.8524 10.926 11.8234 10.97 11.8224 10.9697C11.8211 10.9694 11.7748 10.936 11.7198 10.8954Z" fill="#CF1126"/>
<path d="M12.2228 7.76758L12.0518 7.90291L11.8984 7.78724V8.71191L12.2228 8.71591V7.76758Z" fill="#CF1126"/>
<path d="M11.1665 6.80735C11.1325 7.24435 11.0215 7.54935 10.8672 7.88568L11.2372 7.54268L11.4945 7.84835L11.7732 7.53735L12.0575 7.80002L12.3309 7.52668L12.6149 7.85902L12.8615 7.58568L13.2795 7.88568C13.1279 7.54935 12.9225 7.26435 12.9482 6.79102C12.5432 7.09202 11.5809 7.14635 11.1665 6.80735Z" fill="#CF1126"/>
<path d="M11.902 6.58398C11.7533 6.58665 11.5966 6.58865 11.4556 6.61632C11.358 6.63565 11.2693 6.66732 11.1953 6.71965C11.2073 7.00398 12.562 7.12265 12.9253 6.72498C12.849 6.66932 12.7556 6.63632 12.653 6.61632C12.5173 6.58998 12.3673 6.58732 12.225 6.58498C12.225 6.66298 12.2256 6.74132 12.2256 6.81965L11.902 6.81865V6.58398Z" fill="#CF1126"/>
<path d="M12.1635 5.13086L11.9531 5.13253V6.77853L12.1678 6.77953L12.1635 5.13086Z" fill="#CF1126"/>
<path d="M12.1663 5.17383L12.0859 5.96183L12.8966 6.35783L12.4863 5.80916L13.0466 5.62749L12.1663 5.17383Z" fill="#CF1126"/>
<path d="M12.0734 4.96875C11.9504 4.96875 11.8594 5.01475 11.8594 5.06942C11.8594 5.12408 11.9504 5.17042 12.0734 5.17042C12.1964 5.17042 12.2867 5.12408 12.2867 5.06942C12.2867 5.01475 12.1964 4.96875 12.0734 4.96875Z" fill="#CF1126"/>
<path d="M11.6999 18.7931C11.8329 18.7491 11.9085 18.6684 11.9629 18.5131C11.9899 18.4358 12.0082 18.3554 12.0035 18.3344C11.9922 18.2848 11.9349 18.2874 11.8715 18.3401C11.8282 18.3764 11.8229 18.3948 11.8352 18.4688C11.8669 18.6554 11.8005 18.7018 11.4472 18.7398C11.4122 18.7434 11.3109 18.7374 11.2215 18.7264C11.0535 18.7054 10.9935 18.7221 11.0545 18.7728C11.0729 18.7881 11.1195 18.8088 11.1582 18.8184C11.2525 18.8428 11.5989 18.8264 11.6999 18.7931Z" fill="#F7E017"/>
<path d="M12.435 18.763C12.455 18.7447 12.5237 18.713 12.5877 18.6924C12.673 18.665 12.717 18.6357 12.753 18.582C12.8567 18.4277 12.8373 18.2947 12.685 18.1154C12.6023 18.018 12.5657 18.0207 12.4997 18.1287C12.4427 18.222 12.444 18.228 12.526 18.2494C12.569 18.2604 12.6103 18.292 12.633 18.331C12.7223 18.4857 12.696 18.5814 12.5637 18.5824C12.4437 18.5834 12.4107 18.6004 12.3783 18.678C12.3613 18.7184 12.3477 18.7614 12.3477 18.7737C12.3477 18.8064 12.393 18.8007 12.435 18.763Z" fill="#F7E017"/>
<path d="M12.1909 18.5871C12.2136 18.5257 12.2216 18.4154 12.2189 18.1904C12.2173 18.0191 12.2106 17.8737 12.2039 17.8671C12.1839 17.8471 12.0853 17.9107 12.0723 17.9517C12.0656 17.9731 12.0766 18.0224 12.0966 18.0611C12.1273 18.1207 12.1313 18.1764 12.1219 18.4101C12.1099 18.7054 12.1293 18.7551 12.1909 18.5871Z" fill="#F7E017"/>
<path d="M11.629 18.4473C11.641 18.3923 11.6563 18.2796 11.6633 18.1973C11.6703 18.115 11.6873 18.011 11.7007 17.966C11.7347 17.8506 11.7003 17.8203 11.6093 17.885L11.5417 17.9333L11.5557 18.099C11.5687 18.2483 11.545 18.5266 11.5107 18.6346C11.5013 18.6633 11.5147 18.656 11.5523 18.612C11.5827 18.5766 11.6173 18.5023 11.629 18.4473Z" fill="#F7E017"/>
<path d="M11.1286 18.5268C11.2503 18.425 11.2363 18.2511 11.2633 18.1095C11.2605 18.0153 11.3234 17.9024 11.2828 17.82C11.1691 17.8408 11.099 17.9485 11.1572 18.0559C11.162 18.1805 11.1576 18.3161 11.0936 18.4263C11.0412 18.4983 10.8755 18.4804 10.8831 18.3783C10.9247 18.2247 10.7407 18.2994 10.6689 18.3397C10.6134 18.3784 10.4962 18.3812 10.5369 18.2845C10.51 18.1556 10.3443 18.2362 10.2542 18.2356C10.1691 18.2341 10.2472 18.0633 10.1251 18.0933C9.89821 18.0754 9.64777 18.0953 9.4514 17.9582C9.33645 17.903 9.3535 17.7647 9.41335 17.6753C9.48483 17.5531 9.5052 17.4003 9.61865 17.3055C9.73095 17.1978 9.51273 17.2433 9.46359 17.2796C9.35419 17.3394 9.45582 17.4936 9.36628 17.5792C9.31397 17.6679 9.24508 17.7904 9.12396 17.7735C8.9493 17.7405 8.84861 17.578 8.72339 17.4691C8.61612 17.4477 8.67643 17.6432 8.73182 17.6842C8.84141 17.7663 8.96946 17.8261 9.10155 17.8615C9.23302 17.8405 9.23728 18.0127 9.3497 18.0397C9.55594 18.1358 9.7858 18.1646 10.0108 18.1763C10.0992 18.1837 10.0495 18.341 10.1657 18.3099C10.2306 18.3268 10.3773 18.2858 10.3846 18.3612C10.2862 18.4781 10.4791 18.4755 10.5505 18.4545C10.6419 18.4406 10.7587 18.4056 10.7828 18.5309C10.8591 18.6114 10.9992 18.5995 11.0921 18.5535C11.1052 18.5459 11.1175 18.537 11.1286 18.5268Z" fill="#F7E017"/>
<path d="M9.13567 17.519C9.17267 17.472 9.22801 17.377 9.25867 17.3076C9.28901 17.238 9.33467 17.159 9.35967 17.132C9.41834 17.0686 9.38567 17.0296 9.29101 17.0506C9.24101 17.0616 9.22067 17.08 9.21234 17.1233C9.18401 17.2646 9.13267 17.4093 9.08701 17.4766C9.00434 17.5986 9.00234 17.6036 9.03634 17.6036C9.05401 17.6036 9.09867 17.5656 9.13567 17.519Z" fill="#F7E017"/>
<path d="M7.88875 16.7363C7.79542 16.7363 7.79142 16.7953 7.88242 16.827C7.92642 16.8423 7.96375 16.8793 7.99375 16.9397C8.08242 17.116 8.13442 17.1473 8.36975 17.1677L8.52075 17.1813L8.52809 17.273C8.53175 17.3237 8.54375 17.3657 8.55542 17.3657C8.56709 17.3657 8.62542 17.3403 8.68442 17.3103C8.79509 17.2543 8.90009 17.1237 8.90009 17.0427C8.90009 16.9897 8.81175 16.9323 8.73142 16.9323C8.69575 16.9323 8.62775 16.961 8.57409 17C8.40609 17.1217 8.22642 17.097 8.12809 16.9387C8.04742 16.808 7.96309 16.7363 7.88875 16.7363ZM8.70409 17.0613C8.74875 17.0613 8.75975 17.0943 8.73542 17.1573C8.71875 17.2007 8.66442 17.202 8.64809 17.1593C8.62875 17.109 8.65575 17.0613 8.70409 17.0613Z" fill="#F7E017"/>
<path d="M15.0292 16.8556C14.9682 16.858 14.9502 16.8713 14.9115 16.9286C14.8482 17.0226 14.8418 17.2263 14.9002 17.2983C14.9365 17.3429 14.9419 17.344 15.0189 17.312C15.1262 17.267 15.1442 17.2686 15.1439 17.3263C15.1432 17.4736 14.9319 17.7576 14.7105 17.9086C14.6509 17.9493 14.5975 17.9946 14.5918 18.0096C14.5758 18.0516 14.6578 18.0423 14.7585 17.991C14.8958 17.921 15.0762 17.737 15.1502 17.592C15.2088 17.4763 15.2172 17.437 15.2242 17.2346C15.2305 17.0483 15.2255 16.9936 15.1939 16.9316C15.1585 16.862 15.1472 16.8556 15.0585 16.8556C15.0478 16.8556 15.0382 16.8553 15.0292 16.8556ZM15.0365 16.9856C15.0825 16.9856 15.0905 16.996 15.0959 17.062C15.1005 17.1166 15.0909 17.15 15.0605 17.1773C15.0192 17.2146 15.0159 17.2143 14.9792 17.1586C14.9279 17.08 14.9595 16.9856 15.0365 16.9856Z" fill="#F7E017"/>
<path d="M14.0224 18.4084C14.2174 18.3124 14.3324 18.2044 14.4064 18.048C14.4414 17.9737 14.4701 17.9037 14.4701 17.8917C14.4701 17.8647 14.3741 17.82 14.3164 17.82C14.2591 17.82 14.2474 17.7804 14.2721 17.6707C14.2961 17.5637 14.2671 17.4297 14.2201 17.4297C14.2031 17.4297 14.1731 17.4547 14.1531 17.485C14.1224 17.532 14.1207 17.552 14.1434 17.6204C14.1767 17.7217 14.1504 17.7974 14.0597 17.862C14.0167 17.8927 13.9931 17.928 13.9931 17.9624C13.9931 17.9914 13.9967 18.015 14.0011 18.015C14.0057 18.015 14.0531 17.9904 14.1064 17.9607L14.2037 17.9064L14.2611 17.9514C14.2924 17.976 14.3184 18.0164 14.3184 18.041C14.3184 18.1597 13.9801 18.359 13.7477 18.3777C13.6241 18.3877 13.6031 18.3834 13.5601 18.3407C13.5251 18.3057 13.5151 18.2764 13.5237 18.235C13.5304 18.2034 13.5424 18.1457 13.5504 18.107C13.5717 18.0037 13.5274 18.0177 13.4507 18.1384C13.3877 18.238 13.3691 18.3444 13.4044 18.4004C13.4334 18.446 13.6261 18.4897 13.7624 18.4814C13.8481 18.4764 13.9327 18.4524 14.0224 18.4084Z" fill="#F7E017"/>
<path d="M15.3227 17.6827C15.4454 17.5603 15.4974 17.4113 15.498 17.181L15.4984 17.008L15.5997 16.96C15.7314 16.8973 15.856 16.7727 15.856 16.7033C15.856 16.632 15.8244 16.6357 15.767 16.7133C15.7254 16.7697 15.6697 16.8037 15.466 16.8973C15.4147 16.921 15.4114 16.9337 15.3997 17.149C15.386 17.3973 15.3524 17.4903 15.2137 17.66C15.1287 17.7633 15.1257 17.777 15.1847 17.777C15.209 17.777 15.271 17.7347 15.3227 17.6827Z" fill="#F7E017"/>
<path d="M13.9879 17.5427C13.9996 17.507 13.9319 17.4817 13.9026 17.5107C13.8902 17.523 13.8869 17.5443 13.8952 17.558C13.9146 17.589 13.9759 17.5787 13.9879 17.5427Z" fill="#F7E017"/>
<path d="M15.8316 17.0661C15.8436 17.0304 15.7756 17.0051 15.7466 17.0341C15.734 17.0468 15.7306 17.0681 15.739 17.0818C15.7583 17.1128 15.8196 17.1024 15.8316 17.0661Z" fill="#F7E017"/>
<path d="M13.6112 15.7756C13.5635 15.7983 13.5388 15.8497 13.5057 15.889C13.4819 15.9052 13.501 15.9203 13.5147 15.9356C13.5988 16.0262 13.6343 16.1485 13.6743 16.2626C13.7135 16.3973 13.7629 16.5419 13.7219 16.6822C13.7058 16.7359 13.6635 16.7916 13.6004 16.7737C13.4993 16.7674 13.3999 16.7406 13.2986 16.7417C13.2085 16.7464 13.1388 16.8284 13.0466 16.8195C12.9877 16.8233 12.9902 16.6989 12.9355 16.7322C12.9084 16.7971 12.9217 16.8695 12.9185 16.9381C12.9287 16.9479 12.9573 16.9394 12.9745 16.9422H13.156C13.1688 17.0049 13.1672 17.0768 13.2122 17.1266C13.2752 17.149 13.3461 17.1297 13.406 17.1052C13.4701 17.0753 13.4787 16.9981 13.4969 16.938C13.5162 16.8734 13.6008 16.8903 13.6507 16.865C13.7729 16.8293 13.8529 16.7023 13.8458 16.5774C13.8379 16.3867 13.7651 16.2072 13.7099 16.0267C13.6821 15.9472 13.6629 15.8642 13.6307 15.7866C13.6269 15.7799 13.6191 15.7742 13.6112 15.7756ZM13.3089 16.8662C13.3767 16.8618 13.4062 16.9452 13.3919 17.0005C13.3665 17.0757 13.274 17.0275 13.2553 16.9733C13.221 16.925 13.2422 16.8599 13.3089 16.8662Z" fill="#F7E017"/>
<path d="M10.7987 16.2403C10.7684 16.2396 10.7344 16.2509 10.7007 16.2746C10.5237 16.3986 10.4784 16.5453 10.5987 16.6026C10.687 16.6449 10.6647 16.6946 10.5257 16.7643C10.3267 16.8636 10.151 16.8513 9.81736 16.7133C9.73536 16.6793 9.71403 16.6923 9.73303 16.7673C9.75136 16.8409 9.8187 16.8813 9.98603 16.9193C10.166 16.9606 10.3837 16.9473 10.5237 16.8869C10.592 16.8576 10.673 16.7959 10.7414 16.7216L10.8497 16.6026L10.9757 16.6183C11.131 16.6373 11.134 16.6389 11.134 16.7133C11.134 16.7723 11.1374 16.7736 11.28 16.7869C11.3604 16.7946 11.466 16.8016 11.5154 16.8016C11.5784 16.8019 11.614 16.8129 11.635 16.8423C11.663 16.8813 11.6797 16.8833 11.9144 16.8623C12.1337 16.8423 12.1767 16.8439 12.2757 16.8776C12.346 16.9016 12.4234 16.9113 12.482 16.9049C12.65 16.8859 12.8817 16.7486 12.9154 16.6476C12.9194 16.6353 12.9804 16.6136 13.0507 16.5996C13.2204 16.5656 13.2277 16.5286 13.0694 16.5089C13.0007 16.5003 12.8977 16.4753 12.8404 16.4526C12.7827 16.4299 12.704 16.4109 12.6654 16.4109C12.58 16.4109 12.4997 16.4643 12.4997 16.5193C12.4997 16.5553 12.5124 16.5589 12.6134 16.5486C12.7084 16.5389 12.736 16.5443 12.786 16.5839C12.819 16.6099 12.841 16.6406 12.834 16.6516C12.8117 16.6879 12.6134 16.7783 12.5257 16.7923C12.467 16.8016 12.4197 16.7953 12.3737 16.7716C12.2967 16.7316 12.1834 16.7256 12.162 16.7599C12.153 16.7749 12.1287 16.7653 12.0954 16.7339L12.0434 16.6849L11.9257 16.7339C11.806 16.7836 11.762 16.7816 11.762 16.7246C11.762 16.6986 11.727 16.6956 11.5507 16.7069C11.3564 16.7196 11.336 16.7163 11.2997 16.6756C11.266 16.6383 11.2654 16.6253 11.2894 16.5869C11.3114 16.5516 11.3114 16.5363 11.2904 16.5153C11.2694 16.4943 11.242 16.4946 11.1654 16.5153C10.972 16.5669 10.9174 16.5379 10.9174 16.3869C10.9174 16.2963 10.8654 16.2413 10.7987 16.2403ZM10.7507 16.3789C10.761 16.3789 10.7697 16.3853 10.783 16.3986C10.8 16.4156 10.809 16.4453 10.8017 16.4643C10.7844 16.5093 10.7024 16.5076 10.685 16.4623C10.6767 16.4403 10.6874 16.4156 10.712 16.3976C10.7294 16.3849 10.7404 16.3786 10.7507 16.3789Z" fill="#F7E017"/>
<path d="M10.4019 16.5183C10.5196 16.4436 10.5169 16.4493 10.5339 16.242C10.5456 16.0956 10.5436 16.0846 10.5039 16.0846C10.4462 16.0846 10.4162 16.148 10.4162 16.2686C10.4162 16.346 10.4042 16.3806 10.3629 16.4216C10.2649 16.5196 10.0216 16.475 9.9909 16.3533C9.98057 16.3116 9.9939 16.274 10.0449 16.2016C10.1512 16.0506 10.1272 16.0136 9.9969 16.1283C9.90723 16.2066 9.89123 16.209 9.90823 16.1413C9.9239 16.079 9.89123 16.0543 9.81823 16.0726C9.7809 16.082 9.76057 16.1053 9.75157 16.1506C9.7429 16.195 9.72256 16.2196 9.68723 16.2283C9.62823 16.2433 9.52757 16.1873 9.52757 16.1396C9.52757 16.1043 9.67823 15.9203 9.87157 15.7196C9.94457 15.6436 10.0042 15.573 10.0042 15.5623C10.0042 15.5516 9.96523 15.543 9.91757 15.543C9.8479 15.543 9.8309 15.5506 9.8309 15.583C9.8309 15.605 9.73356 15.7326 9.61423 15.867C9.36556 16.147 9.3449 16.2053 9.4679 16.28C9.5669 16.3406 9.6939 16.336 9.79356 16.2683L9.87423 16.2133V16.313C9.87423 16.4403 9.89957 16.486 9.99957 16.539C10.1252 16.6053 10.2772 16.5973 10.4019 16.5183Z" fill="#F7E017"/>
<path d="M15.6209 14.7891C15.5286 14.8441 15.6008 14.9598 15.6148 15.0367C15.5771 15.1416 15.4424 15.1698 15.3442 15.1893C15.2051 15.2123 15.1065 15.3287 15.0536 15.4523C15.0249 15.5326 14.9557 15.6572 14.8803 15.5349C14.8147 15.4685 14.6942 15.4158 14.6167 15.4934C14.5578 15.5494 14.5428 15.6319 14.5209 15.7068C14.4861 15.6492 14.4705 15.5636 14.3969 15.5454C14.2793 15.5619 14.3218 15.7102 14.3771 15.7713C14.4273 15.8425 14.4756 15.9365 14.4263 16.0212C14.3829 16.1229 14.2327 16.1915 14.1444 16.1045C14.062 16.061 14.1172 15.9057 14.036 15.8971C13.9959 15.9261 13.9925 16.0887 13.9283 16.0005C13.882 15.9253 13.9065 15.8221 13.8498 15.7544C13.7828 15.7627 13.7289 15.8781 13.7512 15.9401C13.8406 16.0607 13.8774 16.212 13.9123 16.3557C13.934 16.4132 13.9091 16.5299 13.9629 16.5527C14.0002 16.4601 13.9656 16.355 13.9949 16.2615C14.0822 16.2505 14.1793 16.2904 14.2708 16.2692C14.4018 16.2522 14.503 16.1417 14.5489 16.024C14.5628 15.9355 14.5462 15.8458 14.5438 15.7568C14.6472 15.7728 14.7547 15.7725 14.8542 15.8061C14.9036 15.8818 14.8386 15.9877 14.8249 16.0704C14.773 16.2388 14.6411 16.361 14.5127 16.4736C14.4591 16.5054 14.4519 16.5896 14.5311 16.5442C14.7036 16.4705 14.8321 16.3143 14.9061 16.1453C14.96 16.0152 14.9166 15.8703 14.9519 15.7373C15.0039 15.6375 15.1293 15.6585 15.222 15.6588C15.318 15.6552 15.3999 15.5433 15.3678 15.4501C15.3373 15.3419 15.4518 15.2897 15.53 15.251C15.6337 15.1987 15.7133 15.0924 15.7052 14.9724C15.701 14.9111 15.704 14.7947 15.6209 14.7891ZM15.2532 15.4141C15.3643 15.4436 15.2331 15.6558 15.174 15.5214C15.1558 15.4701 15.199 15.4122 15.2532 15.4141ZM14.7375 15.5661C14.8821 15.5576 14.8302 15.7688 14.708 15.6729C14.6447 15.6411 14.6656 15.5621 14.7375 15.5661Z" fill="#F7E017"/>
<path d="M9.50368 16.3817C9.50768 16.3607 9.49702 16.3457 9.47802 16.3457C9.43769 16.3457 9.41335 16.381 9.43235 16.4117C9.45202 16.4434 9.49535 16.4254 9.50368 16.3817Z" fill="#F7E017"/>
<path d="M11.1969 16.1931C11.1969 16.1621 11.1852 16.1504 11.1592 16.1554C11.1026 16.1661 11.0962 16.2381 11.1519 16.2381C11.1829 16.2381 11.1969 16.2241 11.1969 16.1931Z" fill="#F7E017"/>
<path d="M9.10227 15.1759C9.03464 15.162 8.99209 15.2193 8.96894 15.2739C8.91836 15.3589 8.85659 15.4458 8.76583 15.4908C8.70057 15.509 8.62938 15.4841 8.5731 15.4505C8.50595 15.4171 8.52121 15.3363 8.49243 15.2805C8.44386 15.2423 8.35774 15.2969 8.35965 15.3562C8.35428 15.4357 8.42869 15.4817 8.49046 15.5124C8.54295 15.5446 8.61905 15.5624 8.64003 15.6275C8.63857 15.6828 8.66081 15.7461 8.72814 15.7247C8.80347 15.7235 8.82297 15.8152 8.79256 15.8703C8.76158 15.9323 8.74068 16.005 8.7555 16.0741C8.7915 16.1045 8.82826 16.0231 8.85434 15.9999C8.87205 15.9763 8.88977 15.9527 8.90748 15.9291C9.04076 15.9363 9.17391 15.9533 9.30751 15.9486C9.40253 15.9468 9.48344 15.8882 9.54386 15.8194C9.62931 15.73 9.69951 15.6251 9.7971 15.548C9.86656 15.531 9.82924 15.4002 9.75668 15.438C9.69132 15.4625 9.67075 15.5364 9.62546 15.5834C9.5483 15.6769 9.46958 15.7717 9.37232 15.8449C9.3015 15.8742 9.21997 15.8614 9.14721 15.8449C9.11686 15.8183 9.2075 15.7967 9.22015 15.7672C9.26188 15.7255 9.31143 15.6859 9.33561 15.6311C9.31248 15.5807 9.24172 15.5766 9.19186 15.5756C9.069 15.5903 8.97517 15.6934 8.85109 15.7031C8.75691 15.7064 8.80592 15.6045 8.84838 15.5697C8.93143 15.471 9.02119 15.3781 9.10791 15.2827C9.13251 15.2531 9.22153 15.225 9.16459 15.1834C9.14469 15.1762 9.12315 15.1763 9.10227 15.1759ZM9.16269 15.6749C9.22464 15.7097 9.12316 15.7668 9.08042 15.759C9.02434 15.7758 9.02333 15.7186 9.07314 15.7072C9.10114 15.6927 9.13072 15.6775 9.16269 15.6749ZM8.97206 15.8051C9.00732 15.8044 9.08122 15.8383 9.01183 15.86C8.96352 15.8975 8.90894 15.8219 8.97206 15.8051Z" fill="#F7E017"/>
<path d="M10.4703 15.8914C10.4703 15.8444 10.386 15.8511 10.3766 15.8987C10.3706 15.9294 10.3803 15.9367 10.4196 15.9311C10.4476 15.9271 10.4703 15.9094 10.4703 15.8914Z" fill="#F7E017"/>
<path d="M14.2064 15.5599C14.2151 15.5149 14.1524 15.4849 14.1194 15.5179C14.0864 15.5509 14.1167 15.6136 14.1614 15.6049C14.1821 15.6009 14.2024 15.5806 14.2064 15.5599Z" fill="#F7E017"/>
<path d="M8.39339 15.1019C8.45206 15.0515 8.45272 15.0482 8.42739 14.9375C8.39139 14.7825 8.39372 14.7659 8.45272 14.7512C8.52739 14.7322 8.71706 14.8339 8.75906 14.9152C8.79172 14.9782 8.79072 14.9825 8.73539 15.0339C8.67572 15.0889 8.67606 15.1532 8.73572 15.1532C8.78506 15.1532 8.92139 15.0242 8.92139 14.9779C8.92139 14.9135 8.77006 14.7615 8.65039 14.7059C8.57639 14.6712 8.50239 14.6552 8.41672 14.6549C8.26339 14.6549 8.24272 14.6879 8.28406 14.8662C8.33272 15.0752 8.26672 15.1035 8.09839 14.9459C7.97339 14.8289 7.92406 14.7072 7.92472 14.5155C7.92506 14.3099 8.00372 14.2082 8.18106 14.1842C8.29872 14.1685 8.29572 14.1409 8.17472 14.1229C7.99806 14.0962 7.84872 14.2142 7.79206 14.4249C7.72906 14.6585 7.87339 14.9432 8.12872 15.0899C8.26239 15.1665 8.31572 15.1689 8.39339 15.1019Z" fill="#F7E017"/>
<path d="M15.3524 14.8457C15.3667 14.8314 15.3784 14.7991 15.3784 14.7741C15.3784 14.7491 15.4027 14.6954 15.4324 14.6551C15.4624 14.6147 15.4867 14.5734 15.4867 14.5634C15.4867 14.5224 15.419 14.5237 15.3657 14.5661C15.311 14.6087 15.27 14.6097 15.27 14.5681C15.27 14.5577 15.296 14.5364 15.328 14.5207C15.4074 14.4821 15.414 14.4437 15.347 14.4131C15.261 14.3741 15.1747 14.4454 15.1657 14.5631C15.16 14.6417 15.1664 14.6554 15.227 14.6911C15.2824 14.7237 15.2927 14.7411 15.2834 14.7877C15.2674 14.8687 15.301 14.8971 15.3524 14.8457Z" fill="#F7E017"/>
<path d="M16.009 14.7717C16.057 14.7287 16.096 14.6797 16.096 14.6634C16.096 14.647 16.1373 14.6037 16.188 14.5674C16.3317 14.464 16.3633 14.3597 16.299 14.1994C16.274 14.1364 16.1953 14.0494 16.0243 13.8954C15.893 13.7767 15.772 13.6797 15.7563 13.6797C15.7097 13.6797 15.718 13.8514 15.7653 13.8664C15.8507 13.8937 15.9023 13.9287 16.0367 14.0497C16.1927 14.1907 16.2647 14.3224 16.2253 14.3957C16.1877 14.4667 16.1377 14.4447 16 14.297C15.9277 14.2194 15.856 14.156 15.8413 14.156C15.8253 14.1564 15.814 14.1844 15.814 14.2237C15.814 14.273 15.8403 14.32 15.9117 14.3994C16.028 14.5287 16.0393 14.6064 15.952 14.675C15.9207 14.6997 15.8883 14.72 15.8803 14.72C15.8727 14.72 15.847 14.6814 15.8237 14.6344C15.775 14.5357 15.4773 14.2214 15.4327 14.2214C15.4123 14.2214 15.4023 14.2467 15.4023 14.2967C15.4023 14.357 15.4143 14.3784 15.4623 14.403C15.5213 14.4337 15.6673 14.5807 15.814 14.758C15.856 14.8087 15.8973 14.8497 15.9063 14.85C15.915 14.85 15.9613 14.8147 16.009 14.7717Z" fill="#F7E017"/>
<path d="M16.3007 13.9362C16.2813 13.8739 15.882 13.4629 15.841 13.4629C15.8197 13.4629 15.813 13.4882 15.818 13.5536C15.8237 13.6329 15.8323 13.6466 15.887 13.6609C15.921 13.6699 16.0263 13.7526 16.1207 13.8442C16.2147 13.9359 16.2973 14.0056 16.304 13.9986C16.3107 13.9919 16.3093 13.9639 16.3007 13.9362Z" fill="#F7E017"/>
<path d="M13.9156 18.5622C13.9156 18.5766 13.9093 18.5905 13.8982 18.6007C13.8871 18.6109 13.872 18.6166 13.8562 18.6166C13.8405 18.6166 13.8254 18.6109 13.8143 18.6007C13.8031 18.5905 13.7969 18.5766 13.7969 18.5622C13.7969 18.5478 13.8031 18.5339 13.8143 18.5237C13.8254 18.5135 13.8405 18.5078 13.8562 18.5078C13.872 18.5078 13.8871 18.5135 13.8982 18.5237C13.9093 18.5339 13.9156 18.5478 13.9156 18.5622Z" fill="#F7E017"/>
<path d="M14.1265 18.4919C14.1265 18.5063 14.1203 18.5202 14.1091 18.5304C14.098 18.5406 14.0829 18.5463 14.0672 18.5463C14.0514 18.5463 14.0363 18.5406 14.0252 18.5304C14.0141 18.5202 14.0078 18.5063 14.0078 18.4919C14.0078 18.4775 14.0141 18.4636 14.0252 18.4534C14.0363 18.4432 14.0514 18.4375 14.0672 18.4375C14.0829 18.4375 14.098 18.4432 14.1091 18.4534C14.1203 18.4636 14.1265 18.4775 14.1265 18.4919Z" fill="#F7E017"/>
</g>
<defs>
<clipPath id="clip0_358_3394">
<rect width="24" height="24" rx="12" fill="white"/>
</clipPath>
</defs>
</svg>
