<svg width="24" height="24" viewBox="0 0 24 24" fill="none" xmlns="http://www.w3.org/2000/svg">
<g clip-path="url(#clip0_358_3773)">
<rect width="24" height="24" rx="12" fill="#003893"/>
<path d="M-3 1.80078H27.6V22.2008H-3V1.80078Z" fill="#003893"/>
<path d="M-3 12H27.6V17.1H-3V12Z" fill="white"/>
<path d="M-3 13.6992H27.6051V15.3992H-3V13.6992Z" fill="#CF2027"/>
<path d="M10.0088 8.42969L9.69359 9.39977L10.1786 9.55736" fill="#F7D116"/>
<path d="M10.0088 8.42969L10.324 9.39977L9.83895 9.55736" fill="#F7D116"/>
<path d="M10.9736 9.13379H9.95363V9.64379" fill="#F7D116"/>
<path d="M10.9736 9.13379L10.1484 9.73333L9.84866 9.32073" fill="#F7D116"/>
<path d="M10.6104 10.2754L10.2952 9.30531L9.81012 9.46291" fill="#F7D116"/>
<path d="M10.6104 10.2754L9.78515 9.67585L10.0849 9.26325" fill="#F7D116"/>
<path d="M9.41113 10.2754L10.2363 9.67585L9.93656 9.26325" fill="#F7D116"/>
<path d="M9.41113 10.2754L9.72633 9.30531L10.2114 9.46291" fill="#F7D116"/>
<path d="M9.03223 9.13574L9.85742 9.73528L10.1572 9.32268" fill="#F7D116"/>
<path d="M9.03223 9.13574H10.0522V9.64574" fill="#F7D116"/>
<path d="M10.0088 18.6289L9.69359 19.599L10.1786 19.7566" fill="#F7D116"/>
<path d="M10.0088 18.6289L10.324 19.599L9.83895 19.7566" fill="#F7D116"/>
<path d="M10.9736 19.333H9.95363V19.843" fill="#F7D116"/>
<path d="M10.9736 19.333L10.1484 19.9325L9.84866 19.52" fill="#F7D116"/>
<path d="M10.6104 20.4746L10.2952 19.5045L9.81012 19.6621" fill="#F7D116"/>
<path d="M10.6104 20.4746L9.78515 19.8751L10.0849 19.4625" fill="#F7D116"/>
<path d="M9.41113 20.4746L10.2363 19.8751L9.93656 19.4625" fill="#F7D116"/>
<path d="M9.41113 20.4746L9.72633 19.5045L10.2114 19.6621" fill="#F7D116"/>
<path d="M9.03223 19.335L9.85742 19.9345L10.1572 19.5219" fill="#F7D116"/>
<path d="M9.03223 19.335H10.0522V19.845" fill="#F7D116"/>
<path d="M15.8232 12.6582H14.8032V13.1682" fill="#F7D116"/>
<path d="M15.8232 12.6582L14.998 13.2577L14.6983 12.8451" fill="#F7D116"/>
<path d="M15.46 13.8018L15.1448 12.8317L14.6597 12.9893" fill="#F7D116"/>
<path d="M15.46 13.8018L14.6348 13.2022L14.9345 12.7896" fill="#F7D116"/>
<path d="M14.2607 13.7988L15.0859 13.1993L14.7862 12.7867" fill="#F7D116"/>
<path d="M14.2607 13.7988L14.5759 12.8288L15.061 12.9863" fill="#F7D116"/>
<path d="M13.8818 12.6611L14.707 13.2607L15.0068 12.8481" fill="#F7D116"/>
<path d="M13.8818 12.6611H14.9018V13.1711" fill="#F7D116"/>
<path d="M14.8564 11.9531L14.5412 12.9232L15.0263 13.0808" fill="#F7D116"/>
<path d="M14.8564 11.9531L15.1716 12.9232L14.6866 13.0808" fill="#F7D116"/>
<path d="M6.11719 15.8115H5.09719V16.3215" fill="#F7D116"/>
<path d="M6.11719 15.8115L5.29199 16.4111L4.99222 15.9985" fill="#F7D116"/>
<path d="M5.75684 16.9541L5.44164 15.984L4.9566 16.1416" fill="#F7D116"/>
<path d="M5.75684 16.9541L4.93164 16.3546L5.23141 15.942" fill="#F7D116"/>
<path d="M4.55371 16.9541L5.37891 16.3546L5.07914 15.942" fill="#F7D116"/>
<path d="M4.55371 16.9541L4.86891 15.984L5.35395 16.1416" fill="#F7D116"/>
<path d="M4.17969 15.8135L5.00489 16.413L5.30466 16.0004" fill="#F7D116"/>
<path d="M4.17969 15.8135H5.19969V16.3235" fill="#F7D116"/>
<path d="M5.15625 15.1084L4.84105 16.0785L5.32609 16.2361" fill="#F7D116"/>
<path d="M5.15625 15.1084L5.47145 16.0785L4.98641 16.2361" fill="#F7D116"/>
<path d="M13.6094 19.502L13.2942 18.5319L12.8091 18.6895" fill="#F7D116"/>
<path d="M13.6094 19.502L12.7842 18.9024L13.0839 18.4898" fill="#F7D116"/>
<path d="M12.4102 19.502L13.2354 18.9024L12.9356 18.4898" fill="#F7D116"/>
<path d="M12.4102 19.502L12.7254 18.5319L13.2104 18.6895" fill="#F7D116"/>
<path d="M12.0371 18.3633L12.8623 18.9628L13.1621 18.5502" fill="#F7D116"/>
<path d="M12.0371 18.3633H13.0571V18.8733" fill="#F7D116"/>
<path d="M13.0088 17.6562L12.6936 18.6263L13.1786 18.7839" fill="#F7D116"/>
<path d="M13.0088 17.6562L13.324 18.6263L12.8389 18.7839" fill="#F7D116"/>
<path d="M13.9785 18.3604H12.9585V18.8704" fill="#F7D116"/>
<path d="M13.9785 18.3604L13.1533 18.9599L12.8535 18.5473" fill="#F7D116"/>
<path d="M7.6123 11.252L7.29711 10.2819L6.81207 10.4395" fill="#F7D116"/>
<path d="M7.6123 11.252L6.78711 10.6524L7.08688 10.2398" fill="#F7D116"/>
<path d="M6.41309 11.25L7.23828 10.6505L6.93851 10.2379" fill="#F7D116"/>
<path d="M6.41309 11.25L6.72828 10.2799L7.21332 10.4375" fill="#F7D116"/>
<path d="M6.03418 10.1074L6.85938 10.707L7.15915 10.2944" fill="#F7D116"/>
<path d="M6.03418 10.1074H7.05418V10.6174" fill="#F7D116"/>
<path d="M7.01172 9.40625L6.69652 10.3763L7.18156 10.5339" fill="#F7D116"/>
<path d="M7.01172 9.40625L7.32692 10.3763L6.84188 10.5339" fill="#F7D116"/>
<path d="M7.97949 10.1064H6.95949V10.6164" fill="#F7D116"/>
<path d="M7.97949 10.1064L7.15429 10.706L6.85452 10.2934" fill="#F7D116"/>
<path d="M6.41504 19.502L7.24024 18.9024L6.94047 18.4898" fill="#F7D116"/>
<path d="M6.41504 19.502L6.73024 18.5319L7.21528 18.6895" fill="#F7D116"/>
<path d="M6.03613 18.3574L6.86133 18.957L7.1611 18.5444" fill="#F7D116"/>
<path d="M6.03613 18.3574H7.05613V18.8674" fill="#F7D116"/>
<path d="M7.0127 17.6562L6.6975 18.6263L7.18254 18.7839" fill="#F7D116"/>
<path d="M7.0127 17.6562L7.32789 18.6263L6.84285 18.7839" fill="#F7D116"/>
<path d="M7.97754 18.3604H6.95754V18.8704" fill="#F7D116"/>
<path d="M7.97754 18.3604L7.15234 18.9599L6.85257 18.5473" fill="#F7D116"/>
<path d="M7.61816 19.502L7.30297 18.5319L6.81793 18.6895" fill="#F7D116"/>
<path d="M7.61816 19.502L6.79297 18.9024L7.09274 18.4898" fill="#F7D116"/>
<path d="M12.4072 11.2461L13.2324 10.6466L12.9327 10.234" fill="#F7D116"/>
<path d="M12.4072 11.2461L12.7224 10.276L13.2075 10.4336" fill="#F7D116"/>
<path d="M12.0361 10.1055L12.8613 10.705L13.1611 10.2924" fill="#F7D116"/>
<path d="M12.0361 10.1055H13.0561V10.6155" fill="#F7D116"/>
<path d="M13.0049 9.40039L12.6897 10.3705L13.1747 10.5281" fill="#F7D116"/>
<path d="M13.0049 9.40039L13.3201 10.3705L12.835 10.5281" fill="#F7D116"/>
<path d="M13.9736 10.1074H12.9536V10.6174" fill="#F7D116"/>
<path d="M13.9736 10.1074L13.1484 10.707L12.8487 10.2944" fill="#F7D116"/>
<path d="M13.6064 11.2461L13.2912 10.276L12.8062 10.4336" fill="#F7D116"/>
<path d="M13.6064 11.2461L12.7812 10.6466L13.081 10.234" fill="#F7D116"/>
<path d="M4.17969 12.6621L5.00489 13.2617L5.30466 12.8491" fill="#F7D116"/>
<path d="M4.17969 12.6621H5.19969V13.1721" fill="#F7D116"/>
<path d="M5.15625 11.957L4.84105 12.9271L5.32609 13.0847" fill="#F7D116"/>
<path d="M5.15625 11.957L5.47145 12.9271L4.98641 13.0847" fill="#F7D116"/>
<path d="M6.12109 12.6602H5.10109V13.1702" fill="#F7D116"/>
<path d="M6.12109 12.6602L5.2959 13.2597L4.99613 12.8471" fill="#F7D116"/>
<path d="M5.75488 13.8027L5.43969 12.8327L4.95465 12.9903" fill="#F7D116"/>
<path d="M5.75488 13.8027L4.92969 13.2032L5.22946 12.7906" fill="#F7D116"/>
<path d="M4.55957 13.8027L5.38477 13.2032L5.085 12.7906" fill="#F7D116"/>
<path d="M4.55957 13.8027L4.87477 12.8327L5.35981 12.9903" fill="#F7D116"/>
<path d="M13.8789 15.8145L14.7041 16.414L15.0039 16.0014" fill="#F7D116"/>
<path d="M13.8789 15.8145H14.8989V16.3245" fill="#F7D116"/>
<path d="M14.8555 15.1094L14.5403 16.0795L15.0253 16.2371" fill="#F7D116"/>
<path d="M14.8555 15.1094L15.1707 16.0795L14.6856 16.2371" fill="#F7D116"/>
<path d="M15.8203 15.8125H14.8003V16.3225" fill="#F7D116"/>
<path d="M15.8203 15.8125L14.9951 16.412L14.6953 15.9994" fill="#F7D116"/>
<path d="M15.458 16.9551L15.1428 15.985L14.6578 16.1426" fill="#F7D116"/>
<path d="M15.458 16.9551L14.6328 16.3555L14.9326 15.9429" fill="#F7D116"/>
<path d="M14.2588 16.9551L15.084 16.3555L14.7842 15.9429" fill="#F7D116"/>
<path d="M14.2588 16.9551L14.574 15.985L15.059 16.1426" fill="#F7D116"/>
</g>
<defs>
<clipPath id="clip0_358_3773">
<rect width="24" height="24" rx="12" fill="white"/>
</clipPath>
</defs>
</svg>
