<svg width="24" height="24" viewBox="0 0 24 24" fill="none" xmlns="http://www.w3.org/2000/svg">
<g clip-path="url(#clip0_358_5502)">
<path d="M-6 0H30V24H-6V0Z" fill="#EE1C25"/>
<path d="M13.7181 5.00751C13.5546 5.05986 13.4053 5.14921 13.2819 5.26861C13.1586 5.38802 13.0644 5.53426 13.0067 5.69598C12.9491 5.8577 12.9295 6.03053 12.9495 6.20105C12.9695 6.37158 13.0285 6.53519 13.122 6.67919C13.2658 6.90063 13.3593 7.1509 13.396 7.41239C13.4326 7.67387 13.4115 7.94021 13.3342 8.19266C13.2568 8.44511 13.125 8.67753 12.9482 8.87357C12.7713 9.06962 12.5536 9.22451 12.3104 9.32736C12.0709 9.42866 11.8607 9.58876 11.6995 9.79284C11.5383 9.99692 11.4311 10.2384 11.388 10.4949C11.3449 10.7513 11.3671 11.0146 11.4527 11.2602C11.5383 11.5058 11.6845 11.7258 11.8778 11.8999C11.2966 11.4864 10.9 10.8622 10.7724 10.1604C10.6449 9.45869 10.7965 8.73488 11.195 8.14333C11.1796 8.13008 11.1648 8.1161 11.1507 8.10142C10.7429 8.70209 10.5848 9.43784 10.7099 10.153C10.835 10.8681 11.2334 11.5065 11.8209 11.9331C10.997 11.6032 10.3234 10.9815 9.92839 10.1868C9.53341 9.39204 9.44471 8.47973 9.67919 7.62378C9.91368 6.76782 10.4549 6.02808 11.1998 5.54558C11.9447 5.06308 12.8411 4.87155 13.7181 5.00751Z" fill="white"/>
<path d="M12.0792 7.24409L10.9766 7.72496L12.1512 7.98401L11.3532 7.08398L11.4698 8.2812" fill="#EE1C25"/>
<path d="M19.1808 11.4726C19.0805 11.3333 18.9494 11.2189 18.7977 11.1385C18.646 11.0581 18.4778 11.0137 18.3062 11.0088C18.1346 11.004 17.9641 11.0387 17.8081 11.1105C17.6521 11.1822 17.5148 11.2889 17.4067 11.4223C17.2406 11.6275 17.0314 11.7938 16.7941 11.9094C16.5567 12.0251 16.2969 12.0873 16.0329 12.0918C15.7689 12.0962 15.5071 12.0427 15.266 11.9351C15.0249 11.8274 14.8103 11.6683 14.6374 11.4687C14.467 11.2722 14.2498 11.1219 14.0059 11.0316C13.762 10.9413 13.4992 10.914 13.242 10.9523C12.9847 10.9905 12.7412 11.093 12.5341 11.2503C12.327 11.4076 12.1629 11.6147 12.0571 11.8522C12.2707 11.1717 12.7418 10.6016 13.3698 10.2635C13.9978 9.92533 14.733 9.84589 15.4188 10.0421C15.4266 10.0233 15.4353 10.0049 15.4449 9.98694C14.7477 9.78475 13.9991 9.86177 13.3576 10.2017C12.7161 10.5417 12.232 11.1179 12.0078 11.8084C12.0671 10.9229 12.4501 10.0901 13.0839 9.46889C13.7177 8.84766 14.558 8.48138 15.4445 8.43988C16.331 8.39838 17.2018 8.68456 17.8909 9.24387C18.5799 9.80318 19.0391 10.5965 19.1808 11.4726Z" fill="white"/>
<path d="M16.5478 10.6059L15.7498 9.70588L15.8664 10.9031L16.4758 9.86599L15.3732 10.3469" fill="#EE1C25"/>
<path d="M6.50132 16.6469C6.66438 16.7006 6.83764 16.7161 7.00763 16.692C7.17762 16.6679 7.33977 16.6049 7.48148 16.508C7.62318 16.4111 7.74063 16.2828 7.82468 16.133C7.90874 15.9833 7.95714 15.8163 7.96614 15.6448C7.97996 15.3811 8.05141 15.1237 8.17545 14.8906C8.2995 14.6575 8.47312 14.4544 8.6841 14.2957C8.89508 14.1369 9.13829 14.0263 9.39661 13.9717C9.65493 13.9171 9.92209 13.9197 10.1793 13.9794C10.4326 14.0383 10.6967 14.0323 10.9471 13.9619C11.1975 13.8916 11.4261 13.7592 11.6118 13.5771C11.7974 13.395 11.9341 13.1689 12.0092 12.9199C12.0843 12.6709 12.0954 12.407 12.0414 12.1525C12.2685 12.8287 12.2225 13.5668 11.9132 14.2095C11.6039 14.8522 11.0558 15.3486 10.3857 15.5929C10.3904 15.6127 10.3942 15.6328 10.3969 15.6529C11.0799 15.4067 11.6402 14.9043 11.9594 14.2522C12.2786 13.6002 12.3315 12.8495 12.107 12.1591C12.5796 12.9103 12.7592 13.8091 12.6116 14.6843C12.4639 15.5594 11.9995 16.3496 11.3066 16.9043C10.6138 17.4589 9.74113 17.7392 8.85491 17.6918C7.96869 17.6443 7.13093 17.2724 6.50132 16.6469Z" fill="white"/>
<path d="M9.13959 15.8005L10.3143 16.0596L9.5162 15.1595L9.63282 16.3568L10.2422 15.3196" fill="#EE1C25"/>
<path d="M14.7168 18.6669C14.8183 18.5284 14.8865 18.3684 14.9162 18.1993C14.9458 18.0302 14.936 17.8565 14.8876 17.6918C14.8392 17.5271 14.7535 17.3757 14.6371 17.2495C14.5207 17.1233 14.3767 17.0257 14.2164 16.9641C13.9699 16.8695 13.7472 16.722 13.5638 16.532C13.3805 16.342 13.241 16.1141 13.1552 15.8644C13.0694 15.6147 13.0394 15.3492 13.0672 15.0867C13.0951 14.8241 13.1802 14.5708 13.3165 14.3447C13.4507 14.1219 13.5266 13.8689 13.5371 13.609C13.5476 13.3491 13.4923 13.0908 13.3765 12.858C13.2606 12.6251 13.0879 12.4252 12.8743 12.2769C12.6607 12.1285 12.4131 12.0364 12.1544 12.0092C12.8676 12.0021 13.5554 12.2739 14.071 12.7667C14.5867 13.2595 14.8895 13.9342 14.9148 14.647C14.9351 14.6486 14.9553 14.6512 14.9753 14.6548C14.9521 13.9292 14.6475 13.241 14.126 12.736C13.6045 12.2309 12.9069 11.9486 12.1809 11.9488C13.0414 11.7315 13.9517 11.8384 14.7384 12.2493C15.5251 12.6601 16.1331 13.346 16.4465 14.1763C16.7599 15.0066 16.7568 15.9232 16.4378 16.7514C16.1188 17.5796 15.5062 18.2614 14.7168 18.6669Z" fill="white"/>
<path d="M14.7287 15.8955L15.3381 14.8584L14.2355 15.3393L15.4102 15.5983L14.6121 14.6983" fill="#EE1C25"/>
<path d="M5.87912 8.2061C5.87838 8.37779 5.91724 8.54734 5.99268 8.70157C6.06811 8.8558 6.1781 8.99056 6.31408 9.09537C6.45006 9.20019 6.60839 9.27223 6.77674 9.30591C6.94509 9.33959 7.11895 9.334 7.28479 9.28957C7.53983 9.22124 7.80675 9.20964 8.06677 9.25558C8.32678 9.30152 8.57356 9.40389 8.78974 9.55549C9.00593 9.70708 9.18626 9.90421 9.31805 10.133C9.44984 10.3618 9.52989 10.6167 9.55255 10.8798C9.57487 11.1389 9.66221 11.3882 9.80647 11.6046C9.95074 11.821 10.1473 11.9975 10.3779 12.1178C10.6085 12.2381 10.8657 12.2983 11.1257 12.2927C11.3857 12.2872 11.6402 12.2162 11.8655 12.0862C11.2926 12.5111 10.5764 12.6955 9.86961 12.5999C9.16278 12.5044 8.52126 12.1365 8.08181 11.5747C8.06443 11.5853 8.04656 11.595 8.02824 11.6039C8.4735 12.1773 9.12439 12.555 9.84319 12.6571C10.562 12.7591 11.2923 12.5775 11.8795 12.1506C11.3111 12.8322 10.5117 13.2807 9.63384 13.4108C8.75593 13.5408 7.86086 13.3433 7.11926 12.8558C6.37766 12.3683 5.84138 11.6249 5.61267 10.7674C5.38396 9.90987 5.47881 8.99818 5.87912 8.2061Z" fill="white"/>
<path d="M7.5008 10.4559L7.61741 11.6531L8.22678 10.616L7.12419 11.0969L8.29885 11.356" fill="#EE1C25"/>
</g>
<defs>
<clipPath id="clip0_358_5502">
<rect width="24" height="24" rx="12" fill="white"/>
</clipPath>
</defs>
</svg>
