<svg width="24" height="24" viewBox="0 0 24 24" fill="none" xmlns="http://www.w3.org/2000/svg">
<g clip-path="url(#clip0_17625_78530)">
<rect width="24" height="24" rx="12" fill="white"/>
<g clip-path="url(#clip1_17625_78530)">
<path d="M-1 0H44.6V24H-1V0Z" fill="white"/>
<path d="M-1 23.232V0H44.6V5.088L-1 23.232Z" fill="#DD7500"/>
<path d="M-1 22.848V0H44.6V0.384L-1 22.848ZM-1 23.616V24H44.6V9.792L-1 23.616Z" fill="#003893"/>
<path d="M7.76227 1.32275L8.06947 6.43091L9.14083 3.61619L8.66179 6.58931L10.4263 4.14803L9.19363 6.89651L11.5293 4.99475L9.62851 7.33043L12.376 6.09875L9.93475 7.86227L12.9088 7.38323L10.0941 8.45555L15.2023 8.76275L10.0941 9.06995L12.9088 10.1413L9.93475 9.66227L12.376 11.4268L9.62851 10.1941L11.5293 12.5298L9.19363 10.629L10.4263 13.3765L8.66179 10.9352L9.14083 13.9093L8.06947 11.0946L7.76227 16.2028L7.45507 11.0946L6.38275 13.9093L6.86179 10.9352L5.09827 13.3765L6.32995 10.629L3.99427 12.5298L5.89603 10.1941L3.14755 11.4268L5.58883 9.66227L2.61571 10.1413L5.43043 9.06995L0.322266 8.76275L5.43043 8.45555L2.61571 7.38323L5.58883 7.86227L3.14755 6.09875L5.89603 7.33043L3.99427 4.99475L6.32995 6.89651L5.09827 4.14803L6.86179 6.58931L6.38275 3.61619L7.45507 6.43091L7.76227 1.32275Z" fill="white"/>
</g>
</g>
<defs>
<clipPath id="clip0_17625_78530">
<rect width="24" height="24" rx="12" fill="white"/>
</clipPath>
<clipPath id="clip1_17625_78530">
<rect width="45.6" height="24" fill="white" transform="translate(-1)"/>
</clipPath>
</defs>
</svg>
