<svg width="24" height="24" viewBox="0 0 24 24" fill="none" xmlns="http://www.w3.org/2000/svg">
<g clip-path="url(#clip0_358_5521)">
<path d="M-6 0H30V24H-6V0Z" fill="#0F7562"/>
<mask id="mask0_358_5521" style="mask-type:luminance" maskUnits="userSpaceOnUse" x="9" y="13" width="6" height="6">
<path d="M9.20312 13.1992H14.8031V18.1992H9.20312V13.1992Z" fill="white"/>
</mask>
<g mask="url(#mask0_358_5521)">
<path d="M9.38828 17.1672C11.6285 17.1672 13.4445 15.3511 13.4445 13.1109C13.4445 10.8707 11.6285 9.05469 9.38828 9.05469C7.14808 9.05469 5.33203 10.8707 5.33203 13.1109C5.33203 15.3511 7.14808 17.1672 9.38828 17.1672Z" fill="white"/>
<path d="M14.6109 17.1672C16.8511 17.1672 18.6672 15.3511 18.6672 13.1109C18.6672 10.8707 16.8511 9.05469 14.6109 9.05469C12.3707 9.05469 10.5547 10.8707 10.5547 13.1109C10.5547 15.3511 12.3707 17.1672 14.6109 17.1672Z" fill="white"/>
</g>
<path d="M14.7984 16.7688C17.0386 16.7688 18.8547 14.9527 18.8547 12.7125C18.8547 10.4723 17.0386 8.65625 14.7984 8.65625C12.5582 8.65625 10.7422 10.4723 10.7422 12.7125C10.7422 14.9527 12.5582 16.7688 14.7984 16.7688Z" fill="#0F7562"/>
<path d="M9.20078 16.7688C11.441 16.7688 13.257 14.9527 13.257 12.7125C13.257 10.4723 11.441 8.65625 9.20078 8.65625C6.96058 8.65625 5.14453 10.4723 5.14453 12.7125C5.14453 14.9527 6.96058 16.7688 9.20078 16.7688Z" fill="#0F7562"/>
<mask id="mask1_358_5521" style="mask-type:luminance" maskUnits="userSpaceOnUse" x="4" y="5" width="16" height="15">
<path d="M12.0008 19.9234C15.9772 19.9234 19.2008 16.6999 19.2008 12.7234C19.2008 8.74699 15.9772 5.52344 12.0008 5.52344C8.02433 5.52344 4.80078 8.74699 4.80078 12.7234C4.80078 16.6999 8.02433 19.9234 12.0008 19.9234Z" fill="white"/>
</mask>
<g mask="url(#mask1_358_5521)">
<path d="M5.75 16.7676H9.3875V17.1676H5.75V16.7676ZM5.75 17.5801H18.25V17.7801H5.75V17.5801ZM5.75 18.1926H18.25V18.5051H5.75V18.1926ZM5.75 18.8176H18.25V19.2176H5.75V18.8176ZM5.75 19.4176H18.25V20.0426H5.75V19.4176ZM18.25 16.7676H14.6125V17.1676H18.25V16.7676Z" fill="white"/>
</g>
<mask id="mask2_358_5521" style="mask-type:luminance" maskUnits="userSpaceOnUse" x="5" y="7" width="10" height="9">
<path d="M10.025 15.3938C12.2652 15.3938 14.0813 13.5777 14.0813 11.3375C14.0813 9.0973 12.2652 7.28125 10.025 7.28125C7.7848 7.28125 5.96875 9.0973 5.96875 11.3375C5.96875 13.5777 7.7848 15.3938 10.025 15.3938Z" fill="white"/>
</mask>
<g mask="url(#mask2_358_5521)">
<path d="M13.9742 15.3938C16.2144 15.3938 18.0305 13.5777 18.0305 11.3375C18.0305 9.0973 16.2144 7.28125 13.9742 7.28125C11.734 7.28125 9.91797 9.0973 9.91797 11.3375C9.91797 13.5777 11.734 15.3938 13.9742 15.3938Z" fill="white"/>
</g>
<mask id="mask3_358_5521" style="mask-type:luminance" maskUnits="userSpaceOnUse" x="5" y="7" width="9" height="9">
<path d="M9.51328 15.7805C11.7535 15.7805 13.5695 13.9644 13.5695 11.7242C13.5695 9.48401 11.7535 7.66797 9.51328 7.66797C7.27308 7.66797 5.45703 9.48401 5.45703 11.7242C5.45703 13.9644 7.27308 15.7805 9.51328 15.7805Z" fill="white"/>
</mask>
<g mask="url(#mask3_358_5521)">
<path d="M14.4898 15.7805C16.73 15.7805 18.5461 13.9644 18.5461 11.7242C18.5461 9.48401 16.73 7.66797 14.4898 7.66797C12.2496 7.66797 10.4336 9.48401 10.4336 11.7242C10.4336 13.9644 12.2496 15.7805 14.4898 15.7805Z" fill="#0F7562"/>
</g>
<path d="M12 10.5C12.8975 10.5 13.625 9.77246 13.625 8.875C13.625 7.97754 12.8975 7.25 12 7.25C11.1025 7.25 10.375 7.97754 10.375 8.875C10.375 9.77246 11.1025 10.5 12 10.5Z" fill="#0F7562"/>
<mask id="mask4_358_5521" style="mask-type:luminance" maskUnits="userSpaceOnUse" x="5" y="7" width="9" height="10">
<path d="M9.34922 16.0051C11.5894 16.0051 13.4055 14.189 13.4055 11.9488C13.4055 9.70862 11.5894 7.89258 9.34922 7.89258C7.10901 7.89258 5.29297 9.70862 5.29297 11.9488C5.29297 14.189 7.10901 16.0051 9.34922 16.0051Z" fill="white"/>
</mask>
<g mask="url(#mask4_358_5521)">
<path d="M14.65 16.0051C16.8902 16.0051 18.7063 14.189 18.7063 11.9488C18.7063 9.70862 16.8902 7.89258 14.65 7.89258C12.4098 7.89258 10.5938 9.70862 10.5938 11.9488C10.5938 14.189 12.4098 16.0051 14.65 16.0051Z" fill="white"/>
</g>
<mask id="mask5_358_5521" style="mask-type:luminance" maskUnits="userSpaceOnUse" x="5" y="8" width="9" height="9">
<path d="M9.07578 16.4563C11.316 16.4563 13.132 14.6402 13.132 12.4C13.132 10.1598 11.316 8.34375 9.07578 8.34375C6.83558 8.34375 5.01953 10.1598 5.01953 12.4C5.01953 14.6402 6.83558 16.4563 9.07578 16.4563Z" fill="white"/>
</mask>
<g mask="url(#mask5_358_5521)">
<path d="M7.26484 21.807C9.89855 21.807 12.0336 19.672 12.0336 17.0383C12.0336 14.4046 9.89855 12.2695 7.26484 12.2695C4.63114 12.2695 2.49609 14.4046 2.49609 17.0383C2.49609 19.672 4.63114 21.807 7.26484 21.807Z" fill="white"/>
</g>
<mask id="mask6_358_5521" style="mask-type:luminance" maskUnits="userSpaceOnUse" x="5" y="8" width="9" height="9">
<path d="M9.3375 16.1184C11.5777 16.1184 13.3938 14.3023 13.3938 12.0621C13.3938 9.8219 11.5777 8.00586 9.3375 8.00586C7.0973 8.00586 5.28125 9.8219 5.28125 12.0621C5.28125 14.3023 7.0973 16.1184 9.3375 16.1184Z" fill="white"/>
</mask>
<g mask="url(#mask6_358_5521)">
<path d="M7.37422 22.2563C10.0079 22.2563 12.143 20.1212 12.143 17.4875C12.143 14.8538 10.0079 12.7188 7.37422 12.7188C4.74051 12.7188 2.60547 14.8538 2.60547 17.4875C2.60547 20.1212 4.74051 22.2563 7.37422 22.2563Z" fill="#0F7562"/>
</g>
<path d="M5.9375 15.0879C6.83496 15.0879 7.5625 14.3604 7.5625 13.4629C7.5625 12.5654 6.83496 11.8379 5.9375 11.8379C5.04004 11.8379 4.3125 12.5654 4.3125 13.4629C4.3125 14.3604 5.04004 15.0879 5.9375 15.0879Z" fill="#0F7562"/>
<mask id="mask7_358_5521" style="mask-type:luminance" maskUnits="userSpaceOnUse" x="5" y="8" width="9" height="9">
<path d="M9.07578 16.4563C11.316 16.4563 13.132 14.6402 13.132 12.4C13.132 10.1598 11.316 8.34375 9.07578 8.34375C6.83558 8.34375 5.01953 10.1598 5.01953 12.4C5.01953 14.6402 6.83558 16.4563 9.07578 16.4563Z" fill="white"/>
</mask>
<g mask="url(#mask7_358_5521)">
<mask id="mask8_358_5521" style="mask-type:luminance" maskUnits="userSpaceOnUse" x="5" y="7" width="9" height="10">
<path d="M9.72813 16.0559C11.9683 16.0559 13.7844 14.2398 13.7844 11.9996C13.7844 9.7594 11.9683 7.94336 9.72813 7.94336C7.48792 7.94336 5.67188 9.7594 5.67188 11.9996C5.67188 14.2398 7.48792 16.0559 9.72813 16.0559Z" fill="white"/>
</mask>
<g mask="url(#mask8_358_5521)">
<path d="M7.76484 22.6176C10.3986 22.6176 12.5336 20.4825 12.5336 17.8488C12.5336 15.2151 10.3986 13.0801 7.76484 13.0801C5.13114 13.0801 2.99609 15.2151 2.99609 17.8488C2.99609 20.4825 5.13114 22.6176 7.76484 22.6176Z" fill="white"/>
</g>
<path d="M10.75 13.8242L11.5 14.4492H12.125V15.6992H11.375L10.75 13.8242Z" fill="white"/>
</g>
<path d="M12 13.2012L11.9961 13.2131L12.0021 13.215L12 13.2012Z" fill="#FFDE23"/>
<path d="M12 13.2012L12.0039 13.2131L11.9979 13.215L12 13.2012Z" fill="#FFDE23"/>
<path d="M11.9922 13.2031H11.9797V13.2094L11.9922 13.2031Z" fill="#FFDE23"/>
<path d="M11.9922 13.2031L11.9821 13.2105L11.9784 13.2054L11.9922 13.2031Z" fill="#FFDE23"/>
<path d="M12 13.1992L12.0101 13.1919L12.0064 13.1868L12 13.1992Z" fill="#FFDE23"/>
<path d="M12 13.1992L12.0039 13.1873L12.0098 13.1893L12 13.1992Z" fill="#FFDE23"/>
<path d="M12.002 13.2021L11.9981 13.1903L11.9921 13.1922L12.002 13.2021Z" fill="#FFDE23"/>
<path d="M12.002 13.2021L11.9918 13.1948L11.9955 13.1897L12.002 13.2021Z" fill="#FFDE23"/>
<path d="M12.0029 13.2012L12.013 13.2085L12.0167 13.2035L12.0029 13.2012Z" fill="#FFDE23"/>
<path d="M12.0029 13.2012H12.0154V13.2074L12.0029 13.2012Z" fill="#FFDE23"/>
<path d="M12 13.2012L11.9961 13.2131L12.0021 13.215L12 13.2012Z" fill="#FFDE23"/>
<path d="M12 13.2012L12.0039 13.2131L11.9979 13.215L12 13.2012Z" fill="#FFDE23"/>
<path d="M11.9922 13.2031H11.9797V13.2094L11.9922 13.2031Z" fill="#FFDE23"/>
<path d="M11.9922 13.2031L11.9821 13.2105L11.9784 13.2054L11.9922 13.2031Z" fill="#FFDE23"/>
<path d="M12 13.1992L12.0101 13.1919L12.0064 13.1868L12 13.1992Z" fill="#FFDE23"/>
<path d="M12 13.1992L12.0039 13.1873L12.0098 13.1893L12 13.1992Z" fill="#FFDE23"/>
<path d="M12.002 13.2021L11.9981 13.1903L11.9921 13.1922L12.002 13.2021Z" fill="#FFDE23"/>
<path d="M12.002 13.2021L11.9918 13.1948L11.9955 13.1897L12.002 13.2021Z" fill="#FFDE23"/>
<path d="M12.0029 13.2012L12.013 13.2085L12.0167 13.2035L12.0029 13.2012Z" fill="#FFDE23"/>
<path d="M12.0029 13.2012H12.0154V13.2074L12.0029 13.2012Z" fill="#FFDE23"/>
<mask id="mask9_358_5521" style="mask-type:luminance" maskUnits="userSpaceOnUse" x="10" y="8" width="9" height="9">
<path d="M14.9242 16.4563C12.684 16.4563 10.868 14.6402 10.868 12.4C10.868 10.1598 12.684 8.34375 14.9242 8.34375C17.1644 8.34375 18.9805 10.1598 18.9805 12.4C18.9805 14.6402 17.1644 16.4563 14.9242 16.4563Z" fill="white"/>
</mask>
<g mask="url(#mask9_358_5521)">
<path d="M16.7352 21.807C14.1014 21.807 11.9664 19.672 11.9664 17.0383C11.9664 14.4046 14.1014 12.2695 16.7352 12.2695C19.3689 12.2695 21.5039 14.4046 21.5039 17.0383C21.5039 19.672 19.3689 21.807 16.7352 21.807Z" fill="white"/>
</g>
<mask id="mask10_358_5521" style="mask-type:luminance" maskUnits="userSpaceOnUse" x="10" y="8" width="9" height="9">
<path d="M14.6625 16.1184C12.4223 16.1184 10.6062 14.3023 10.6062 12.0621C10.6062 9.8219 12.4223 8.00586 14.6625 8.00586C16.9027 8.00586 18.7188 9.8219 18.7188 12.0621C18.7188 14.3023 16.9027 16.1184 14.6625 16.1184Z" fill="white"/>
</mask>
<g mask="url(#mask10_358_5521)">
<path d="M16.6258 22.2563C13.9921 22.2563 11.857 20.1212 11.857 17.4875C11.857 14.8538 13.9921 12.7188 16.6258 12.7188C19.2595 12.7188 21.3945 14.8538 21.3945 17.4875C21.3945 20.1212 19.2595 22.2563 16.6258 22.2563Z" fill="#0F7562"/>
</g>
<path d="M18.0625 15.0879C17.165 15.0879 16.4375 14.3604 16.4375 13.4629C16.4375 12.5654 17.165 11.8379 18.0625 11.8379C18.96 11.8379 19.6875 12.5654 19.6875 13.4629C19.6875 14.3604 18.96 15.0879 18.0625 15.0879Z" fill="#0F7562"/>
<mask id="mask11_358_5521" style="mask-type:luminance" maskUnits="userSpaceOnUse" x="10" y="8" width="9" height="9">
<path d="M14.9242 16.4563C12.684 16.4563 10.868 14.6402 10.868 12.4C10.868 10.1598 12.684 8.34375 14.9242 8.34375C17.1644 8.34375 18.9805 10.1598 18.9805 12.4C18.9805 14.6402 17.1644 16.4563 14.9242 16.4563Z" fill="white"/>
</mask>
<g mask="url(#mask11_358_5521)">
<mask id="mask12_358_5521" style="mask-type:luminance" maskUnits="userSpaceOnUse" x="10" y="7" width="9" height="10">
<path d="M14.2719 16.0559C12.0317 16.0559 10.2156 14.2398 10.2156 11.9996C10.2156 9.7594 12.0317 7.94336 14.2719 7.94336C16.5121 7.94336 18.3281 9.7594 18.3281 11.9996C18.3281 14.2398 16.5121 16.0559 14.2719 16.0559Z" fill="white"/>
</mask>
<g mask="url(#mask12_358_5521)">
<path d="M16.2352 22.6176C13.6014 22.6176 11.4664 20.4825 11.4664 17.8488C11.4664 15.2151 13.6014 13.0801 16.2352 13.0801C18.8689 13.0801 21.0039 15.2151 21.0039 17.8488C21.0039 20.4825 18.8689 22.6176 16.2352 22.6176Z" fill="white"/>
</g>
<path d="M13.25 13.8242L12.5 14.4492H11.875V15.6992H12.625L13.25 13.8242Z" fill="white"/>
</g>
<path d="M12 13.2012L12.0039 13.2131L11.9979 13.215L12 13.2012Z" fill="#FFDE23"/>
<path d="M12 13.2012L11.9961 13.2131L12.0021 13.215L12 13.2012Z" fill="#FFDE23"/>
<path d="M12.0078 13.2031H12.0203V13.2094L12.0078 13.2031Z" fill="#FFDE23"/>
<path d="M12.0078 13.2031L12.0179 13.2105L12.0216 13.2054L12.0078 13.2031Z" fill="#FFDE23"/>
<path d="M12 13.1992L11.9899 13.1919L11.9936 13.1868L12 13.1992Z" fill="#FFDE23"/>
<path d="M12 13.1992L11.9961 13.1873L11.9902 13.1893L12 13.1992Z" fill="#FFDE23"/>
<path d="M11.998 13.2021L12.0019 13.1903L12.0079 13.1922L11.998 13.2021Z" fill="#FFDE23"/>
<path d="M11.998 13.2021L12.0082 13.1948L12.0045 13.1897L11.998 13.2021Z" fill="#FFDE23"/>
<path d="M11.9971 13.2012L11.987 13.2085L11.9833 13.2035L11.9971 13.2012Z" fill="#FFDE23"/>
<path d="M11.9971 13.2012H11.9846V13.2074L11.9971 13.2012Z" fill="#FFDE23"/>
<path d="M12 13.2012L12.0039 13.2131L11.9979 13.215L12 13.2012Z" fill="#FFDE23"/>
<path d="M12 13.2012L11.9961 13.2131L12.0021 13.215L12 13.2012Z" fill="#FFDE23"/>
<path d="M12.0078 13.2031H12.0203V13.2094L12.0078 13.2031Z" fill="#FFDE23"/>
<path d="M12.0078 13.2031L12.0179 13.2105L12.0216 13.2054L12.0078 13.2031Z" fill="#FFDE23"/>
<path d="M12 13.1992L11.9899 13.1919L11.9936 13.1868L12 13.1992Z" fill="#FFDE23"/>
<path d="M12 13.1992L11.9961 13.1873L11.9902 13.1893L12 13.1992Z" fill="#FFDE23"/>
<path d="M11.998 13.2021L12.0019 13.1903L12.0079 13.1922L11.998 13.2021Z" fill="#FFDE23"/>
<path d="M11.998 13.2021L12.0082 13.1948L12.0045 13.1897L11.998 13.2021Z" fill="#FFDE23"/>
<path d="M11.9971 13.2012L11.987 13.2085L11.9833 13.2035L11.9971 13.2012Z" fill="#FFDE23"/>
<path d="M11.9971 13.2012H11.9846V13.2074L11.9971 13.2012Z" fill="#FFDE23"/>
<path d="M12 4.19922L13.8541 7.79922L9 5.5743H15L10.1459 7.79922L12 4.19922Z" fill="#FFDE23"/>
<path d="M-0.592181 9.4639L3.09354 10.6312L-0.924522 10.9539L1.89112 9.2645L1.35338 11.6753L-0.592181 9.4639Z" fill="#FFDE23"/>
<path d="M23.8531 9.24313L21.9076 11.4546L21.3698 9.04372L24.1855 10.7331L20.1674 10.4105L23.8531 9.24313Z" fill="#FFDE23"/>
<path d="M3.40782 6.4639L7.09354 7.63124L3.07548 7.95388L5.89112 6.2645L5.35338 8.67533L3.40782 6.4639Z" fill="#FFDE23"/>
<path d="M20.8531 6.24313L18.9076 8.45456L18.3698 6.04372L21.1855 7.73311L17.1674 7.41046L20.8531 6.24313Z" fill="#FFDE23"/>
</g>
<defs>
<clipPath id="clip0_358_5521">
<rect width="24" height="24" rx="12" fill="white"/>
</clipPath>
</defs>
</svg>
