<svg width="33" height="32" viewBox="0 0 33 32" fill="none" xmlns="http://www.w3.org/2000/svg">
<path d="M26.1933 7.10659C24.42 6.27992 22.5 5.67992 20.5 5.33325C20.4648 5.33375 20.4313 5.34813 20.4067 5.37325C20.1667 5.81325 19.8867 6.38659 19.7 6.82659C17.5786 6.50679 15.4213 6.50679 13.3 6.82659C13.1133 6.37325 12.8333 5.81325 12.58 5.37325C12.5667 5.34659 12.5267 5.33325 12.4867 5.33325C10.4867 5.67992 8.57999 6.27992 6.79333 7.10659C6.77999 7.10659 6.76666 7.11992 6.75333 7.13325C3.12666 12.5599 2.12666 17.8399 2.61999 23.0666C2.61999 23.0933 2.63333 23.1199 2.65999 23.1333C5.05999 24.8933 7.36666 25.9599 9.64666 26.6666C9.68666 26.6799 9.72666 26.6666 9.73999 26.6399C10.2733 25.9066 10.7533 25.1333 11.1667 24.3199C11.1933 24.2666 11.1667 24.2133 11.1133 24.1999C10.3533 23.9066 9.63333 23.5599 8.92666 23.1599C8.87333 23.1333 8.87333 23.0533 8.91333 23.0133C9.05999 22.9066 9.20666 22.7866 9.35333 22.6799C9.37999 22.6533 9.41999 22.6533 9.44666 22.6666C14.0333 24.7599 18.98 24.7599 23.5133 22.6666C23.54 22.6533 23.58 22.6533 23.6067 22.6799C23.7533 22.7999 23.9 22.9066 24.0467 23.0266C24.1 23.0666 24.1 23.1466 24.0333 23.1733C23.34 23.5866 22.6067 23.9199 21.8467 24.2133C21.7933 24.2266 21.78 24.2933 21.7933 24.3333C22.22 25.1466 22.7 25.9199 23.22 26.6533C23.26 26.6666 23.3 26.6799 23.34 26.6666C25.6333 25.9599 27.94 24.8933 30.34 23.1333C30.3667 23.1199 30.38 23.0933 30.38 23.0666C30.9667 17.0266 29.4067 11.7866 26.2467 7.13325C26.2333 7.11992 26.22 7.10659 26.1933 7.10659ZM11.86 19.8799C10.4867 19.8799 9.33999 18.6133 9.33999 17.0533C9.33999 15.4933 10.46 14.2266 11.86 14.2266C13.2733 14.2266 14.3933 15.5066 14.38 17.0533C14.38 18.6133 13.26 19.8799 11.86 19.8799ZM21.1533 19.8799C19.78 19.8799 18.6333 18.6133 18.6333 17.0533C18.6333 15.4933 19.7533 14.2266 21.1533 14.2266C22.5667 14.2266 23.6867 15.5066 23.6733 17.0533C23.6733 18.6133 22.5667 19.8799 21.1533 19.8799Z" fill="white"/>
</svg>
