<svg width="117" height="40" viewBox="0 0 117 40" fill="none" xmlns="http://www.w3.org/2000/svg">
<path d="M44.0452 19.8799C44.2364 18.7751 44.6454 17.7925 45.2722 16.932C45.8989 16.0609 46.6851 15.3863 47.6305 14.9083C48.576 14.4196 49.6117 14.1753 50.7378 14.1753C52.1507 14.1753 53.2555 14.5152 54.0522 15.1951C54.8596 15.875 55.2739 16.8045 55.2951 17.9837H51.9329C51.8161 17.6862 51.6142 17.4578 51.3274 17.2985C51.0406 17.1391 50.6794 17.0595 50.2438 17.0595C49.4683 17.0595 48.8044 17.3144 48.252 17.8243C47.7102 18.3342 47.3649 19.0194 47.2162 19.8799C47.1631 20.1986 47.1365 20.4642 47.1365 20.6766C47.1365 21.3884 47.3384 21.9302 47.7421 22.302C48.1457 22.6632 48.7406 22.8438 49.5268 22.8438C50.6209 22.8438 51.492 22.3498 52.1401 21.3618H49.0009L49.3993 19.115H55.2314L54.6896 22.1426C54.1372 23.0881 53.3458 23.9008 52.3153 24.5807C51.2849 25.2605 50.0951 25.6005 48.746 25.6005C47.7474 25.6005 46.8869 25.4146 46.1645 25.0428C45.4421 24.6603 44.8897 24.1292 44.5073 23.4493C44.1249 22.7694 43.9337 21.9833 43.9337 21.091C43.9337 20.666 43.9708 20.2623 44.0452 19.8799Z" fill="#F0F0F0"/>
<path d="M60.6785 25.6324C59.733 25.6324 58.8991 25.4358 58.1767 25.0428C57.4543 24.6497 56.8966 24.0973 56.5036 23.3856C56.1105 22.6738 55.914 21.8558 55.914 20.9316C55.914 19.6037 56.1902 18.4245 56.7426 17.3941C57.3056 16.353 58.0864 15.5457 59.085 14.972C60.0942 14.3984 61.2468 14.1115 62.5428 14.1115C63.5096 14.1115 64.3541 14.3081 65.0765 14.7011C65.8095 15.0835 66.3725 15.6306 66.7656 16.3424C67.1586 17.0435 67.3551 17.8562 67.3551 18.7804C67.3551 20.0977 67.0736 21.2769 66.5106 22.3179C65.9476 23.359 65.1615 24.1717 64.1523 24.7559C63.1431 25.3402 61.9851 25.6324 60.6785 25.6324ZM61.1565 22.7322C61.7833 22.7322 62.3304 22.5676 62.7978 22.2383C63.2758 21.9089 63.637 21.4734 63.8814 20.9316C64.1363 20.3792 64.2638 19.7843 64.2638 19.1469C64.2638 18.467 64.0779 17.9412 63.7061 17.5694C63.3449 17.1869 62.8244 16.9957 62.1445 16.9957C61.5177 16.9957 60.9653 17.1604 60.4873 17.4897C60.0092 17.8084 59.6427 18.2386 59.3878 18.7804C59.1328 19.3222 59.0053 19.9171 59.0053 20.5651C59.0053 21.2344 59.1912 21.7655 59.563 22.1586C59.9349 22.541 60.466 22.7322 61.1565 22.7322Z" fill="#F0F0F0"/>
<path d="M70.845 23.1465H74.3347L73.9044 25.5208H67.2756L69.2674 14.2868H72.3906L70.845 23.1465Z" fill="#F0F0F0"/>
<path d="M81.5741 14.2868C82.6045 14.2868 83.4968 14.4727 84.2511 14.8445C85.0053 15.2057 85.579 15.7209 85.972 16.3902C86.3651 17.0595 86.5616 17.8403 86.5616 18.7326C86.5616 19.1363 86.5244 19.524 86.4501 19.8958C86.2589 20.9794 85.8446 21.9461 85.2072 22.796C84.5804 23.6458 83.7784 24.3151 82.801 24.8038C81.8343 25.2818 80.7614 25.5208 79.5822 25.5208H75.1364L77.1283 14.2868H81.5741ZM79.8372 22.78C80.7508 22.78 81.5103 22.5304 82.1158 22.0311C82.7214 21.5212 83.1091 20.8094 83.2791 19.8958C83.3216 19.6834 83.3428 19.455 83.3428 19.2106C83.3428 18.4989 83.125 17.9518 82.6895 17.5694C82.2539 17.1869 81.6431 16.9957 80.857 16.9957H79.7894L78.7536 22.78H79.8372Z" fill="#F0F0F0"/>
<path d="M96.7655 17.2029C96.6486 17.8615 96.3724 18.4139 95.9369 18.8601C95.5119 19.2956 95.002 19.5931 94.4071 19.7524C94.9489 19.8799 95.3685 20.1402 95.666 20.5332C95.9741 20.9263 96.1281 21.3937 96.1281 21.9355C96.1281 22.1055 96.1122 22.2807 96.0803 22.4613C95.9209 23.4174 95.4641 24.1664 94.7099 24.7081C93.9557 25.2499 92.9783 25.5208 91.7779 25.5208H86.2167L88.2085 14.2868H93.5945C94.6143 14.2868 95.4057 14.494 95.9687 14.9083C96.5318 15.3119 96.8133 15.8909 96.8133 16.6452C96.8133 16.8257 96.7974 17.0117 96.7655 17.2029ZM93.467 17.7765C93.4776 17.7234 93.4829 17.6437 93.4829 17.5375C93.4829 17.0276 93.1483 16.7726 92.479 16.7726H90.9015L90.5509 18.7645H92.1285C92.904 18.7645 93.3501 18.4352 93.467 17.7765ZM92.973 22.0152C92.9836 21.9621 92.9889 21.8877 92.9889 21.7921C92.9889 21.5265 92.8986 21.3247 92.7181 21.1866C92.5481 21.0378 92.2931 20.9635 91.9532 20.9635H90.1526L89.802 23.0191H91.6186C92.394 23.0191 92.8455 22.6844 92.973 22.0152Z" fill="#F0F0F0"/>
<path d="M101.034 16.7567L100.716 18.6211H104.301L103.871 20.9953H100.285L99.9189 23.035H103.982L103.552 25.5208H96.3496L98.3414 14.2868H105.528L105.098 16.7567H101.034Z" fill="#F0F0F0"/>
<path d="M115.612 14.2868L115.166 16.7726H112.186L110.641 25.5208H107.502L109.047 16.7726H106.083L106.53 14.2868H115.612Z" fill="#F0F0F0"/>
<path fill-rule="evenodd" clip-rule="evenodd" d="M2.02386 19.3527L4.07748 17.299L4.99914 18.2207L3.86719 19.3527L4.99914 20.4846L4.07748 21.4063L2.02386 19.3527ZM6.36139 16.417L6.8224 14.5541L5.66045 15.7161L6.36139 16.417ZM10.9158 10.4607H12.7591L21.3433 1.87653L29.9275 10.4607L31.7708 10.4607L21.3433 0.0332031L10.9158 10.4607ZM29.9078 28.2643L21.3433 36.8288L13.003 28.4885H11.1597L21.3433 38.6721L31.7511 28.2643L29.9078 28.2643ZM35.8419 24.1736L36.311 22.274L37.0262 22.9892L35.8419 24.1736ZM38.8195 19.3527L37.6924 18.2256L38.6141 17.304L40.6628 19.3527L38.6141 21.4014L37.6924 20.4797L38.8195 19.3527Z" fill="#FFB600"/>
<path fill-rule="evenodd" clip-rule="evenodd" d="M7.07738 13.5238L4.03005 10.4607H22.684L23.1342 10.8305L23.2256 10.4606L36.3715 10.4607L38.6678 12.7457L37.3975 17.889L36.7687 18.212L37.2312 18.5481L34.8316 28.2643L22.4113 28.2643L19.8183 26.6566L16.5625 28.2643H6.85306L3.979 26.0441L7.07738 13.5238Z" fill="black"/>
<path fill-rule="evenodd" clip-rule="evenodd" d="M22.7826 26.9609L20.7971 25.7298L22.9861 16.8667H32.1594L32.3109 16.1472L34.5846 14.8153H10.2976L11.8823 16.1472L10.0261 23.6627L12.5086 22.498H15.4081L16.1055 19.7803H13.2057L13.6597 18.0207L16.0059 16.8667H20.9403L18.7513 25.7298L16.2583 26.9609H7.2979L5.44812 25.5319L8.50635 13.1493L7.14257 11.7641H22.2174L23.9042 13.1493L24.2463 11.764L35.8336 11.7641L37.2256 13.1493L36.2744 17.0005L34.2883 18.0207L35.7556 19.087L33.8109 26.9608L22.7826 26.9609ZM27.9223 22.498L25.5209 23.6627L26.4665 19.7803H31.5191L30.8217 22.498H27.9223Z" fill="#F0F0F0"/>
</svg>
