<svg width="253" height="40" viewBox="0 0 253 40" fill="none" xmlns="http://www.w3.org/2000/svg">
<g clip-path="url(#clip0_2798_4391)">
<path d="M44.0452 19.9988C44.2364 18.894 44.6454 17.9114 45.2722 17.0509C45.8989 16.1798 46.6851 15.5052 47.6305 15.0272C48.576 14.5385 49.6117 14.2942 50.7378 14.2942C52.1507 14.2942 53.2555 14.6341 54.0522 15.314C54.8596 15.9939 55.2739 16.9234 55.2951 18.1026H51.9329C51.8161 17.8051 51.6142 17.5767 51.3274 17.4174C51.0406 17.258 50.6794 17.1784 50.2438 17.1784C49.4683 17.1784 48.8044 17.4333 48.252 17.9432C47.7102 18.4531 47.3649 19.1383 47.2162 19.9988C47.1631 20.3175 47.1365 20.5831 47.1365 20.7955C47.1365 21.5073 47.3384 22.0491 47.7421 22.4209C48.1457 22.7821 48.7406 22.9627 49.5268 22.9627C50.6209 22.9627 51.492 22.4687 52.1401 21.4807H49.0009L49.3993 19.2339H55.2314L54.6896 22.2615C54.1372 23.207 53.3458 24.0197 52.3153 24.6996C51.2849 25.3794 50.0951 25.7194 48.746 25.7194C47.7474 25.7194 46.8869 25.5335 46.1645 25.1617C45.4421 24.7792 44.8897 24.2481 44.5073 23.5682C44.1249 22.8883 43.9337 22.1022 43.9337 21.2098C43.9337 20.7849 43.9708 20.3812 44.0452 19.9988Z" fill="#F0F0F0"/>
<path d="M60.6785 25.7513C59.733 25.7513 58.8991 25.5547 58.1767 25.1617C57.4543 24.7686 56.8966 24.2162 56.5036 23.5045C56.1105 22.7927 55.914 21.9747 55.914 21.0505C55.914 19.7226 56.1902 18.5434 56.7426 17.513C57.3056 16.4719 58.0864 15.6646 59.085 15.0909C60.0942 14.5172 61.2468 14.2304 62.5428 14.2304C63.5096 14.2304 64.3541 14.427 65.0765 14.82C65.8095 15.2024 66.3725 15.7495 66.7656 16.4613C67.1586 17.1624 67.3551 17.9751 67.3551 18.8993C67.3551 20.2166 67.0736 21.3958 66.5106 22.4368C65.9476 23.4779 65.1615 24.2906 64.1523 24.8748C63.1431 25.4591 61.9851 25.7513 60.6785 25.7513ZM61.1565 22.8511C61.7833 22.8511 62.3304 22.6865 62.7978 22.3572C63.2758 22.0278 63.637 21.5923 63.8814 21.0505C64.1363 20.4981 64.2638 19.9032 64.2638 19.2658C64.2638 18.5859 64.0779 18.0601 63.7061 17.6883C63.3449 17.3058 62.8244 17.1146 62.1445 17.1146C61.5177 17.1146 60.9653 17.2793 60.4873 17.6086C60.0092 17.9273 59.6427 18.3575 59.3878 18.8993C59.1328 19.4411 59.0053 20.036 59.0053 20.684C59.0053 21.3533 59.1912 21.8844 59.563 22.2775C59.9349 22.6599 60.466 22.8511 61.1565 22.8511Z" fill="#F0F0F0"/>
<path d="M70.845 23.2654H74.3347L73.9044 25.6397H67.2756L69.2674 14.4057H72.3906L70.845 23.2654Z" fill="#F0F0F0"/>
<path d="M81.5741 14.4057C82.6045 14.4057 83.4968 14.5916 84.2511 14.9634C85.0053 15.3246 85.579 15.8398 85.972 16.5091C86.3651 17.1784 86.5616 17.9592 86.5616 18.8515C86.5616 19.2552 86.5244 19.6429 86.4501 20.0147C86.2589 21.0983 85.8446 22.065 85.2072 22.9149C84.5804 23.7647 83.7784 24.434 82.801 24.9226C81.8343 25.4007 80.7614 25.6397 79.5822 25.6397H75.1364L77.1283 14.4057H81.5741ZM79.8372 22.8989C80.7508 22.8989 81.5103 22.6493 82.1158 22.15C82.7214 21.6401 83.1091 20.9283 83.2791 20.0147C83.3216 19.8023 83.3428 19.5739 83.3428 19.3295C83.3428 18.6178 83.125 18.0707 82.6895 17.6883C82.2539 17.3058 81.6431 17.1146 80.857 17.1146H79.7894L78.7536 22.8989H79.8372Z" fill="#F0F0F0"/>
<path d="M96.7655 17.3218C96.6486 17.9804 96.3724 18.5328 95.9369 18.979C95.5119 19.4145 95.002 19.712 94.4071 19.8713C94.9489 19.9988 95.3685 20.2591 95.666 20.6521C95.9741 21.0452 96.1281 21.5126 96.1281 22.0544C96.1281 22.2244 96.1122 22.3996 96.0803 22.5802C95.9209 23.5363 95.4641 24.2853 94.7099 24.827C93.9557 25.3688 92.9783 25.6397 91.7779 25.6397H86.2167L88.2085 14.4057H93.5945C94.6143 14.4057 95.4057 14.6129 95.9687 15.0272C96.5318 15.4308 96.8133 16.0098 96.8133 16.764C96.8133 16.9446 96.7974 17.1305 96.7655 17.3218ZM93.467 17.8954C93.4776 17.8423 93.4829 17.7626 93.4829 17.6564C93.4829 17.1465 93.1483 16.8915 92.479 16.8915H90.9015L90.5509 18.8834H92.1285C92.904 18.8834 93.3501 18.5541 93.467 17.8954ZM92.973 22.1341C92.9836 22.0809 92.9889 22.0066 92.9889 21.911C92.9889 21.6454 92.8986 21.4436 92.7181 21.3055C92.5481 21.1567 92.2931 21.0824 91.9532 21.0824H90.1526L89.802 23.138H91.6186C92.394 23.138 92.8455 22.8033 92.973 22.1341Z" fill="#F0F0F0"/>
<path d="M101.034 16.8756L100.716 18.74H104.301L103.871 21.1142H100.285L99.9189 23.1539H103.982L103.552 25.6397H96.3496L98.3414 14.4057H105.528L105.098 16.8756H101.034Z" fill="#F0F0F0"/>
<path d="M115.612 14.4057L115.166 16.8915H112.186L110.641 25.6397H107.502L109.047 16.8915H106.083L106.53 14.4057H115.612Z" fill="#F0F0F0"/>
<path fill-rule="evenodd" clip-rule="evenodd" d="M2.02386 19.4716L4.07748 17.4179L4.99914 18.3396L3.86719 19.4716L4.99914 20.6035L4.07748 21.5252L2.02386 19.4716ZM6.36139 16.5359L6.8224 14.673L5.66045 15.835L6.36139 16.5359ZM10.9158 10.5796H12.7591L21.3433 1.99542L29.9275 10.5796L31.7708 10.5796L21.3433 0.1521L10.9158 10.5796ZM29.9078 28.3832L21.3433 36.9477L13.003 28.6074H11.1597L21.3433 38.791L31.7511 28.3832L29.9078 28.3832ZM35.8419 24.2925L36.311 22.3929L37.0262 23.1081L35.8419 24.2925ZM38.8195 19.4716L37.6924 18.3445L38.6141 17.4228L40.6628 19.4716L38.6141 21.5203L37.6924 20.5986L38.8195 19.4716Z" fill="#FFB600"/>
<path fill-rule="evenodd" clip-rule="evenodd" d="M22.7826 27.0798L20.797 25.8487L22.986 16.9855H32.1593L32.3109 16.266L34.5845 14.9342H10.2975L11.8822 16.266L10.0261 23.7816L12.5086 22.6169H15.408L16.1054 19.8992H13.2056L13.6596 18.1396L16.0058 16.9855H20.9402L18.7512 25.8487L16.2582 27.0798H7.29784L5.44806 25.6508L8.50629 13.2681L7.14251 11.883H22.2174L23.9041 13.2681L24.2462 11.8829L35.8335 11.883L37.2255 13.2681L36.2743 17.1194L34.2883 18.1396L35.7555 19.2058L33.8108 27.0797L22.7826 27.0798ZM27.9222 22.6169L25.5208 23.7816L26.4664 19.8992H31.5191L30.8217 22.6169H27.9222Z" fill="#F0F0F0"/>
</g>
<path d="M139.514 15.2029L134.72 20.5582L137.808 26H135.26L133.165 22.3074L129.839 26H127.011L132.064 20.3639L129.127 15.2029H131.675L133.618 18.6148L136.685 15.2029H139.514Z" fill="#FFB600"/>
<path d="M139.514 15.2029L134.72 20.5582L137.808 26H135.26L133.165 22.3074L129.839 26H127.011L132.064 20.3639L129.127 15.2029H131.675L133.618 18.6148L136.685 15.2029H139.514Z" fill="url(#paint0_linear_2798_4391)"/>
<g clip-path="url(#clip1_2798_4391)">
<path d="M192.961 7.77161H195.87V20.3724H192.961V7.77161ZM210.37 7.77161V20.3724H207.984L201.718 12.7192V20.3724H198.847V7.77161H201.249L207.491 15.4248V7.77161H210.362H210.37ZM213.347 7.77161H219.059C223.173 7.77161 225.984 10.2568 225.984 14.072C225.984 17.8872 223.165 20.3724 219.059 20.3724H213.347V7.77161ZM218.908 17.9784C221.4 17.9784 223.037 16.4812 223.037 14.072C223.037 11.6628 221.415 10.1656 218.908 10.1656H216.256V17.986H218.908V17.9784ZM228.165 7.77161H231.074V20.3724H228.165V7.77161ZM242.34 17.6744H236.506L235.393 20.3724H232.408L238.006 7.77161H240.878L246.491 20.3724H243.438L242.332 17.6744H242.34ZM241.423 15.4552L239.431 10.6292L237.438 15.4552H241.423ZM191.923 28.1928C191.923 25.7152 193.809 23.9444 196.37 23.9444C197.658 23.8912 198.893 24.4232 199.741 25.4036L198.521 26.5284C197.605 25.396 195.953 25.2212 194.824 26.1332C193.696 27.0528 193.521 28.7096 194.431 29.842C194.923 30.4576 195.673 30.8148 196.461 30.8224C197.264 30.83 198.021 30.4728 198.521 29.8496L199.741 30.9744C198.9 31.9548 197.65 32.502 196.362 32.4412C193.824 32.4412 191.923 30.6628 191.923 28.1928ZM206.249 30.5412H202.446L201.718 32.3044H199.771L203.423 24.0812H205.294L208.953 32.3044H206.968L206.241 30.5412H206.249ZM205.65 29.0972L204.355 25.9508L203.059 29.0972H205.658H205.65ZM209.173 31.4912L209.817 30.0548C210.612 30.6096 211.552 30.906 212.521 30.9136C213.643 30.9136 214.105 30.5336 214.105 30.032C214.105 28.4968 209.34 29.5608 209.34 26.498C209.34 25.0996 210.461 23.9368 212.794 23.9368C213.787 23.9216 214.764 24.1724 215.628 24.6664L215.044 26.1104C214.355 25.7 213.574 25.4796 212.771 25.4644C211.65 25.4644 211.218 25.89 211.218 26.4144C211.218 27.9268 215.984 26.8856 215.984 29.9028C215.984 31.2784 214.847 32.4488 212.506 32.4488C211.218 32.4488 209.908 32.0536 209.181 31.4912H209.173ZM217.287 24.0812H219.173V32.3044H217.287V24.0812ZM228.635 24.0812V32.3044H227.082L222.999 27.3112V32.3044H221.128V24.0812H222.696L226.771 29.0744V24.0812H228.643H228.635ZM230.052 28.1928C230.052 25.7532 231.938 23.9444 234.537 23.9444C237.135 23.9444 239.021 25.738 239.021 28.1928C239.021 30.6476 237.112 32.4412 234.537 32.4412C231.961 32.4412 230.059 30.6324 230.059 28.1928H230.052ZM237.097 28.1928C237.067 26.7716 235.893 25.6468 234.476 25.6772C233.059 25.7076 231.938 26.8856 231.968 28.3068C231.999 29.7052 233.143 30.8224 234.537 30.8224C235.915 30.8604 237.067 29.766 237.097 28.3828C237.112 28.322 237.105 28.2536 237.097 28.1928ZM239.802 31.4912L240.446 30.0548C241.241 30.6096 242.181 30.906 243.15 30.9136C244.271 30.9136 244.734 30.5336 244.734 30.032C244.734 28.4968 239.968 29.5608 239.968 26.498C239.968 25.0996 241.09 23.9368 243.423 23.9368C244.415 23.9216 245.393 24.1724 246.256 24.6664L245.673 26.1104C244.984 25.7 244.203 25.4796 243.4 25.4644C242.279 25.4644 241.847 25.89 241.847 26.4144C241.847 27.9268 246.612 26.8856 246.612 29.9028C246.612 31.2784 245.476 32.4488 243.135 32.4488C241.855 32.4488 240.552 32.0536 239.817 31.4912H239.809H239.802Z" fill="white"/>
<path d="M171.12 1.494C195.362 1.912 195.362 38.088 171.12 38.4984C146.878 38.0804 146.878 1.9044 171.12 1.494Z" fill="#C6B467"/>
<path d="M171.181 2.9836C193.605 3.3712 193.605 36.834 171.181 37.214C148.756 36.8264 148.756 3.3636 171.181 2.9836Z" fill="url(#paint1_linear_2798_4391)"/>
<path d="M184.597 13.5628C184.627 13.6768 185.105 14.5508 184.946 14.528C184.514 14.6344 184.082 14.7332 183.65 14.832C183.006 14.9764 182.362 15.1208 181.726 15.2804C181.544 15.2956 181.249 15.4932 181.135 15.25C178.105 10.5456 171.135 12.5444 170.355 17.8948C169.681 21.8012 172.923 25.738 176.953 25.3504C179.612 25.1376 181.885 23.0172 182.309 20.38C182.332 20.2508 182.347 20.1292 182.355 20C182.37 19.8632 182.385 19.8404 182.521 19.8024C183.226 19.6352 183.938 19.468 184.65 19.3008C185.074 19.202 185.506 19.126 185.923 19.012C186.143 18.8904 186.014 20.152 186.059 20.2964C185.984 23.534 184.915 26.802 182.915 29.3632C178.499 35.2532 170.256 36.91 163.885 33.2848C152.499 26.6196 153.135 9.03319 166.862 5.27879C175.544 2.90759 182.181 8.41759 184.597 13.5628ZM165.097 7.94639C159.173 10.538 156.446 17.8644 158.34 24.0356C160.211 30.5108 166.809 34.5008 173.491 33.5204C178.771 32.7452 184.059 27.0148 184.521 21.482C184.484 21.4972 184.453 21.5276 184.453 21.5656C184.415 21.7404 184.362 21.9076 184.309 22.0824C184.097 22.7436 183.809 23.3744 183.446 23.9596C181.127 27.8736 175.62 29.0896 171.885 26.4904C168.681 24.37 167.158 20.2508 168.173 16.5496C169.279 12.0048 174.006 9.11679 178.521 10.4164C180.355 10.9256 181.968 12.1568 182.999 13.7452C183.006 13.7604 183.014 13.7756 183.037 13.768C183.059 13.768 183.059 13.7376 183.052 13.7148C180.082 8.71399 173.446 4.29839 165.09 7.94639H165.097ZM162.423 14.148C161.484 14.3608 160.537 14.5736 159.597 14.8016C159.552 14.8016 159.484 14.8472 159.453 14.8016C159.968 13.4868 160.832 12.248 161.787 11.1916C161.87 11.1004 161.976 11.0396 162.097 11.0168C162.567 10.9104 163.037 10.7888 163.514 10.69C164.37 10.5 165.226 10.2948 166.082 10.0972C166.915 9.89959 167.749 9.70959 168.582 9.51199C168.681 9.49679 168.794 9.45119 168.809 9.58799C169.014 10.4848 169.211 11.3816 169.415 12.2784C169.431 12.362 169.499 12.476 169.385 12.514C169.09 12.6052 168.787 12.6584 168.484 12.7344C167.847 12.8788 167.203 13.0384 166.567 13.1828C165.438 13.5172 165.521 13.1676 165.703 13.996C166.377 16.9904 167.052 19.9772 167.726 22.9716C168.135 24.788 168.544 26.612 168.946 28.4284C168.968 28.5272 168.984 28.5348 169.082 28.512C169.802 28.3448 170.514 28.1776 171.226 28.0104C171.741 27.8888 172.249 27.7748 172.764 27.6532C172.9 27.6076 172.885 27.79 172.915 27.8736C172.999 28.2384 173.082 28.6032 173.165 28.968C173.287 29.5076 173.4 30.0472 173.529 30.5792C173.582 30.754 173.324 30.7236 173.218 30.7692C171.711 31.1112 170.211 31.4684 168.703 31.8256C168.052 31.9852 167.4 32.1144 166.756 32.274C166.658 32.2968 166.559 32.2892 166.468 32.2436C165.915 32.0156 165.37 31.7648 164.847 31.4684C164.696 31.3924 162.544 30.0168 162.885 29.9408C163.87 29.7128 164.862 29.5076 165.847 29.2568C165.915 29.2492 165.953 29.1808 165.931 29.12C165.84 28.6488 165.726 28.1852 165.627 27.714C164.893 24.4916 164.181 21.2616 163.446 18.0392C163.173 16.8004 162.885 15.5616 162.62 14.3228C162.59 14.224 162.582 14.11 162.438 14.1404L162.423 14.148Z" fill="#FBFCFC"/>
<path d="M161.612 15.5236C161.756 15.5388 161.726 15.7592 161.771 15.8656C161.961 16.7472 162.165 17.6212 162.362 18.4952C162.832 20.608 163.309 22.7132 163.779 24.826C164.037 25.966 164.302 27.106 164.552 28.2536C164.567 28.3372 164.552 28.36 164.476 28.3828C163.968 28.512 163.453 28.626 162.938 28.74C162.461 28.8692 162.453 28.8768 162.143 28.4892C161.62 27.8964 161.135 27.2732 160.734 26.5892C159.377 24.332 158.741 21.672 158.999 19.0424C159.074 18.0544 159.264 17.074 159.567 16.124C159.643 15.8352 160.241 15.8808 160.484 15.782C160.855 15.6984 161.234 15.6072 161.605 15.5236H161.612ZM165.794 8.9344C169.052 7.2396 173.135 7.2016 176.423 8.8432C176.453 8.8584 176.514 8.8584 176.499 8.9116C176.491 8.9496 176.438 8.9344 176.408 8.9268C175.317 8.9268 174.226 9.1396 173.188 9.4512C172.188 9.778 171.279 10.3176 170.446 10.956C170.332 11.0396 170.317 11.032 170.287 10.8952C170.143 10.3024 170.037 9.702 169.877 9.1092C169.461 7.9008 168.264 8.4252 167.355 8.6152C166.832 8.7216 166.324 8.866 165.802 8.9572C165.802 8.9496 165.802 8.942 165.802 8.9344H165.794ZM170.946 32.4868C171.991 32.2132 173.052 32.046 174.082 31.7344C175.143 31.1264 174.461 29.8344 174.332 28.9148C174.309 28.7248 174.741 28.93 174.847 28.9148C176.726 29.2872 178.688 28.892 180.431 28.1928C178.256 30.8908 174.423 32.7908 170.946 32.4868ZM167.794 14.0796C167.832 14.0796 167.832 14.11 167.817 14.1404C167.635 14.5356 167.468 14.9308 167.317 15.3412C167.287 15.3868 167.309 15.478 167.241 15.4856C167.218 15.4856 167.211 15.4552 167.211 15.44C167.135 15.0904 167.052 14.7484 166.976 14.3988C166.953 14.2924 166.953 14.2848 167.059 14.2544C167.302 14.186 167.544 14.1328 167.794 14.0796ZM169.673 26.2244C169.961 26.4068 170.196 26.7108 170.476 26.9084C170.521 26.9464 170.521 26.9768 170.461 26.992C170.317 27.0072 169.87 27.2276 169.824 27.0452C169.771 26.7792 169.658 26.4904 169.673 26.2244ZM176.37 13.9656C182.855 14.0796 182.855 23.7544 176.37 23.8684C169.885 23.7544 169.885 14.0796 176.37 13.9656Z" fill="#FA0146"/>
</g>
<defs>
<linearGradient id="paint0_linear_2798_4391" x1="127.745" y1="7" x2="143.284" y2="7.70239" gradientUnits="userSpaceOnUse">
<stop stop-color="#E3966D"/>
<stop offset="1" stop-color="#FF00C4"/>
</linearGradient>
<linearGradient id="paint1_linear_2798_4391" x1="171.181" y1="2.9836" x2="171.181" y2="37.214" gradientUnits="userSpaceOnUse">
<stop stop-color="#FA0146"/>
<stop offset="1" stop-color="#231F20"/>
</linearGradient>
<clipPath id="clip0_2798_4391">
<rect width="116.948" height="39.7622" fill="white" transform="translate(0 0.118896)"/>
</clipPath>
<clipPath id="clip1_2798_4391">
<rect width="100" height="38" fill="white" transform="translate(152.938 1)"/>
</clipPath>
</defs>
</svg>
