<svg width="291" height="40" viewBox="0 0 291 40" fill="none" xmlns="http://www.w3.org/2000/svg">
<g clip-path="url(#clip0_2798_4391)">
<path d="M44.0452 19.9988C44.2364 18.894 44.6454 17.9114 45.2722 17.0509C45.8989 16.1798 46.6851 15.5052 47.6305 15.0272C48.576 14.5385 49.6117 14.2942 50.7378 14.2942C52.1507 14.2942 53.2555 14.6341 54.0522 15.314C54.8596 15.9939 55.2739 16.9234 55.2951 18.1026H51.9329C51.8161 17.8051 51.6142 17.5767 51.3274 17.4174C51.0406 17.258 50.6794 17.1784 50.2438 17.1784C49.4683 17.1784 48.8044 17.4333 48.252 17.9432C47.7102 18.4531 47.3649 19.1383 47.2162 19.9988C47.1631 20.3175 47.1365 20.5831 47.1365 20.7955C47.1365 21.5073 47.3384 22.0491 47.7421 22.4209C48.1457 22.7821 48.7406 22.9627 49.5268 22.9627C50.6209 22.9627 51.492 22.4687 52.1401 21.4807H49.0009L49.3993 19.2339H55.2314L54.6896 22.2615C54.1372 23.207 53.3458 24.0197 52.3153 24.6996C51.2849 25.3794 50.0951 25.7194 48.746 25.7194C47.7474 25.7194 46.8869 25.5335 46.1645 25.1617C45.4421 24.7792 44.8897 24.2481 44.5073 23.5682C44.1249 22.8883 43.9337 22.1022 43.9337 21.2098C43.9337 20.7849 43.9708 20.3812 44.0452 19.9988Z" fill="#F0F0F0"/>
<path d="M60.6785 25.7513C59.733 25.7513 58.8991 25.5547 58.1767 25.1617C57.4543 24.7686 56.8966 24.2162 56.5036 23.5045C56.1105 22.7927 55.914 21.9747 55.914 21.0505C55.914 19.7226 56.1902 18.5434 56.7426 17.513C57.3056 16.4719 58.0864 15.6646 59.085 15.0909C60.0942 14.5172 61.2468 14.2304 62.5428 14.2304C63.5096 14.2304 64.3541 14.427 65.0765 14.82C65.8095 15.2024 66.3725 15.7495 66.7656 16.4613C67.1586 17.1624 67.3551 17.9751 67.3551 18.8993C67.3551 20.2166 67.0736 21.3958 66.5106 22.4368C65.9476 23.4779 65.1615 24.2906 64.1523 24.8748C63.1431 25.4591 61.9851 25.7513 60.6785 25.7513ZM61.1565 22.8511C61.7833 22.8511 62.3304 22.6865 62.7978 22.3572C63.2758 22.0278 63.637 21.5923 63.8814 21.0505C64.1363 20.4981 64.2638 19.9032 64.2638 19.2658C64.2638 18.5859 64.0779 18.0601 63.7061 17.6883C63.3449 17.3058 62.8244 17.1146 62.1445 17.1146C61.5177 17.1146 60.9653 17.2793 60.4873 17.6086C60.0092 17.9273 59.6427 18.3575 59.3878 18.8993C59.1328 19.4411 59.0053 20.036 59.0053 20.684C59.0053 21.3533 59.1912 21.8844 59.563 22.2775C59.9349 22.6599 60.466 22.8511 61.1565 22.8511Z" fill="#F0F0F0"/>
<path d="M70.845 23.2654H74.3347L73.9044 25.6397H67.2756L69.2674 14.4057H72.3906L70.845 23.2654Z" fill="#F0F0F0"/>
<path d="M81.5741 14.4057C82.6045 14.4057 83.4968 14.5916 84.2511 14.9634C85.0053 15.3246 85.579 15.8398 85.972 16.5091C86.3651 17.1784 86.5616 17.9592 86.5616 18.8515C86.5616 19.2552 86.5244 19.6429 86.4501 20.0147C86.2589 21.0983 85.8446 22.065 85.2072 22.9149C84.5804 23.7647 83.7784 24.434 82.801 24.9226C81.8343 25.4007 80.7614 25.6397 79.5822 25.6397H75.1364L77.1283 14.4057H81.5741ZM79.8372 22.8989C80.7508 22.8989 81.5103 22.6493 82.1158 22.15C82.7214 21.6401 83.1091 20.9283 83.2791 20.0147C83.3216 19.8023 83.3428 19.5739 83.3428 19.3295C83.3428 18.6178 83.125 18.0707 82.6895 17.6883C82.2539 17.3058 81.6431 17.1146 80.857 17.1146H79.7894L78.7536 22.8989H79.8372Z" fill="#F0F0F0"/>
<path d="M96.7655 17.3218C96.6486 17.9804 96.3724 18.5328 95.9369 18.979C95.5119 19.4145 95.002 19.712 94.4071 19.8713C94.9489 19.9988 95.3685 20.2591 95.666 20.6521C95.9741 21.0452 96.1281 21.5126 96.1281 22.0544C96.1281 22.2244 96.1122 22.3996 96.0803 22.5802C95.9209 23.5363 95.4641 24.2853 94.7099 24.827C93.9557 25.3688 92.9783 25.6397 91.7779 25.6397H86.2167L88.2085 14.4057H93.5945C94.6143 14.4057 95.4057 14.6129 95.9687 15.0272C96.5318 15.4308 96.8133 16.0098 96.8133 16.764C96.8133 16.9446 96.7974 17.1305 96.7655 17.3218ZM93.467 17.8954C93.4776 17.8423 93.4829 17.7626 93.4829 17.6564C93.4829 17.1465 93.1483 16.8915 92.479 16.8915H90.9015L90.5509 18.8834H92.1285C92.904 18.8834 93.3501 18.5541 93.467 17.8954ZM92.973 22.1341C92.9836 22.0809 92.9889 22.0066 92.9889 21.911C92.9889 21.6454 92.8986 21.4436 92.7181 21.3055C92.5481 21.1567 92.2931 21.0824 91.9532 21.0824H90.1526L89.802 23.138H91.6186C92.394 23.138 92.8455 22.8033 92.973 22.1341Z" fill="#F0F0F0"/>
<path d="M101.034 16.8756L100.716 18.74H104.301L103.871 21.1142H100.285L99.9189 23.1539H103.982L103.552 25.6397H96.3496L98.3414 14.4057H105.528L105.098 16.8756H101.034Z" fill="#F0F0F0"/>
<path d="M115.612 14.4057L115.166 16.8915H112.186L110.641 25.6397H107.502L109.047 16.8915H106.083L106.53 14.4057H115.612Z" fill="#F0F0F0"/>
<path fill-rule="evenodd" clip-rule="evenodd" d="M2.02386 19.4716L4.07748 17.4179L4.99914 18.3396L3.86719 19.4716L4.99914 20.6035L4.07748 21.5252L2.02386 19.4716ZM6.36139 16.5359L6.8224 14.673L5.66045 15.835L6.36139 16.5359ZM10.9158 10.5796H12.7591L21.3433 1.99542L29.9275 10.5796L31.7708 10.5796L21.3433 0.1521L10.9158 10.5796ZM29.9078 28.3832L21.3433 36.9477L13.003 28.6074H11.1597L21.3433 38.791L31.7511 28.3832L29.9078 28.3832ZM35.8419 24.2925L36.311 22.3929L37.0262 23.1081L35.8419 24.2925ZM38.8195 19.4716L37.6924 18.3445L38.6141 17.4228L40.6628 19.4716L38.6141 21.5203L37.6924 20.5986L38.8195 19.4716Z" fill="#FFB600"/>
<path fill-rule="evenodd" clip-rule="evenodd" d="M22.7826 27.0798L20.797 25.8487L22.986 16.9855H32.1593L32.3109 16.266L34.5845 14.9342H10.2975L11.8822 16.266L10.0261 23.7816L12.5086 22.6169H15.408L16.1054 19.8992H13.2056L13.6596 18.1396L16.0058 16.9855H20.9402L18.7512 25.8487L16.2582 27.0798H7.29784L5.44806 25.6508L8.50629 13.2681L7.14251 11.883H22.2174L23.9041 13.2681L24.2462 11.8829L35.8335 11.883L37.2255 13.2681L36.2743 17.1194L34.2883 18.1396L35.7555 19.2058L33.8108 27.0797L22.7826 27.0798ZM27.9222 22.6169L25.5208 23.7816L26.4664 19.8992H31.5191L30.8217 22.6169H27.9222Z" fill="#F0F0F0"/>
</g>
<path d="M139.514 15.2029L134.72 20.5582L137.808 26H135.26L133.165 22.3074L129.839 26H127.011L132.064 20.3639L129.127 15.2029H131.675L133.618 18.6148L136.685 15.2029H139.514Z" fill="#FFB600"/>
<path d="M139.514 15.2029L134.72 20.5582L137.808 26H135.26L133.165 22.3074L129.839 26H127.011L132.064 20.3639L129.127 15.2029H131.675L133.618 18.6148L136.685 15.2029H139.514Z" fill="url(#paint0_linear_2798_4391)"/>
<g clip-path="url(#clip1_2798_4391)">
<path d="M154.757 33.5616C154.757 30.8156 156.901 28.8864 159.824 28.8864C161.605 28.8864 163.007 29.524 163.904 30.6745L161.969 32.3731C161.436 31.7083 160.799 31.3257 159.982 31.3257C158.709 31.3257 157.851 32.194 157.851 33.5616C157.851 34.9292 158.709 35.7974 159.982 35.7974C160.801 35.7974 161.436 35.4149 161.969 34.7501L163.904 36.4487C163.007 37.5991 161.605 38.2368 159.824 38.2368C156.901 38.2341 154.757 36.3076 154.757 33.5616Z" fill="white"/>
<path d="M181.504 36.4731H178.049L177.439 38.0306H174.32L178.294 29.0899H181.308L185.283 38.0306H182.114L181.504 36.4731ZM180.66 34.3024L179.776 32.0557L178.893 34.3024H180.66Z" fill="white"/>
<path d="M195.856 37.317L196.844 35.1191C197.703 35.6184 198.845 35.9358 199.844 35.9358C200.714 35.9358 201.026 35.7567 201.026 35.4501C201.026 34.3268 196 35.2331 196 31.901C196 30.2404 197.416 28.8864 200.234 28.8864C201.453 28.8864 202.715 29.1415 203.664 29.6651L202.742 31.8494C201.845 31.4017 201.001 31.1847 200.209 31.1847C199.312 31.1847 199.027 31.4397 199.027 31.7463C199.027 32.8181 204.053 31.9254 204.053 35.2195C204.053 36.853 202.637 38.2341 199.82 38.2341C198.299 38.2341 196.767 37.8651 195.856 37.317Z" fill="white"/>
<path d="M215.615 29.0899H218.681V38.0306H215.615V29.0899Z" fill="white"/>
<path d="M239.776 29.0899V38.0306H237.256L233.801 33.9686V38.0306H230.812V29.0899H233.331L236.787 33.1519V29.0899H239.776Z" fill="white"/>
<path d="M251.545 33.5616C251.545 30.8536 253.714 28.8864 256.675 28.8864C259.637 28.8864 261.806 30.8536 261.806 33.5616C261.806 36.2696 259.637 38.2368 256.675 38.2368C253.714 38.2341 251.545 36.2696 251.545 33.5616ZM258.715 33.5616C258.715 32.1696 257.807 31.3257 256.675 31.3257C255.547 31.3257 254.636 32.1696 254.636 33.5616C254.636 34.9536 255.544 35.7974 256.675 35.7974C257.807 35.7947 258.715 34.9536 258.715 33.5616Z" fill="white"/>
<path d="M273.004 37.317L273.992 35.1191C274.85 35.6184 275.993 35.9358 276.992 35.9358C277.861 35.9358 278.173 35.7567 278.173 35.4501C278.173 34.3268 273.147 35.2331 273.147 31.901C273.147 30.2404 274.563 28.8864 277.381 28.8864C278.601 28.8864 279.862 29.1415 280.812 29.6651L279.89 31.8494C278.993 31.4017 278.148 31.1847 277.356 31.1847C276.459 31.1847 276.175 31.4397 276.175 31.7463C276.175 32.8181 281.204 31.9254 281.204 35.2195C281.204 36.853 279.788 38.2341 276.97 38.2341C275.446 38.2341 273.912 37.8651 273.004 37.317Z" fill="white"/>
<path d="M235.71 3.01408H179.616L168.419 3.09006L158 3.01408H153.104V26.561H235.71V3.01408Z" fill="#EF474B"/>
<path d="M282.09 3.01408H235.407V26.561H282.09V3.01408Z" fill="#EF474B"/>
<mask id="mask0_2798_4391" style="mask-type:luminance" maskUnits="userSpaceOnUse" x="235" y="3" width="48" height="24">
<path d="M282.09 3.01408H235.407V26.561H282.09V3.01408Z" fill="white"/>
</mask>
<g mask="url(#mask0_2798_4391)">
<path d="M250.071 11.7947V35.3416H243.88V16.7249H239.009V11.7947H250.071Z" fill="white"/>
</g>
<mask id="mask1_2798_4391" style="mask-type:luminance" maskUnits="userSpaceOnUse" x="235" y="3" width="48" height="24">
<path d="M282.09 3.01408H235.407V26.561H282.09V3.01408Z" fill="white"/>
</mask>
<g mask="url(#mask1_2798_4391)">
<path d="M265.8 11.7947C273.575 11.7947 276.305 16.7439 276.305 23.5356C276.305 30.3896 273.575 35.3416 265.8 35.3416C258.025 35.3416 255.295 30.3923 255.295 23.5356C255.298 16.7466 258.028 11.7947 265.8 11.7947ZM265.8 16.3043C262.267 16.3043 261.848 19.6798 261.848 23.5356C261.848 27.5297 262.267 30.8346 265.8 30.8346C269.333 30.8346 269.752 27.5297 269.752 23.5356C269.755 19.6771 269.333 16.3043 265.8 16.3043Z" fill="white"/>
</g>
<path d="M287.229 9.05955C289.277 9.05955 290.938 7.42681 290.938 5.41273C290.938 3.39865 289.277 1.76591 287.229 1.76591C285.18 1.76591 283.519 3.39865 283.519 5.41273C283.519 7.42681 285.18 9.05955 287.229 9.05955Z" fill="white"/>
<path d="M289.407 4.55951C289.725 4.20156 289.542 3.53358 288.999 3.06753C288.455 2.60148 287.757 2.51384 287.44 2.87179C287.122 3.22974 287.305 3.89772 287.848 4.36378C288.391 4.82983 289.089 4.91746 289.407 4.55951Z" fill="black"/>
<path d="M290.06 5.73883C290.231 5.54425 290.211 5.25028 290.015 5.08223C289.818 4.91418 289.519 4.93568 289.347 5.13026C289.175 5.32484 289.195 5.61881 289.392 5.78686C289.589 5.95491 289.888 5.93341 290.06 5.73883Z" fill="black"/>
<path d="M286.986 18.4452L286.729 20.3582C286.616 21.202 285.827 21.7963 284.968 21.685C284.11 21.5738 283.505 20.7977 283.619 19.9539L283.828 18.4018H282.258V26.5909H286.649C287.4 26.5909 288.007 25.9939 288.007 25.2559V19.7368C288.004 19.1154 287.571 18.5917 286.986 18.4452Z" fill="white"/>
<path d="M285.018 21.0826C284.411 21.004 283.983 20.4559 284.066 19.8589L285.874 6.43568L288.07 6.72059L286.263 20.1438C286.183 20.7408 285.625 21.1613 285.018 21.0826Z" fill="white"/>
<path d="M160.658 7.44778H152.938V2.97337H173.964V7.44778H166.244V26.6967H160.658V7.44778Z" fill="white"/>
<path d="M184.115 25.5109C182.103 24.45 180.53 22.9875 179.393 21.1233C178.256 19.2592 177.687 17.1645 177.687 14.8364C177.687 12.511 178.256 10.4135 179.393 8.54942C180.53 6.68531 182.103 5.22279 184.115 4.16185C186.124 3.1009 188.382 2.56908 190.888 2.56908C193.391 2.56908 195.644 3.1009 197.645 4.16185C199.643 5.22279 201.219 6.68531 202.367 8.54942C203.515 10.4135 204.089 12.5083 204.089 14.8364C204.089 17.1645 203.515 19.2592 202.367 21.1233C201.219 22.9875 199.643 24.45 197.645 25.5109C195.646 26.5719 193.394 27.1037 190.888 27.1037C188.385 27.1037 186.127 26.5719 184.115 25.5109ZM194.749 21.4598C195.897 20.8167 196.8 19.9186 197.454 18.7654C198.108 17.6122 198.437 16.3043 198.437 14.8337C198.437 13.3657 198.108 12.0551 197.454 10.9019C196.8 9.74875 195.897 8.85061 194.749 8.20753C193.601 7.56446 192.312 7.24156 190.888 7.24156C189.464 7.24156 188.175 7.56446 187.027 8.20753C185.879 8.85061 184.976 9.74875 184.322 10.9019C183.668 12.0551 183.339 13.3657 183.339 14.8337C183.339 16.3016 183.668 17.6122 184.322 18.7654C184.976 19.9186 185.879 20.8167 187.027 21.4598C188.175 22.1029 189.461 22.4258 190.888 22.4258C192.312 22.4258 193.598 22.1056 194.749 21.4598Z" fill="white"/>
<path d="M226.892 4.02618C228.465 4.72623 229.677 5.71934 230.53 7.00821C231.38 8.29708 231.805 9.82201 231.805 11.583C231.805 13.3223 231.38 14.8418 230.53 16.1415C229.68 17.4413 228.468 18.4344 226.892 19.1236C225.319 19.8128 223.462 20.1574 221.325 20.1574H216.465V26.6967H210.882V2.97337H221.325C223.462 2.97337 225.316 3.32612 226.892 4.02618ZM224.842 14.6166C225.714 13.9057 226.153 12.8936 226.153 11.583C226.153 10.2507 225.717 9.22777 224.842 8.51686C223.967 7.80595 222.692 7.45049 221.016 7.45049H216.465V15.6857H221.016C222.692 15.683 223.967 15.3275 224.842 14.6166Z" fill="white"/>
</g>
<defs>
<linearGradient id="paint0_linear_2798_4391" x1="127.745" y1="7" x2="143.284" y2="7.70239" gradientUnits="userSpaceOnUse">
<stop stop-color="#E3966D"/>
<stop offset="1" stop-color="#FF00C4"/>
</linearGradient>
<clipPath id="clip0_2798_4391">
<rect width="116.948" height="39.7622" fill="white" transform="translate(0 0.118896)"/>
</clipPath>
<clipPath id="clip1_2798_4391">
<rect width="138" height="37" fill="white" transform="translate(152.938 1.5)"/>
</clipPath>
</defs>
</svg>
