<svg width="115" height="39" viewBox="0 0 115 39" fill="none" xmlns="http://www.w3.org/2000/svg">
<path d="M43.1739 19.4865C43.3613 18.4035 43.7622 17.4403 44.3766 16.5969C44.991 15.743 45.7615 15.0818 46.6883 14.6132C47.6151 14.1342 48.6303 13.8947 49.7341 13.8947C51.119 13.8947 52.202 14.2279 52.983 14.8943C53.7744 15.5608 54.1805 16.4719 54.2013 17.6278H50.9056C50.791 17.3362 50.5932 17.1123 50.312 16.9561C50.0309 16.7999 49.6768 16.7218 49.2499 16.7218C48.4898 16.7218 47.8389 16.9717 47.2975 17.4716C46.7664 17.9714 46.428 18.643 46.2822 19.4865C46.2301 19.7989 46.2041 20.0592 46.2041 20.2675C46.2041 20.9651 46.4019 21.4962 46.7976 21.8607C47.1933 22.2147 47.7765 22.3917 48.547 22.3917C49.6196 22.3917 50.4734 21.9075 51.1086 20.9391H48.0316L48.4221 18.7367H54.1388L53.6078 21.7045C53.0663 22.6312 52.2905 23.4278 51.2804 24.0942C50.2704 24.7607 49.1041 25.0939 47.7817 25.0939C46.8028 25.0939 45.9594 24.9117 45.2513 24.5472C44.5432 24.1723 44.0017 23.6517 43.6269 22.9853C43.252 22.3188 43.0646 21.5483 43.0646 20.6736C43.0646 20.257 43.101 19.8614 43.1739 19.4865Z" fill="#F0F0F0"/>
<path d="M59.4781 25.1251C58.5514 25.1251 57.734 24.9325 57.0259 24.5472C56.3178 24.1619 55.7711 23.6205 55.3858 22.9228C55.0005 22.2251 54.8079 21.4233 54.8079 20.5174C54.8079 19.2157 55.0786 18.0599 55.6201 17.0498C56.172 16.0294 56.9374 15.238 57.9162 14.6757C58.9054 14.1134 60.0352 13.8322 61.3056 13.8322C62.2532 13.8322 63.081 14.0249 63.7891 14.4101C64.5076 14.785 65.0595 15.3213 65.4448 16.0189C65.8301 16.7062 66.0227 17.5028 66.0227 18.4087C66.0227 19.7 65.7468 20.8558 65.1949 21.8763C64.643 22.8967 63.8724 23.6933 62.8832 24.2661C61.894 24.8388 60.7589 25.1251 59.4781 25.1251ZM59.9467 22.2824C60.5611 22.2824 61.0974 22.121 61.5555 21.7982C62.0241 21.4754 62.3782 21.0484 62.6177 20.5174C62.8676 19.9759 62.9925 19.3928 62.9925 18.768C62.9925 18.1016 62.8103 17.5861 62.4459 17.2217C62.0918 16.8468 61.5816 16.6593 60.9151 16.6593C60.3008 16.6593 59.7593 16.8208 59.2907 17.1436C58.8221 17.4559 58.4629 17.8777 58.213 18.4087C57.963 18.9398 57.8381 19.5229 57.8381 20.1581C57.8381 20.8141 58.0203 21.3348 58.3848 21.7201C58.7492 22.0949 59.2699 22.2824 59.9467 22.2824Z" fill="#F0F0F0"/>
<path d="M69.4435 22.6885H72.8642L72.4425 25.0158H65.9447L67.8972 14.004H70.9586L69.4435 22.6885Z" fill="#F0F0F0"/>
<path d="M79.9604 14.004C80.9704 14.004 81.8451 14.1863 82.5844 14.5507C83.3238 14.9048 83.8861 15.4098 84.2713 16.0658C84.6566 16.7218 84.8493 17.4872 84.8493 18.3619C84.8493 18.7576 84.8128 19.1376 84.7399 19.5021C84.5525 20.5642 84.1464 21.5118 83.5216 22.3449C82.9072 23.1779 82.1211 23.8339 81.1631 24.3129C80.2155 24.7815 79.1638 25.0158 78.0079 25.0158H73.6501L75.6025 14.004H79.9604ZM78.2578 22.3292C79.1533 22.3292 79.8979 22.0845 80.4914 21.5951C81.085 21.0953 81.465 20.3976 81.6316 19.5021C81.6733 19.2938 81.6941 19.07 81.6941 18.8305C81.6941 18.1328 81.4807 17.5965 81.0537 17.2217C80.6268 16.8468 80.028 16.6593 79.2575 16.6593H78.211L77.1957 22.3292H78.2578Z" fill="#F0F0F0"/>
<path d="M94.8513 16.8624C94.7367 17.508 94.466 18.0495 94.039 18.4868C93.6225 18.9138 93.1227 19.2053 92.5396 19.3615C93.0706 19.4865 93.4819 19.7416 93.7735 20.1269C94.0755 20.5122 94.2265 20.9703 94.2265 21.5014C94.2265 21.668 94.2109 21.8398 94.1796 22.0168C94.0234 22.954 93.5757 23.6881 92.8363 24.2192C92.097 24.7503 91.139 25.0158 89.9623 25.0158H84.5111L86.4636 14.004H91.743C92.7426 14.004 93.5184 14.2071 94.0703 14.6132C94.6222 15.0089 94.8981 15.5764 94.8981 16.3157C94.8981 16.4927 94.8825 16.675 94.8513 16.8624ZM91.618 17.4247C91.6284 17.3726 91.6336 17.2945 91.6336 17.1904C91.6336 16.6906 91.3056 16.4407 90.6496 16.4407H89.1033L88.7596 18.3931H90.306C91.0661 18.3931 91.5035 18.0703 91.618 17.4247ZM91.1338 21.5795C91.1442 21.5274 91.1494 21.4545 91.1494 21.3608C91.1494 21.1005 91.0609 20.9027 90.8839 20.7673C90.7173 20.6215 90.4674 20.5486 90.1342 20.5486H88.3691L88.0255 22.5635H89.8061C90.5663 22.5635 91.0089 22.2355 91.1338 21.5795Z" fill="#F0F0F0"/>
<path d="M99.0357 16.4251L98.7233 18.2525H102.238L101.816 20.5799H98.3016L97.9423 22.5792H101.925L101.504 25.0158H94.4436L96.396 14.004H103.44L103.019 16.4251H99.0357Z" fill="#F0F0F0"/>
<path d="M113.325 14.004L112.888 16.4407H109.967L108.452 25.0158H105.375L106.89 16.4407H103.985L104.422 14.004H113.325Z" fill="#F0F0F0"/>
<path fill-rule="evenodd" clip-rule="evenodd" d="M1.98383 18.9694L3.99682 16.9564L4.90025 17.8598L3.79068 18.9694L4.90025 20.0789L3.99682 20.9824L1.98383 18.9694ZM6.23555 16.0918L6.68743 14.2658L5.54847 15.4047L6.23555 16.0918ZM10.6998 10.2534H12.5067L20.9211 1.83896L29.3354 10.2533L31.1423 10.2533L20.9211 0.0321045L10.6998 10.2534ZM29.3162 27.7047L20.9211 36.0998L12.7458 27.9245H10.9389L20.9211 37.9066L31.123 27.7047L29.3162 27.7047ZM35.1328 23.6949L35.5927 21.833L36.2937 22.534L35.1328 23.6949ZM38.0515 18.9694L36.9468 17.8646L37.8502 16.9612L39.8584 18.9694L37.8502 20.9776L36.9468 20.0741L38.0515 18.9694Z" fill="#FFB600"/>
<path fill-rule="evenodd" clip-rule="evenodd" d="M22.3319 26.4271L20.3856 25.2204L22.5313 16.5326H31.5232L31.6717 15.8273L33.9004 14.5218H10.0938L11.6472 15.8273L9.82777 23.1942L12.2612 22.0525H15.1033L15.7869 19.3886H12.9444L13.3895 17.6638L15.6892 16.5326H20.526L18.3803 25.2204L15.9366 26.4271H7.15352L5.34033 25.0264L8.33806 12.8887L7.00126 11.531H21.7779L23.4313 12.8887L23.7666 11.5309L35.1247 11.531L36.4891 12.8887L35.5568 16.6638L33.61 17.6638L35.0482 18.7089L33.142 26.4271L22.3319 26.4271ZM27.3699 22.0525L25.016 23.1942L25.9429 19.3886H30.8956L30.212 22.0525H27.3699Z" fill="#F0F0F0"/>
</svg>
