<svg width="25" height="25" viewBox="0 0 25 25" fill="none" xmlns="http://www.w3.org/2000/svg">
<g clip-path="url(#clip0_26_10506)">
<rect x="0.5" y="0.599976" width="24" height="24" fill="#34AADF"/>
<path d="M7.17684 12.1749C7.17684 12.1749 12.0596 10.1184 13.753 9.39422C14.4021 9.10459 16.6036 8.17767 16.6036 8.17767C16.6036 8.17767 17.6197 7.77218 17.535 8.75698C17.5067 9.16251 17.281 10.5818 17.0552 12.117C16.7165 14.2894 16.3496 16.6645 16.3496 16.6645C16.3496 16.6645 16.2931 17.3308 15.8133 17.4466C15.3335 17.5625 14.5432 17.0411 14.4021 16.9252C14.2892 16.8383 12.2853 15.5349 11.5515 14.8976C11.354 14.7239 11.1282 14.3763 11.5797 13.9708C12.5958 13.0149 13.8094 11.8273 14.5432 11.0742C14.8819 10.7266 15.2206 9.91561 13.8094 10.9004C11.8056 12.3197 9.82988 13.6521 9.82988 13.6521C9.82988 13.6521 9.37829 13.9418 8.53159 13.6811C7.68484 13.4204 6.69701 13.0728 6.69701 13.0728C6.69701 13.0728 6.01968 12.6384 7.17684 12.1749Z" fill="white"/>
</g>
<defs>
<clipPath id="clip0_26_10506">
<rect x="0.5" y="0.599976" width="24" height="24" rx="8" fill="white"/>
</clipPath>
</defs>
</svg>
