<svg width="51" height="21" viewBox="0 0 51 21" fill="none" xmlns="http://www.w3.org/2000/svg">
<path fill-rule="evenodd" clip-rule="evenodd" d="M6.69242 3.86396C7.6325 3.94326 8.57258 3.38816 9.16013 2.68436C9.73789 1.96074 10.1198 0.989307 10.0219 -0.00195312C9.18951 0.0376973 8.1613 0.553153 7.57375 1.27677C7.03516 1.90127 6.57491 2.91235 6.69242 3.86396ZM17.875 16.6297V1.17773H23.6036C26.561 1.17773 28.6272 3.23932 28.6272 6.2524C28.6272 9.26548 26.5218 11.3469 23.5253 11.3469H20.2448V16.6297H17.875ZM10.012 4.05183C9.18381 4.00358 8.42812 4.30392 7.81772 4.54652C7.42492 4.70263 7.09229 4.83483 6.83923 4.83483C6.55524 4.83483 6.20888 4.69556 5.81999 4.53919C5.31042 4.3343 4.72784 4.10005 4.11691 4.11129C2.71658 4.13112 1.41417 4.93395 0.699318 6.21252C-0.76956 8.76968 0.317409 12.5559 1.73732 14.6373C2.43259 15.668 3.26496 16.798 4.36172 16.7583C4.84423 16.7399 5.19132 16.5908 5.55052 16.4365C5.96406 16.2589 6.39367 16.0744 7.06446 16.0744C7.71199 16.0744 8.1228 16.2541 8.51716 16.4266C8.89213 16.5906 9.25221 16.7481 9.78678 16.7385C10.9227 16.7187 11.6376 15.7077 12.3328 14.6769C13.0831 13.5706 13.4129 12.4909 13.4629 12.327L13.4688 12.3081C13.4676 12.3069 13.4583 12.3026 13.4421 12.295L13.442 12.295L13.4419 12.295C13.1911 12.1788 11.274 11.2905 11.2557 8.90844C11.2372 6.90908 12.7762 5.89608 13.0185 5.73661C13.0332 5.72691 13.0432 5.72036 13.0477 5.71695C12.0684 4.25006 10.5408 4.09147 10.012 4.05183ZM32.9556 16.7489C34.444 16.7489 35.8248 15.9858 36.4515 14.7766H36.5005V16.63H38.694V8.93872C38.694 6.70864 36.9314 5.27148 34.2188 5.27148C31.7021 5.27148 29.8416 6.72847 29.773 8.73058H31.9078C32.0841 7.77908 32.9556 7.15466 34.1503 7.15466C35.5996 7.15466 36.4123 7.83855 36.4123 9.0973V9.94969L33.455 10.1281C30.7033 10.2966 29.2148 11.4364 29.2148 13.4187C29.2148 15.4208 30.7523 16.7489 32.9556 16.7489ZM33.5924 14.9149C32.3292 14.9149 31.5262 14.3003 31.5262 13.3586C31.5262 12.3872 32.2998 11.8222 33.7785 11.733L36.4127 11.5645V12.4368C36.4127 13.884 35.1984 14.9149 33.5924 14.9149ZM45.9706 17.2344C45.0207 19.9402 43.9337 20.8322 41.6227 20.8322C41.4464 20.8322 40.8589 20.8124 40.7218 20.7728V18.9193C40.8687 18.9391 41.231 18.959 41.4171 18.959C42.4649 18.959 43.0524 18.5129 43.4147 17.3533L43.6302 16.6694L39.6152 5.41992H42.0927L44.8836 14.5484H44.9326L47.7234 5.41992H50.1324L45.9706 17.2344ZM20.2451 3.19944H22.9772C25.0336 3.19944 26.2087 4.30965 26.2087 6.26243C26.2087 8.21522 25.0336 9.33534 22.9674 9.33534H20.2451V3.19944Z" fill="#F0F0F0"/>
</svg>
