<svg width="54" height="29" viewBox="0 0 54 29" fill="none" xmlns="http://www.w3.org/2000/svg">
<rect width="54" height="29" rx="5" fill="black"/>
<path fill-rule="evenodd" clip-rule="evenodd" d="M17.3316 24.1979L17.9004 23.6435C18.2154 23.3355 18.6091 22.8867 18.7754 22.6491C18.9416 22.4027 19.2216 21.8923 19.3966 21.5051C19.5716 21.1179 19.7904 20.5019 19.8691 20.1411C19.9654 19.7187 20.0179 19.1379 20.0179 18.5131C20.0179 17.8531 19.9566 17.3339 19.8429 16.8851C19.7466 16.5243 19.5279 15.9259 19.3529 15.5651C19.1779 15.2043 18.8279 14.6323 18.5741 14.2979C18.3291 13.9635 17.8654 13.4795 17.5504 13.2155C17.2354 12.9603 16.6841 12.5907 16.3254 12.4059C15.9666 12.2123 15.3716 11.9659 15.0129 11.8515C14.4529 11.6755 14.1729 11.6491 13.0879 11.6491C12.0029 11.6491 11.7229 11.6755 11.1629 11.8603C10.8041 11.9747 10.3579 12.1419 9.85039 12.3971V4.8291H6.08789L6.11414 12.2475C6.14039 18.8739 6.15789 19.7187 6.28914 20.2115C6.36789 20.5107 6.54289 21.0035 6.66539 21.3027C6.79664 21.6107 7.06789 22.1211 7.27789 22.4467C7.48789 22.7811 7.91664 23.3003 8.80039 24.1891C9.42526 24.6261 11.1576 25.5002 13.0879 25.5002C15.0182 25.5002 16.7214 24.632 17.3316 24.1979ZM11.7484 15.6441C11.9846 15.5385 12.3434 15.4241 12.5621 15.3889C12.7809 15.3537 13.1134 15.3449 13.3059 15.3625C13.4984 15.3801 13.8571 15.4593 14.0934 15.5385C14.3384 15.6089 14.6884 15.7849 14.8809 15.9169C15.0734 16.0489 15.3621 16.3041 15.5196 16.4977C15.6771 16.6825 15.8871 17.0169 15.9834 17.2369C16.0884 17.4569 16.2021 17.8353 16.2459 18.0729C16.3071 18.3721 16.2984 18.6977 16.2284 19.0849C16.1759 19.4017 16.0446 19.8329 15.9309 20.0529C15.8259 20.2729 15.5459 20.6425 15.3096 20.8713C15.0734 21.1089 14.6621 21.4081 14.3996 21.5313C13.9884 21.7337 13.7959 21.7601 13.0871 21.7689C12.3784 21.7689 12.1859 21.7337 11.7746 21.5489C11.5121 21.4257 11.1009 21.1441 10.8734 20.9329C10.6196 20.6953 10.3396 20.3081 10.1734 19.9649C9.91961 19.4545 9.89336 19.3137 9.89336 18.6009C9.89336 17.9057 9.92836 17.7385 10.1559 17.2457C10.3221 16.8849 10.5846 16.5329 10.8821 16.2601C11.1271 16.0225 11.5209 15.7409 11.7484 15.6441Z" fill="white"/>
<path d="M26.0379 24.1891V4.8291H22.4066L22.3366 10.9187C22.3016 14.2715 22.2754 18.6275 22.2754 24.1891V25.5002H26.0379V24.1891Z" fill="white"/>
<path d="M32.8629 24.1891V18.8915C32.8629 15.9699 32.8366 13.1627 32.7316 11.6931H29.1004V24.1891V25.5002H32.8629V24.1891Z" fill="white"/>
<path d="M48.3066 24.1979L46.0054 21.1971C43.9754 18.5395 43.7216 18.1875 43.8266 18.0467C43.8791 17.9499 44.9904 16.5243 46.2941 14.8699C47.5979 13.2067 48.6654 11.8163 48.6829 11.7723C48.6916 11.7283 47.8166 11.6931 44.3691 11.6931L39.6441 17.7739L39.6004 4.8291H35.8379V24.1891V25.5002H39.6004V24.1891V21.3907C39.6004 19.7187 39.6266 18.6363 39.6791 18.6891C39.7229 18.7419 40.5629 19.9475 41.5429 21.3731C42.5229 22.7987 43.3541 24.0219 43.3891 24.0747L44.3691 25.5002H49.3328L48.3066 24.1979Z" fill="white"/>
<path d="M14.9695 4.24849C15.162 4.13409 15.5383 3.98449 15.8008 3.91409C16.0633 3.84369 16.4395 3.78209 16.632 3.78209C16.8245 3.77329 17.2008 3.83489 17.4633 3.90529C17.7258 3.97569 18.102 4.13409 18.2945 4.24849C18.487 4.36289 18.8195 4.65329 19.0383 4.88209C19.2483 5.11969 19.5195 5.53329 19.642 5.79729C19.7645 6.08769 19.8695 6.51009 19.8958 6.85329C19.922 7.24929 19.887 7.60129 19.7733 7.99729C19.677 8.34929 19.4758 8.76289 19.257 9.05329C19.0558 9.31729 18.7058 9.66049 18.4608 9.81889C18.2245 9.96849 17.8133 10.1621 17.5508 10.2501C17.192 10.3645 16.9033 10.3909 16.4133 10.3557C15.9758 10.3205 15.5995 10.2325 15.2758 10.0829C15.0133 9.95969 14.6108 9.67809 14.3833 9.45809C14.1383 9.22049 13.8408 8.80689 13.6833 8.46369C13.4208 7.92689 13.3945 7.78609 13.3945 7.07329C13.3945 6.41329 13.4383 6.20209 13.622 5.79729C13.7445 5.53329 14.0158 5.11969 14.2258 4.88209C14.4445 4.65329 14.777 4.36289 14.9695 4.24849Z" fill="#EE2D35"/>
</svg>
