<svg width="100" height="52" viewBox="0 0 100 52" fill="none" xmlns="http://www.w3.org/2000/svg">
<g clip-path="url(#clip0_19561_82900)">
<path fill-rule="evenodd" clip-rule="evenodd" d="M68.0616 11.8823L62.217 24.1616C62.1716 24.2524 62.1943 24.3659 62.2624 24.434L78.0485 39.5619C78.1393 39.6527 78.2868 39.6527 78.3776 39.5619L94.1637 24.434C94.2432 24.3659 94.2659 24.2524 94.2092 24.1616L88.3645 11.8823C88.3304 11.8028 88.2397 11.7461 88.1489 11.7461H68.2659C68.1751 11.7461 68.0843 11.8028 68.0502 11.8823H68.0616Z" fill="#50AE94"/>
<path fill-rule="evenodd" clip-rule="evenodd" d="M80.2511 25.4203C80.1376 25.4203 79.5475 25.4657 78.2424 25.4657C77.1983 25.4657 76.4607 25.4316 76.211 25.4203C72.1935 25.2387 69.1974 24.5464 69.1974 23.7066C69.1974 22.8668 72.1935 22.1745 76.211 21.993V24.728C76.472 24.7507 77.221 24.7961 78.2651 24.7961C79.5135 24.7961 80.1376 24.7394 80.2511 24.7394V22.0043C84.2572 22.1859 87.2533 22.8782 87.2533 23.718C87.2533 24.5578 84.2686 25.25 80.2511 25.4316V25.4203ZM80.2511 21.7093V19.2693H85.846V15.5469H70.6161V19.2693H76.211V21.7093C71.6715 21.9135 68.2441 22.8214 68.2441 23.8996C68.2441 24.9777 71.6601 25.8742 76.211 26.0899V33.9205H80.2511V26.0899C84.7906 25.8856 88.1953 24.9777 88.1953 23.8996C88.1953 22.8214 84.7906 21.9249 80.2511 21.7093Z" fill="white"/>
<path d="M22.221 39.6413C29.9495 39.6413 36.1687 33.4222 36.1687 25.6937C36.1687 17.9652 29.9495 11.7461 22.221 11.7461C14.4925 11.7461 8.27344 17.9652 8.27344 25.6937C8.27344 33.4222 14.4925 39.6413 22.221 39.6413Z" fill="#2775C9"/>
<path d="M26.0564 27.9039C26.0564 25.8726 24.8307 25.1689 22.3907 24.8852C20.643 24.6582 20.3025 24.1929 20.3025 23.3758C20.3025 22.5587 20.8813 22.0367 22.0502 22.0367C23.0944 22.0367 23.6731 22.3885 23.9682 23.2623C24.0249 23.4326 24.1951 23.5574 24.3767 23.5574H25.3073C25.5343 23.5574 25.7159 23.3871 25.7159 23.1488V23.0921C25.4889 21.8097 24.4335 20.8223 23.1057 20.7089V19.3129C23.1057 19.086 22.9354 18.9044 22.6404 18.8477H21.7665C21.5395 18.8477 21.358 19.0179 21.3012 19.3129V20.6521C19.5535 20.8791 18.4527 22.048 18.4527 23.5006C18.4527 25.4186 19.6102 26.179 22.0502 26.4627C23.6731 26.7578 24.1951 27.0982 24.1951 28.0288C24.1951 28.9594 23.378 29.5949 22.2772 29.5949C20.7679 29.5949 20.2458 28.9594 20.0642 28.0855C20.0075 27.8586 19.8372 27.7337 19.6557 27.7337H18.6683C18.4414 27.7337 18.2598 27.9039 18.2598 28.1423V28.1991C18.4867 29.6517 19.4173 30.6958 21.3353 30.9908V32.3867C21.3353 32.6137 21.5055 32.7953 21.8006 32.852H22.6744C22.9014 32.852 23.083 32.6818 23.1397 32.3867V30.9908C24.8874 30.6958 26.045 29.4814 26.045 27.9153L26.0564 27.9039Z" fill="white"/>
<path d="M19.2616 34.0006C14.7334 32.3778 12.4069 27.3162 14.0866 22.8448C14.9604 20.4048 16.8784 18.5436 19.2616 17.6698C19.4886 17.5563 19.6134 17.3747 19.6134 17.0909V16.2739C19.6134 16.0469 19.4999 15.8653 19.2616 15.8086C19.2049 15.8086 19.0914 15.8086 19.0346 15.8653C13.5191 17.613 10.489 23.4803 12.2367 28.9958C13.2808 32.2529 15.7775 34.7496 19.0346 35.7937C19.2616 35.9072 19.4999 35.7937 19.5567 35.5667C19.6134 35.51 19.6134 35.4533 19.6134 35.3398V34.5227C19.6134 34.3524 19.4432 34.1141 19.2616 34.0006ZM25.424 15.8767C25.197 15.7632 24.9587 15.8767 24.9019 16.1037C24.8452 16.1604 24.8452 16.2171 24.8452 16.3306V17.1477C24.8452 17.3747 25.0154 17.613 25.197 17.7265C29.7252 19.3493 32.0517 24.4109 30.372 28.8823C29.4982 31.3223 27.5803 33.1835 25.197 34.0574C24.97 34.1708 24.8452 34.3524 24.8452 34.6362V35.4533C24.8452 35.6802 24.9587 35.8618 25.197 35.9185C25.2538 35.9185 25.3672 35.9185 25.424 35.8618C30.9395 34.1141 33.9696 28.2468 32.2219 22.7313C31.1778 19.4174 28.6243 16.9207 25.424 15.8767Z" fill="white"/>
<g clip-path="url(#clip1_19561_82900)">
<mask id="mask0_19561_82900" style="mask-type:luminance" maskUnits="userSpaceOnUse" x="10" y="4" width="82" height="44">
<path d="M91.0789 4.99219H10.002V47.1522H91.0789V4.99219Z" fill="white"/>
</mask>
<g mask="url(#mask0_19561_82900)">
<path d="M70.998 30.5718C68.2211 41.7047 56.9474 48.474 45.8145 45.6972C34.6817 42.9204 27.9124 31.6467 30.6891 20.5138C33.466 9.38089 44.7397 2.61157 55.8725 5.3884C67.0054 8.16523 73.7748 19.4389 70.998 30.5718Z" fill="url(#paint0_linear_19561_82900)"/>
<path d="M60.0081 22.5827C60.4176 19.8186 58.3189 18.3342 55.4397 17.3361L56.3739 13.5868L54.0961 13.0237L53.1876 16.6707C52.5861 16.5171 51.9719 16.3764 51.3577 16.2356L52.279 12.563L50.0013 12L49.0672 15.7493C48.5681 15.6342 48.0818 15.519 47.6083 15.4039L44.4605 14.6105L43.859 17.0418C43.859 17.0418 45.5481 17.4257 45.5098 17.4513C46.4311 17.6817 46.5974 18.2958 46.5719 18.7821L45.5098 23.0434C45.5098 23.0434 45.6505 23.0817 45.7529 23.1201C45.6761 23.1073 45.5993 23.0817 45.5098 23.0562L44.0253 29.0321C43.9102 29.3136 43.6287 29.7358 42.976 29.5695C43.0016 29.6079 41.3253 29.16 41.3253 29.16L40.1992 31.7705L43.168 32.5126C43.7182 32.6535 44.2557 32.7942 44.7931 32.935L43.8462 36.7227L46.124 37.2857L47.0581 33.5364C47.6851 33.7028 48.2866 33.8563 48.8752 34.0099L47.9411 37.7464L50.2188 38.3095L51.1658 34.5345C55.0558 35.2639 57.9735 34.9696 59.2019 31.4634C60.1873 28.6354 59.1507 26.9974 57.1033 25.9353C58.5877 25.5898 59.7138 24.6173 60.0081 22.5827ZM54.8 29.8894C54.0961 32.7174 49.323 31.1947 47.7875 30.8108L49.0415 25.7945C50.59 26.1784 55.5421 26.9462 54.8 29.9022V29.8894ZM55.5038 22.5442C54.8639 25.1163 50.897 23.8111 49.6046 23.4912L50.7435 18.9357C52.0359 19.2556 56.1692 19.857 55.5038 22.5442Z" fill="white"/>
</g>
</g>
</g>
<defs>
<linearGradient id="paint0_linear_19561_82900" x1="53.232" y1="4.67832" x2="53.232" y2="43.9898" gradientUnits="userSpaceOnUse">
<stop stop-color="#F3A44B"/>
<stop offset="1" stop-color="#F18D1A"/>
</linearGradient>
<clipPath id="clip0_19561_82900">
<rect width="100" height="52" fill="white"/>
</clipPath>
<clipPath id="clip1_19561_82900">
<rect width="81.0769" height="42.16" fill="white" transform="translate(10 5)"/>
</clipPath>
</defs>
</svg>
