<svg width="68" height="20" viewBox="0 0 68 20" fill="none" xmlns="http://www.w3.org/2000/svg">
<rect width="20" height="20" rx="10" fill="#F0B90B"/>
<path fill-rule="evenodd" clip-rule="evenodd" d="M7.66951 9.04042L10.0012 6.70979L12.3338 9.04231L13.6897 7.68547L10.0012 3.99609L6.31262 7.68452L7.66951 9.04042Z" fill="white"/>
<path fill-rule="evenodd" clip-rule="evenodd" d="M3.99609 9.99805L5.35249 8.6417L6.70888 9.99805L5.35249 11.3544L3.99609 9.99805Z" fill="white"/>
<path fill-rule="evenodd" clip-rule="evenodd" d="M7.67129 10.958L10.0029 13.2896L12.3355 10.957L13.6924 12.312L13.6915 12.3129L10.0029 16.0023L6.3144 12.3148L6.3125 12.3129L7.67129 10.958Z" fill="white"/>
<path fill-rule="evenodd" clip-rule="evenodd" d="M13.2891 9.99805L14.6455 8.6417L16.0019 9.99805L14.6455 11.3544L13.2891 9.99805Z" fill="white"/>
<path fill-rule="evenodd" clip-rule="evenodd" d="M11.3747 9.99981L9.99884 8.62305L8.98141 9.64045L8.86384 9.75707L8.62299 9.99791L8.62109 9.99981L8.62299 10.0027L9.99884 11.3775L11.3747 10.0008L11.3756 9.99981H11.3747Z" fill="white"/>
<rect x="24" width="20" height="20" rx="10" fill="#F7931A"/>
<path fill-rule="evenodd" clip-rule="evenodd" d="M33.6604 3.93131C33.6508 3.9447 33.5413 4.32537 33.4171 4.77722L33.1911 5.59876L32.1511 5.32614C31.3522 5.11673 31.1055 5.05869 31.0869 5.07581C31.0736 5.08808 30.9993 5.33375 30.922 5.62175L30.7813 6.14536L31.2614 6.28141C31.8118 6.43737 31.884 6.47953 31.9735 6.69692C32.0502 6.88358 32.066 6.81318 31.37 9.38597L30.7211 11.7848L30.6459 11.8499C30.5049 11.9722 30.4709 11.9722 29.9841 11.8503C29.5015 11.7294 29.5023 11.7294 29.445 11.8684C29.4182 11.9324 29.3899 11.9958 29.36 12.0585C29.3355 12.1093 29.2862 12.2162 29.2506 12.2961C29.215 12.3759 29.1402 12.5413 29.0844 12.6637C29.0287 12.7861 28.9866 12.8923 28.9909 12.8998C28.9952 12.9073 29.4649 13.0383 30.0345 13.1909L31.0703 13.4684L30.8423 14.3417L30.6144 15.2149L31.6323 15.4877L31.8695 14.6459L32.1067 13.8042L32.5249 13.9099L32.9431 14.0157L32.7209 14.8677L32.4987 15.7198L33.5166 15.9926L33.7564 15.141L33.9962 14.2893L34.0544 14.2888C34.0864 14.2885 34.1664 14.3015 34.2323 14.3178C34.6403 14.4187 35.4744 14.4755 35.8622 14.429C36.8266 14.3133 37.396 13.8358 37.7658 12.8327C38.1328 11.8373 37.8774 11.0417 37.0121 10.4843C36.823 10.3624 36.822 10.3672 37.0508 10.2914C37.4719 10.1517 37.7544 9.90842 37.9834 9.48819C38.045 9.37527 38.2092 8.7801 38.2061 8.6812C38.2049 8.64385 38.2063 8.55649 38.2093 8.48706C38.2365 7.83846 37.7503 7.16692 36.9554 6.75505C36.7678 6.65783 36.4725 6.52328 36.2518 6.43438L36.1366 6.38801L36.3521 5.54044L36.5676 4.69288L36.055 4.54933L35.5424 4.40578L35.3147 5.23306L35.0869 6.06033L34.2639 5.83981L34.4802 5.00986L34.6965 4.17992L34.1871 4.04344C33.7995 3.93956 33.6736 3.91274 33.6604 3.93131ZM34.9442 7.35771C35.6293 7.6053 35.9736 7.87234 36.1084 8.26073C36.1787 8.46316 36.1091 8.9418 35.9887 9.08404C35.9653 9.11162 35.927 9.15775 35.9035 9.18656C35.7778 9.34045 35.3623 9.4966 35.0836 9.49463L34.9446 9.4937C34.6455 9.49191 33.6621 9.29845 33.4606 9.20181L33.3841 9.16505L33.6665 8.13341L33.949 7.10178L34.0715 7.12097C34.2825 7.15407 34.6762 7.26082 34.9442 7.35771ZM34.3528 10.5762C35.5683 11.0288 35.9618 11.5424 35.6753 12.302C35.421 12.9762 34.4277 13.0967 32.8586 12.6437L32.4924 12.538L33.1075 10.2422L33.2408 10.2644C33.5014 10.3078 34.0303 10.4562 34.3528 10.5762Z" fill="white"/>
<rect x="48" width="20" height="20" rx="10" fill="#FF060A"/>
<path d="M63.7802 7.7341C63.21 7.20661 62.4211 6.40111 61.7786 5.82983L61.7406 5.80317C61.6773 5.75228 61.606 5.71237 61.5296 5.6851C59.9804 5.39565 52.7704 4.04552 52.6297 4.06266C52.5903 4.06819 52.5526 4.08251 52.5195 4.10456L52.4833 4.13312C52.4389 4.17837 52.4051 4.23303 52.3845 4.29308L52.375 4.31783V4.45304V4.47398C53.1867 6.73816 56.3915 14.1553 57.0226 15.8958C57.0607 16.0139 57.1329 16.2386 57.2678 16.25H57.2983C57.3705 16.25 57.6784 15.8425 57.6784 15.8425C57.6784 15.8425 63.1834 9.15468 63.7403 8.44249C63.8124 8.35476 63.8761 8.26039 63.9304 8.16065C63.9443 8.08262 63.9377 8.00231 63.9114 7.92756C63.8851 7.8528 63.8399 7.78615 63.7802 7.7341ZM59.0908 8.51294L61.4403 6.56107L62.8184 7.83312L59.0908 8.51294ZM58.1784 8.38536L54.1333 5.06431L60.678 6.27352L58.1784 8.38536ZM58.5433 9.25561L62.6834 8.58721L57.9503 14.3L58.5433 9.25561ZM53.584 5.39565L57.84 9.01377L57.2241 14.3038L53.584 5.39565Z" fill="white"/>
</svg>
