<svg width="70" height="48" viewBox="0 0 70 48" fill="none" xmlns="http://www.w3.org/2000/svg">
<path d="M33.1278 23.3679V29.981H31.0353V13.6495H36.5849C37.2473 13.6357 37.9059 13.7535 38.5227 13.9961C39.1395 14.2388 39.7022 14.6015 40.1784 15.0634C40.6595 15.4972 41.0423 16.0292 41.3012 16.6237C41.5601 17.2182 41.6891 17.8614 41.6795 18.51C41.6933 19.1621 41.5663 19.8095 41.3072 20.4077C41.0481 21.006 40.6631 21.5411 40.1784 21.9762C39.208 22.904 38.0102 23.3674 36.5849 23.3666H33.1278V23.3679ZM33.1278 15.6602V21.3611H36.6369C37.0216 21.3726 37.4044 21.3034 37.7609 21.158C38.1174 21.0126 38.4397 20.7942 38.7072 20.5167C38.9733 20.2573 39.1849 19.9471 39.3293 19.6043C39.4737 19.2615 39.5482 18.8932 39.5482 18.5211C39.5482 18.149 39.4737 17.7806 39.3293 17.4378C39.1849 17.0951 38.9733 16.7848 38.7072 16.5254C38.4431 16.2421 38.1219 16.0184 37.765 15.869C37.408 15.7196 37.0235 15.648 36.6369 15.6589H33.1278V15.6602Z" fill="white"/>
<path d="M46.5028 18.4419C48.0494 18.4419 49.2702 18.8563 50.1652 19.685C51.0603 20.5138 51.5073 21.6501 51.5065 23.0939V29.9806H49.505V28.43H49.414C48.5476 29.707 47.3952 30.3455 45.9569 30.3455C44.7292 30.3455 43.702 29.9806 42.8755 29.2509C42.4788 28.916 42.1616 28.4965 41.9471 28.0231C41.7326 27.5497 41.6262 27.0343 41.6356 26.5144C41.6356 25.3582 42.0714 24.4386 42.943 23.7558C43.8147 23.073 44.9783 22.7307 46.4339 22.729C47.6764 22.729 48.6997 22.957 49.5037 23.4131V22.9336C49.5061 22.5792 49.4298 22.2287 49.2803 21.9075C49.1308 21.5863 48.9119 21.3025 48.6394 21.0767C48.0861 20.5762 47.365 20.3031 46.6198 20.3118C45.4509 20.3118 44.526 20.8061 43.845 21.7947L42.0021 20.6311C43.0158 19.1716 44.5161 18.4419 46.5028 18.4419ZM43.7956 26.56C43.7942 26.827 43.8565 27.0905 43.9772 27.3285C44.0979 27.5665 44.2736 27.7721 44.4896 27.9283C44.9524 28.2933 45.5268 28.4866 46.1155 28.4756C46.9985 28.4741 47.8449 28.1217 48.4692 27.4957C49.1623 26.8415 49.5089 26.074 49.5089 25.1931C48.8565 24.6719 47.9467 24.4113 46.7796 24.4113C45.9297 24.4113 45.2209 24.6167 44.6534 25.0276C44.0802 25.4446 43.7956 25.9515 43.7956 26.56Z" fill="white"/>
<path d="M63.0002 18.8096L56.0133 34.909H53.8532L56.446 29.2759L51.8517 18.8096H54.1261L57.4468 26.8365H57.4923L60.7219 18.8096H63.0002Z" fill="white"/>
<path d="M24.6735 21.9409C24.6743 21.3016 24.6204 20.6633 24.5124 20.0332H15.6877V23.6466H20.742C20.6386 24.2237 20.4197 24.7739 20.0985 25.2639C19.7773 25.7539 19.3605 26.1736 18.8731 26.4978V28.8433H21.8896C23.6559 27.2105 24.6735 24.7959 24.6735 21.9409Z" fill="#4285F4"/>
<path d="M15.6911 31.1109C18.2164 31.1109 20.3426 30.2795 21.8931 28.8462L18.8766 26.5006C18.037 27.0714 16.9557 27.3971 15.6911 27.3971C13.2504 27.3971 11.1787 25.7475 10.4379 23.5244H7.33044V25.9416C8.10929 27.4955 9.30356 28.8018 10.7799 29.7146C12.2563 30.6274 13.9566 31.1108 15.6911 31.1109Z" fill="#34A853"/>
<path d="M10.4382 23.5207C10.0466 22.3558 10.0466 21.0943 10.4382 19.9294V17.5122H7.33076C6.67557 18.8194 6.33435 20.2621 6.33435 21.725C6.33435 23.188 6.67557 24.6307 7.33076 25.9379L10.4382 23.5207Z" fill="#FBBC04"/>
<path d="M15.6911 16.0601C17.0256 16.0382 18.3151 16.5437 19.2808 17.4674L21.9516 14.7896C20.258 13.1947 18.0144 12.3191 15.6911 12.3463C13.9566 12.3464 12.2563 12.8298 10.7799 13.7426C9.30356 14.6555 8.10929 15.9617 7.33044 17.5156L10.4379 19.9328C11.1787 17.7098 13.2504 16.0601 15.6911 16.0601Z" fill="#EA4335"/>
</svg>
