<svg width="70" height="48" viewBox="0 0 70 48" fill="none" xmlns="http://www.w3.org/2000/svg">
<path fill-rule="evenodd" clip-rule="evenodd" d="M6.82858 31.4997H3.64258V17.2295H6.82858V31.4997ZM14.7812 17.2295H11.6643C11.6643 19.8556 10.4898 22.2659 8.4419 23.8428L7.20703 24.7935L11.9917 31.5003H15.9257L11.5231 25.329C13.61 23.1928 14.7812 20.3189 14.7812 17.2295ZM19.8642 31.4959H16.8553V17.2322H19.8642V31.4959ZM59.2748 22.2602V21.629H62.1486V31.4958H59.2748V30.8652C58.463 31.4343 57.4831 31.7689 56.426 31.7689C53.6289 31.7689 51.3613 29.438 51.3613 26.5626C51.3613 23.6873 53.6289 21.3563 56.426 21.3563C57.4831 21.3563 58.463 21.6909 59.2748 22.2602ZM56.6606 29.102C58.0988 29.102 59.2645 27.9652 59.2645 26.5631C59.2645 25.1609 58.0988 24.0244 56.6606 24.0244C55.2224 24.0244 54.0566 25.1609 54.0566 26.5631C54.0566 27.9652 55.2224 29.102 56.6606 29.102ZM46.2518 21.3638C45.1039 21.3638 44.0175 21.7301 43.2911 22.7409V21.6297H40.4297V31.4959H43.3262V26.3109C43.3262 24.8105 44.305 24.0757 45.4835 24.0757C46.7465 24.0757 47.4726 24.8513 47.4726 26.2904V31.4959H50.3429V25.2214C50.3429 22.9253 48.5669 21.3638 46.2518 21.3638ZM36.2744 21.6293V22.9144C36.8505 22.1435 37.9239 21.6299 39.0909 21.6299V24.5009C39.0855 24.5009 39.0802 24.5006 39.0749 24.5003C39.0689 24.5 39.0629 24.4996 39.0568 24.4996C37.9197 24.4996 36.281 25.335 36.281 26.8892V31.4959H33.3322V21.6293H36.2744ZM63.3926 29.8504C63.3926 28.8264 64.1999 27.9963 65.1959 27.9963C66.1918 27.9963 66.9993 28.8264 66.9993 29.8504C66.9993 30.8742 66.1918 31.7043 65.1959 31.7043C64.1999 31.7043 63.3926 30.8742 63.3926 29.8504ZM28.9546 21.6291V22.2602C28.1427 21.6909 27.1628 21.3563 26.1059 21.3563C23.3087 21.3563 21.0412 23.6873 21.0412 26.5626C21.0412 29.438 23.3087 31.7689 26.1059 31.7689C27.1628 31.7689 28.1427 31.4344 28.9546 30.8652V31.4958H31.8284V21.6291H28.9546ZM28.9445 26.5631C28.9445 27.9653 27.7786 29.102 26.3404 29.102C24.9024 29.102 23.7365 27.9653 23.7365 26.5631C23.7365 25.1609 24.9024 24.0244 26.3404 24.0244C27.7786 24.0244 28.9445 25.1609 28.9445 26.5631Z" fill="white"/>
</svg>
