<svg width="100" height="51" viewBox="0 0 100 51" fill="none" xmlns="http://www.w3.org/2000/svg">
<path d="M59.8808 7.09375L40.2734 7.1638L40.8584 43.382L60.464 43.312L59.8808 7.09375Z" fill="#FF5F00"/>
<path d="M41.5648 25.3426C41.4439 17.975 44.7171 11.4304 49.8378 7.18351C45.9728 4.12227 41.127 2.28167 35.8731 2.30093C23.4267 2.34296 13.5267 12.6931 13.7316 25.4407C13.9383 38.1883 24.1745 48.4665 36.6209 48.421C41.8748 48.4035 46.661 46.5295 50.4263 43.4403C45.1672 39.295 41.6839 32.7085 41.5648 25.3426Z" fill="#EB001B"/>
<path d="M86.9974 25.0312C87.204 37.7806 77.3005 48.1289 64.8541 48.1727C59.6003 48.1902 54.7545 46.3514 50.8894 43.2884C56.075 39.0433 59.2833 32.497 59.1642 25.1311C59.1107 21.6481 58.2887 18.2199 56.7568 15.0915C55.225 11.963 53.0211 9.21143 50.3027 7.03332C54.19 3.82628 59.0687 2.06557 64.1081 2.05092C76.5545 2.00714 86.7925 12.3485 86.9974 25.0312Z" fill="#F79E1B"/>
</svg>
