<svg width="100" height="51" viewBox="0 0 100 51" fill="none" xmlns="http://www.w3.org/2000/svg">
<path d="M87.0716 12.4734H81.7416C80.1313 12.4734 78.8907 12.9723 78.1472 14.6003L67.9822 38.0022H75.173C75.173 38.0022 76.4116 34.8755 76.6601 34.1241H85.4613C85.7098 35.0007 86.3281 37.879 86.3281 37.879H92.7753L87.0716 12.4734ZM78.6422 28.8684C79.2625 27.3657 81.3698 21.7344 81.3698 21.7344C81.3698 21.8596 81.9901 20.2316 82.2386 19.355L82.7336 21.6091C82.7336 21.6091 84.0974 27.7414 84.3459 28.9917H78.6422V28.8684ZM68.4772 29.6198C68.4772 34.8755 63.7656 38.3799 56.4534 38.3799C53.354 38.3799 50.3779 37.7537 48.7676 37.0043L49.7577 31.2458L50.6264 31.6215C52.857 32.6233 54.3441 32.999 57.0717 32.999C59.0558 32.999 61.1632 32.2476 61.1632 30.4944C61.1632 29.3694 60.2944 28.618 57.5687 27.3657C54.9663 26.1134 51.4932 24.1117 51.4932 20.4841C51.4932 15.4769 56.3282 12.0977 63.1472 12.0977C65.7496 12.0977 67.9802 12.5986 69.3441 13.2248L68.352 18.7309L67.857 18.23C66.2074 17.5484 64.4369 17.2083 62.6522 17.2301C60.0479 17.3553 58.8073 18.4824 58.8073 19.4803C58.8073 20.6093 60.2944 21.4839 62.6502 22.611C66.6184 24.4894 68.4772 26.6163 68.4772 29.6198Z" fill="#3362AB"/>
<path d="M7.98438 12.7217L8.10765 12.2227H18.7696C20.2567 12.2227 21.372 12.7217 21.7438 14.3496L24.0996 25.6142C21.7438 19.6072 16.2905 14.7253 7.98438 12.7236V12.7217Z" fill="#F9B50B"/>
<path d="M39.1047 12.4768L28.3214 37.8824H21.0074L14.8086 16.6093C19.2698 19.4856 22.9895 23.9938 24.3533 27.1226L25.0968 29.7504L31.7926 12.3555H39.1047V12.4787V12.4768ZM41.9478 12.3516H48.7649L44.4269 37.8824H37.6098L41.9478 12.3516Z" fill="#3362AB"/>
</svg>
