<svg width="100" height="51" viewBox="0 0 100 51" fill="none" xmlns="http://www.w3.org/2000/svg">
<path d="M78.3734 44.769C82.2809 44.769 84.1202 43.2624 85.7266 38.7013L92.7648 18.7706H88.691L83.9715 34.1892H83.8873L79.1678 18.7901H74.9766L81.7663 37.7602L81.4043 38.9146C81.2847 39.7082 80.8706 40.4276 80.2443 40.9295C79.618 41.4314 78.8257 41.6789 78.0251 41.6227C77.7101 41.6227 77.0977 41.5893 76.8511 41.556V44.6888C77.354 44.7592 77.8647 44.7925 78.3734 44.7905V44.769ZM64.794 34.7899C62.6554 34.7899 61.2994 33.7451 61.2994 32.1641C61.2994 30.5263 62.6065 29.5714 65.1091 29.4208L69.5625 29.1371V30.6104C69.5407 31.2045 69.3981 31.7879 69.1434 32.3251C68.8887 32.8622 68.5272 33.3418 68.0809 33.7346C67.6347 34.1273 67.1131 34.425 66.548 34.6095C65.9828 34.794 65.3861 34.8613 64.794 34.8074V34.788V34.7899ZM63.7179 37.8815C64.9119 37.9123 66.0921 37.6193 67.1331 37.0336C68.1742 36.448 69.0373 35.5915 69.6309 34.555H69.7131V37.6857H73.423V24.713C73.423 20.9483 70.443 18.524 65.8526 18.524C61.5968 18.524 58.4485 20.9816 58.3331 24.3608H61.9451C62.1485 23.5337 62.6448 22.8083 63.342 22.3191C64.0393 21.8298 64.8902 21.6098 65.7372 21.6997C68.1889 21.6997 69.5625 22.8542 69.5625 24.9772V26.4153L64.5631 26.7166C59.9101 27.0004 57.3919 28.9237 57.3919 32.2677C57.3899 35.6605 59.9884 37.9011 63.7159 37.9011L63.7179 37.8815ZM42.2198 15.0255H46.8395C50.3185 15.0255 52.3065 16.898 52.3065 20.1911C52.3065 23.4862 50.3185 25.3763 46.8239 25.3763H42.2198V15.0255ZM38.2125 11.613V37.6799H42.2198V28.7946H47.7689C52.2889 29.0392 56.1474 25.5407 56.392 20.9777C56.4057 20.7175 56.4077 20.4592 56.3959 20.2009C56.6112 15.6868 53.1615 11.8556 48.6905 11.6384C48.4278 11.6263 48.1647 11.6263 47.902 11.6384L38.2125 11.613ZM24.909 16.4773C22.606 16.3443 20.6356 17.7981 19.5438 17.7981C18.45 17.7981 16.7614 16.5458 14.9377 16.581C13.7485 16.6143 12.5889 16.9594 11.5749 17.5816C10.5608 18.2038 9.728 19.0814 9.15966 20.1265C6.67467 24.4391 8.51396 30.8276 10.9128 34.3379C12.0888 36.0794 13.4996 37.9831 15.3526 37.9166C17.1077 37.8501 17.8043 36.7622 19.9234 36.7622C22.0444 36.7622 22.6725 37.9167 24.5274 37.8815C26.4489 37.8482 27.6581 36.14 28.838 34.3986C29.6689 33.1651 30.3155 31.8172 30.7575 30.3972C29.6463 29.9029 28.7019 29.0978 28.038 28.0788C27.3742 27.0598 27.0194 25.8705 27.0163 24.6543C27.0309 23.5754 27.3158 22.5173 27.845 21.577C28.3741 20.6366 29.1306 19.8439 30.0453 19.2715C29.4663 18.4372 28.7012 17.749 27.8105 17.2613C26.9197 16.7737 25.9277 16.4999 24.9129 16.4617L24.909 16.4773ZM23.4708 14.1743C22.9762 14.8059 22.342 15.3144 21.6178 15.6596C20.8937 16.0049 20.0994 16.1776 19.2972 16.1643C19.2457 15.3746 19.3509 14.5825 19.6068 13.8336C19.8627 13.0847 20.2642 12.3939 20.7882 11.8008C21.8347 10.5711 23.3192 9.79761 24.9266 9.64453C25.0421 11.2847 24.5199 12.906 23.4689 14.1704" fill="white"/>
</svg>
