<svg width="100" height="51" viewBox="0 0 100 51" fill="none" xmlns="http://www.w3.org/2000/svg">
<path d="M48.076 27.5359V37.4309H44.9453V12.9939H53.2495C54.2411 12.9729 55.2271 13.149 56.1501 13.5121C57.0732 13.8752 57.9149 14.418 58.6264 15.109C59.3467 15.759 59.9195 16.5556 60.3066 17.4451C60.6937 18.3347 60.886 19.2968 60.8708 20.2669C60.8913 21.2417 60.7014 22.2094 60.3141 23.1042C59.9268 23.999 59.3512 24.7998 58.6264 25.4521C57.1746 26.8413 55.3803 27.5359 53.2495 27.534L48.076 27.5359ZM48.076 16.0032V24.5344H53.3258C53.9017 24.5516 54.4749 24.448 55.0083 24.2303C55.5418 24.0126 56.0238 23.6856 56.4232 23.2704C57.0246 22.6855 57.4352 21.9326 57.6014 21.1104C57.7676 20.2882 57.6816 19.4349 57.3546 18.6624C57.1394 18.1497 56.8224 17.684 56.4232 17.2966C56.0281 16.8736 55.5477 16.5394 55.0137 16.3161C54.4797 16.0928 53.9044 15.9855 53.3258 16.0013H48.076V16.0032ZM68.089 20.1651C70.4018 20.1651 72.2293 20.7854 73.5677 22.024C74.908 23.2665 75.5772 24.9668 75.5752 27.127V37.4309H72.5815V35.1103H72.4445C71.1473 37.0219 69.4234 37.9768 67.2711 37.9768C65.4337 37.9768 63.8977 37.4309 62.6611 36.3391C62.0669 35.8373 61.5921 35.2093 61.2712 34.5009C60.9503 33.7924 60.7914 33.0213 60.8062 32.2437C60.8062 30.514 61.4578 29.1385 62.7629 28.1151C64.066 27.0957 65.8075 26.583 67.9853 26.5811C69.8441 26.5811 71.3762 26.9215 72.5776 27.6044V26.8863C72.5813 26.3565 72.4674 25.8324 72.2441 25.352C72.0208 24.8715 71.6936 24.4466 71.2862 24.1078C70.4587 23.3589 69.379 22.9501 68.2631 22.9632C66.5138 22.9632 65.1305 23.7028 64.111 25.182L61.3521 23.4406C62.8705 21.2569 65.1148 20.1651 68.089 20.1651ZM64.0386 32.3122C64.0361 32.7115 64.1288 33.1057 64.3092 33.462C64.4896 33.8183 64.7523 34.1265 65.0757 34.3608C65.7683 34.9068 66.6273 35.1964 67.5078 35.1787C68.83 35.1759 70.0969 34.6481 71.0299 33.7112C72.0669 32.7329 72.5854 31.5863 72.5854 30.2675C71.611 29.4867 70.2491 29.0974 68.5018 29.0974C67.23 29.0974 66.1695 29.4046 65.3203 30.0209C64.4632 30.6432 64.0386 31.4023 64.0386 32.3122ZM92.7725 20.7169L82.318 44.8037H79.0855L82.9656 36.3743L76.0898 20.713H79.4945L84.4644 32.7251H84.531L89.364 20.7149L92.7725 20.7169Z" fill="#5F6368"/>
<path d="M35.4248 25.3978C35.4248 24.439 35.3466 23.4861 35.1842 22.543H21.9785V27.9493H29.5431C29.3879 28.8121 29.0601 29.6346 28.5793 30.3676C28.0984 31.1006 27.4746 31.7289 26.745 32.2149V35.7252H31.2591C33.9006 33.2833 35.4248 29.6693 35.4248 25.3978Z" fill="#4285F4"/>
<path d="M21.9817 39.1261C25.7601 39.1261 28.9436 37.8816 31.2623 35.7371L26.7482 32.2268C25.492 33.0799 23.8738 33.5671 21.9817 33.5671C18.3306 33.5671 15.2312 31.0997 14.1217 27.7734H9.47266V31.3893C10.6366 33.7137 12.4237 35.6688 14.6344 37.0363C16.8419 38.4017 19.3861 39.1254 21.9817 39.1261Z" fill="#34A853"/>
<path d="M14.1232 27.7682C13.5373 26.0251 13.5373 24.1383 14.1232 22.3952V18.7773H9.47408C8.49318 20.7341 7.98242 22.8928 7.98242 25.0817C7.98242 27.2706 8.49318 29.4293 9.47408 31.3862L14.1232 27.7682Z" fill="#FBBC04"/>
<path d="M21.9817 16.6009C23.9794 16.5686 25.9092 17.3251 27.3528 18.7063L31.3503 14.699C28.8184 12.3137 25.46 11.0034 21.9817 11.0439C19.3872 11.0439 16.8435 11.7679 14.6344 13.1317C12.4237 14.4992 10.6366 16.4543 9.47266 18.7786L14.1217 22.3946C15.2312 19.0682 18.3286 16.6009 21.9817 16.6009Z" fill="#EA4335"/>
</svg>
