<svg width="63" height="23" viewBox="0 0 63 23" fill="none" xmlns="http://www.w3.org/2000/svg">
<path fill-rule="evenodd" clip-rule="evenodd" d="M53.6528 3.97363L55.7584 11.0909H51.6093L53.6528 3.97363ZM50.6445 14.2892H56.6534L57.5107 17.1269H62.0628L56.984 0.708008H50.2047L45.1874 17.1269H49.8372L50.6445 14.2892ZM37.4141 9.07947H40.2158C41.1042 9.048 41.6445 8.98088 41.8389 8.8757C42.1045 8.73209 42.2828 8.44465 42.3715 8.01341C42.4283 7.72637 42.4566 7.29971 42.4566 6.73281C42.4566 6.03843 42.4003 5.52372 42.2871 5.18749C42.1254 4.7166 41.7383 4.42977 41.125 4.32559C41.0039 4.30985 40.7136 4.30149 40.2537 4.30149H37.4141V9.07947ZM32.9219 17.127V0.708103H41.295C42.4434 0.708103 43.3198 0.800328 43.9219 0.984579C45.2991 1.40886 46.2231 2.27753 46.6963 3.59039C46.9406 4.27939 47.0628 5.31678 47.0628 6.70195C47.0628 8.36738 46.9273 9.56432 46.6592 10.293C46.1222 11.7339 45.0167 12.5639 43.3474 12.7791C43.1511 12.8113 42.3158 12.8402 40.8416 12.8633L40.0954 12.8878H37.416V17.127H32.9219ZM10.3561 5.94556H14.537C14.564 5.58284 14.5776 5.31154 14.5776 5.13008C14.5776 2.91767 13.6679 1.57134 11.8485 1.09069C11.103 0.894088 9.85244 0.794891 8.09764 0.794891C6.98301 0.794891 5.96967 0.834929 5.05621 0.913211C3.9584 1.00006 3.05649 1.29068 2.35169 1.78567C1.87055 2.10816 1.5219 2.57964 1.30554 3.20072C1.08938 3.82159 0.981196 4.64704 0.981196 5.67646C0.981196 7.02816 1.18135 8.03866 1.58146 8.70654C2.03667 9.49255 2.94891 10.0102 4.31779 10.262C4.83762 10.3495 5.76587 10.4397 7.10213 10.5335C8.76617 10.6437 9.69847 10.7305 9.89883 10.7929C10.4347 10.9506 10.7031 11.3904 10.7031 12.1133C10.7031 12.436 10.6713 12.6997 10.6073 12.9035C10.4867 13.2345 10.2345 13.4738 9.85021 13.6224C9.63425 13.7016 9.13366 13.7411 8.34925 13.7411H6.81223C6.403 13.7323 6.05496 13.6584 5.76668 13.5176C5.35077 13.3134 5.14231 12.8549 5.14231 12.142L5.14216 12.0242L5.14191 11.8006H0.960938C0.960938 13.1365 1.06041 14.0909 1.26137 14.6639C1.62218 15.6934 2.36769 16.377 3.49853 16.7144C4.41989 16.9899 6.05172 17.1269 8.39321 17.1269C9.79591 17.1269 10.8388 17.0638 11.5205 16.9375C13.1477 16.6389 14.1934 15.928 14.659 14.8024C14.9159 14.1889 15.0441 13.2208 15.0441 11.899C15.0441 11.3255 15.0161 10.8094 14.9598 10.3533C14.8636 9.59075 14.562 8.97326 14.0561 8.50078C13.4133 7.89524 12.3773 7.52156 10.9482 7.37993C10.4981 7.33273 9.36947 7.24966 7.5624 7.13174L6.71924 7.07318C6.34912 7.04968 6.05233 6.971 5.82766 6.83714C5.51406 6.64851 5.35766 6.25491 5.35766 5.65713C5.35766 4.99682 5.53432 4.56796 5.88722 4.37076C6.24033 4.17416 6.96396 4.07596 8.0555 4.07596C9.17945 4.07596 9.86621 4.24667 10.115 4.58768C10.2754 4.81814 10.3561 5.2709 10.3561 5.94556ZM0.972656 20.3822L1.59946 20.3201C1.63714 20.5278 1.71372 20.6802 1.82899 20.7778C1.94446 20.8752 2.10005 20.9238 2.29595 20.9238C2.5034 20.9238 2.65959 20.8806 2.76493 20.7942C2.87008 20.7075 2.92255 20.6063 2.92255 20.4904C2.92255 20.4161 2.90046 20.353 2.8565 20.3006C2.81234 20.2484 2.73536 20.2032 2.62535 20.1643C2.54999 20.139 2.3786 20.0936 2.11099 20.0283C1.76639 19.9446 1.52491 19.8414 1.38593 19.7189C1.19064 19.5468 1.09299 19.3369 1.09299 19.0891C1.09299 18.9299 1.13898 18.7807 1.23116 18.6421C1.32313 18.5033 1.45603 18.3975 1.62924 18.325C1.80265 18.2525 2.01192 18.216 2.25705 18.216C2.65736 18.216 2.95861 18.3027 3.16099 18.4756C3.36337 18.6487 3.46953 18.8795 3.47966 19.1684L2.83402 19.1933C2.80646 19.0319 2.74731 18.916 2.65655 18.8451C2.56599 18.7744 2.43006 18.7389 2.24875 18.7389C2.06156 18.7389 1.91529 18.7768 1.80934 18.8525C1.74106 18.9009 1.70703 18.9658 1.70703 19.0471C1.70703 19.1214 1.73904 19.1847 1.80285 19.2377C1.88389 19.3046 2.081 19.3745 2.3942 19.4468C2.7072 19.5193 2.93875 19.5944 3.08887 19.6725C3.23878 19.7504 3.35628 19.857 3.44117 19.992C3.52585 20.1275 3.56839 20.2944 3.56839 20.4932C3.56839 20.6737 3.51754 20.8424 3.41584 20.9997C3.31414 21.1571 3.17051 21.274 2.98474 21.3505C2.79897 21.427 2.56741 21.4654 2.29007 21.4654C1.88652 21.4654 1.57657 21.3732 1.3602 21.1888C1.14404 21.0043 1.01479 20.7356 0.972656 20.3822ZM4.24023 19.1386H4.85427V21.4106H4.24023V19.1386ZM4.24023 18.2737H4.85427V18.8278H4.24023V18.2737ZM7.10911 21.4084H7.72315V19.9935C7.72315 19.8178 7.71181 19.6828 7.68932 19.5886C7.66683 19.4941 7.62692 19.4099 7.56959 19.3356C7.51226 19.2613 7.42778 19.2001 7.31615 19.1523C7.20453 19.1045 7.08115 19.0804 6.94623 19.0804C6.64033 19.0804 6.38628 19.2103 6.18471 19.4702V19.1364H5.61504V21.4084H6.22908V20.3772C6.22908 20.1226 6.24447 19.9483 6.27567 19.8541C6.30667 19.7597 6.364 19.684 6.44787 19.6268C6.53174 19.5696 6.62635 19.541 6.7319 19.541C6.81415 19.541 6.88465 19.5611 6.94319 19.6009C7.00174 19.6409 7.04388 19.6973 7.07001 19.7694C7.09594 19.8415 7.10911 20.0005 7.10911 20.2463V21.4084ZM8.96484 20.229C8.96484 20.4708 9.01184 20.6479 9.10625 20.7601C9.20045 20.8726 9.31674 20.9286 9.4551 20.9286C9.60319 20.9286 9.72839 20.871 9.8307 20.7559C9.9328 20.6408 9.98405 20.4701 9.98405 20.244C9.98405 20.0081 9.93503 19.8328 9.83718 19.7183C9.73913 19.604 9.61555 19.5466 9.46584 19.5466C9.32038 19.5466 9.20045 19.603 9.10625 19.7151C9.01184 19.8277 8.96484 19.9988 8.96484 20.229ZM8.41777 21.561L9.11405 21.6357C9.1258 21.7204 9.15275 21.7786 9.19489 21.8104C9.25323 21.8558 9.345 21.8786 9.4702 21.8786C9.63045 21.8786 9.75058 21.8551 9.8308 21.808C9.88449 21.7766 9.92541 21.726 9.95317 21.6561C9.97201 21.6059 9.98153 21.514 9.98153 21.3798L9.98335 21.0481C9.80224 21.2905 9.57251 21.4117 9.29375 21.4117C8.98278 21.4117 8.73684 21.2826 8.55532 21.0238C8.4129 20.8195 8.3418 20.5649 8.3418 20.2605C8.3418 19.8789 8.43499 19.5875 8.62157 19.3859C8.80815 19.1845 9.04031 19.0837 9.31765 19.0837C9.60371 19.0837 9.83972 19.2074 10.0257 19.4544V19.1397H10.5956V21.182C10.5956 21.4507 10.5731 21.6515 10.5279 21.7841C10.4829 21.9172 10.4197 22.0214 10.3383 22.0971C10.2568 22.1728 10.1483 22.2321 10.0123 22.2749C9.87639 22.3178 9.70459 22.3393 9.49694 22.3393C9.10453 22.3393 8.82618 22.2728 8.66188 22.1399C8.49759 22.007 8.41554 21.8385 8.41554 21.6343C8.41554 21.6142 8.41635 21.5899 8.41777 21.561ZM11.9441 18.2737H11.3301V21.4109H11.9441V18.2737ZM14.0817 20.0882C14.0775 19.9113 14.0315 19.777 13.9438 19.6848C13.8563 19.5928 13.7497 19.5466 13.6241 19.5466C13.4898 19.5466 13.3788 19.5954 13.2913 19.6924C13.2035 19.7894 13.1606 19.9214 13.162 20.0882H14.0817ZM14.0511 20.696L14.6588 20.7956C14.5802 21.0145 14.456 21.1814 14.2865 21.2959C14.1169 21.4107 13.9046 21.4678 13.6499 21.4678C13.2466 21.4678 12.9482 21.3382 12.7547 21.079C12.6018 20.8714 12.5254 20.6095 12.5254 20.2928C12.5254 19.9151 12.6257 19.6189 12.8266 19.4048C13.0274 19.1907 13.2812 19.0837 13.5882 19.0837C13.9332 19.0837 14.2052 19.1961 14.4046 19.4205C14.6039 19.6454 14.6991 19.9894 14.6904 20.4531H13.1522C13.1564 20.632 13.2063 20.7711 13.3015 20.8707C13.3967 20.9698 13.5154 21.0196 13.6576 21.0196C13.7543 21.0196 13.8357 20.9942 13.9016 20.943C13.9674 20.892 14.0174 20.8095 14.0511 20.696ZM16.6973 18.2737V21.4109H19.122V20.8819H17.3431V20.0291H18.9385V19.5001H17.3431V18.8029H19.0588V18.2737H16.6973ZM21.3158 21.4102V21.07C21.2313 21.1913 21.1205 21.2877 20.9829 21.3593C20.8454 21.4306 20.7003 21.4664 20.5476 21.4664C20.3918 21.4664 20.2524 21.4328 20.1286 21.3656C20.0051 21.2985 19.9155 21.2041 19.8602 21.0828C19.8049 20.9613 19.7773 20.7934 19.7773 20.579V19.1383H20.3914V20.1832C20.3914 20.5031 20.4025 20.6991 20.4252 20.771C20.4477 20.8436 20.4886 20.9005 20.5482 20.9427C20.6077 20.9848 20.6831 21.0057 20.7747 21.0057C20.8792 21.0057 20.973 20.9778 21.0557 20.9212C21.1385 20.8649 21.195 20.7949 21.2256 20.7113C21.256 20.6278 21.2714 20.4233 21.2714 20.0978V19.1383H21.8855V21.4102H21.3158ZM22.6172 21.4084H23.2312V20.7058C23.2312 20.319 23.2484 20.0646 23.2827 19.9433C23.3169 19.822 23.3639 19.7381 23.4237 19.6915C23.4834 19.6453 23.5562 19.622 23.6423 19.622C23.731 19.622 23.8274 19.6549 23.9308 19.7204L24.1175 19.1944C23.9883 19.1185 23.8538 19.0804 23.7144 19.0804C23.6155 19.0804 23.5274 19.1055 23.4496 19.1555C23.3718 19.2057 23.2843 19.3069 23.1869 19.4595V19.1364H22.6172V21.4084ZM24.996 20.2756C24.996 20.5021 25.0504 20.6752 25.1596 20.7955C25.2688 20.9158 25.4034 20.976 25.5636 20.976C25.7236 20.976 25.858 20.9158 25.9663 20.7955C26.0747 20.6752 26.129 20.5005 26.129 20.2714C26.129 20.0482 26.0747 19.8761 25.9663 19.7559C25.858 19.6356 25.7236 19.5755 25.5636 19.5755C25.4034 19.5755 25.2688 19.6356 25.1596 19.7559C25.0504 19.8761 24.996 20.0496 24.996 20.2756ZM24.3729 20.2433C24.3729 20.043 24.4229 19.8489 24.5232 19.6613C24.6233 19.4739 24.7651 19.3307 24.9489 19.2319C25.1324 19.1331 25.3376 19.0837 25.5641 19.0837C25.914 19.0837 26.2006 19.1956 26.4243 19.4197C26.6477 19.6438 26.7596 19.927 26.7596 20.2692C26.7596 20.6142 26.6465 20.9005 26.4208 21.1274C26.1952 21.3542 25.9109 21.4678 25.5684 21.4678C25.3565 21.4678 25.1543 21.4204 24.962 21.3261C24.7696 21.2315 24.6233 21.0931 24.5232 20.9104C24.4229 20.7278 24.3729 20.5057 24.3729 20.2433ZM29.4023 19.7003V18.804H29.7127C29.9445 18.804 30.0984 18.8111 30.1752 18.8255C30.2793 18.8442 30.3654 18.8908 30.4335 18.9655C30.5016 19.0402 30.5356 19.135 30.5356 19.2499C30.5356 19.3434 30.5113 19.4252 30.4629 19.4955C30.4145 19.5661 30.3474 19.6179 30.2621 19.6509C30.1766 19.684 30.0073 19.7003 29.754 19.7003H29.4023ZM28.7578 18.2737V21.4109H29.4035V20.2283H29.8232C30.1143 20.2283 30.3368 20.2134 30.4905 20.1833C30.6036 20.159 30.7148 20.1096 30.8242 20.0345C30.9336 19.9596 31.0239 19.8565 31.0948 19.7254C31.166 19.5937 31.2014 19.432 31.2014 19.2394C31.2014 18.9896 31.1398 18.7858 31.0164 18.6282C30.8931 18.4705 30.7401 18.3679 30.5574 18.3209C30.4385 18.2896 30.183 18.2737 29.7914 18.2737H28.7578ZM33.1295 20.3244C33.0511 20.3503 32.9274 20.381 32.758 20.4169C32.5886 20.4525 32.4778 20.4878 32.426 20.522C32.3461 20.578 32.3066 20.6489 32.3066 20.7348C32.3066 20.8194 32.3382 20.8923 32.4019 20.9541C32.4657 21.0156 32.5467 21.0465 32.6454 21.0465C32.7554 21.0465 32.8601 21.0106 32.9602 20.9391C33.0339 20.8846 33.0825 20.818 33.1056 20.7391C33.1214 20.6876 33.1295 20.5894 33.1295 20.4445V20.3244ZM32.3037 19.8307L31.7529 19.7311C31.8153 19.511 31.9226 19.3482 32.075 19.2425C32.2275 19.1367 32.454 19.0837 32.7544 19.0837C33.0273 19.0837 33.2307 19.1156 33.3642 19.1789C33.4977 19.2429 33.5919 19.3235 33.6462 19.4213C33.7007 19.5191 33.7281 19.699 33.7281 19.9606L33.7218 20.6637C33.7218 20.8637 33.7315 21.0115 33.751 21.1063C33.7706 21.2013 33.8073 21.3031 33.861 21.4117H33.2532C33.237 21.3724 33.2176 21.3141 33.1943 21.2368C33.1841 21.2015 33.1768 21.1784 33.1728 21.167C33.0683 21.2672 32.9566 21.3425 32.8377 21.3927C32.7188 21.4427 32.5922 21.4678 32.4573 21.4678C32.2194 21.4678 32.0318 21.4041 31.8949 21.277C31.7579 21.1497 31.6895 20.9888 31.6895 20.7944C31.6895 20.6659 31.7207 20.5512 31.7828 20.4504C31.8454 20.3496 31.933 20.2723 32.0454 20.2187C32.158 20.1653 32.3203 20.1181 32.5322 20.0781C32.8181 20.0253 33.0162 19.9761 33.1266 19.9303V19.8695C33.1266 19.7524 33.0974 19.6689 33.0391 19.6189C32.9805 19.5691 32.8705 19.5442 32.7085 19.5442C32.5991 19.5442 32.5138 19.5656 32.4524 19.6078C32.391 19.6502 32.3414 19.7245 32.3037 19.8307ZM34.8216 19.1383H34.1697L35.0507 21.4166C35.0143 21.5449 34.9618 21.6507 34.8931 21.734C34.8245 21.8168 34.7189 21.8585 34.5757 21.8585C34.4985 21.8585 34.4114 21.8493 34.3152 21.8304L34.3723 22.3015C34.4855 22.3258 34.6014 22.3379 34.7191 22.3379C34.8354 22.3379 34.9397 22.3258 35.0321 22.3013C35.1245 22.2772 35.2019 22.2429 35.2653 22.1993C35.3285 22.1558 35.3846 22.0989 35.4332 22.029C35.4818 21.9588 35.5331 21.8575 35.587 21.7244L36.5501 19.1383H35.917L35.3757 20.7514L34.8216 19.1383ZM37.0312 19.1364H37.5946V19.4467C37.797 19.2025 38.0379 19.0804 38.3175 19.0804C38.4658 19.0804 38.5946 19.1103 38.7038 19.1703C38.813 19.2304 38.9025 19.3212 38.9722 19.4425C39.0739 19.3212 39.1839 19.2304 39.3014 19.1703C39.4193 19.1103 39.5447 19.0804 39.6784 19.0804C39.8486 19.0804 39.9925 19.1143 40.1102 19.1824C40.2279 19.2499 40.316 19.3497 40.3741 19.4814C40.4161 19.5784 40.4371 19.7356 40.4371 19.9529V21.4084H39.8231V20.107C39.8231 19.8812 39.802 19.7356 39.7601 19.6698C39.7034 19.5838 39.6165 19.5409 39.4992 19.5409C39.4135 19.5409 39.3328 19.5666 39.2575 19.6182C39.1821 19.6698 39.1278 19.7451 39.0946 19.8445C39.0612 19.9437 39.0443 20.1007 39.0443 20.315V21.4084H38.4303V20.1608C38.4303 19.9389 38.4196 19.7963 38.3977 19.7318C38.376 19.6674 38.3424 19.6196 38.2966 19.5882C38.2508 19.5569 38.189 19.5409 38.1106 19.5409C38.0164 19.5409 37.9315 19.566 37.8562 19.616C37.7808 19.666 37.7269 19.7383 37.6941 19.8326C37.6615 19.927 37.6453 20.0833 37.6453 20.3021V21.4084H37.0312V19.1364ZM42.4145 19.6848C42.5025 19.777 42.5482 19.9113 42.5527 20.0882H41.633C41.6315 19.9214 41.6745 19.7894 41.7622 19.6924C41.8495 19.5953 41.9607 19.5465 42.0949 19.5465C42.2205 19.5465 42.3272 19.5928 42.4145 19.6848ZM43.124 20.7955L42.5162 20.6959C42.4826 20.8094 42.4328 20.8919 42.3665 20.9429C42.3007 20.9941 42.2194 21.0196 42.1228 21.0196C41.9804 21.0196 41.8617 20.9698 41.7667 20.8706C41.6714 20.771 41.6216 20.632 41.6171 20.4531H43.1556C43.1643 19.9894 43.0689 19.6454 42.8695 19.4205C42.6702 19.196 42.3983 19.0837 42.0533 19.0837C41.7462 19.0837 41.4926 19.1906 41.2916 19.4048C41.091 19.6189 40.9903 19.9151 40.9903 20.2927C40.9903 20.6095 41.0667 20.8714 41.2197 21.0789C41.4133 21.3381 41.7118 21.4678 42.1149 21.4678C42.3698 21.4678 42.5819 21.4106 42.7516 21.2959C42.9212 21.1813 43.0452 21.0144 43.124 20.7955ZM45.8894 21.4084H45.2753V20.2463C45.2753 20.0005 45.2622 19.8415 45.2364 19.7694C45.2103 19.6973 45.168 19.6409 45.1094 19.6009C45.0509 19.5611 44.9804 19.5409 44.8981 19.5409C44.7928 19.5409 44.698 19.5696 44.6143 19.6268C44.5304 19.684 44.4731 19.7597 44.4419 19.8541C44.4109 19.9483 44.3953 20.1226 44.3953 20.3771V21.4084H43.7812V19.1364H44.3509V19.4702C44.5527 19.2103 44.8065 19.0804 45.1124 19.0804C45.2474 19.0804 45.3709 19.1045 45.4824 19.1523C45.594 19.2001 45.6787 19.2613 45.736 19.3356C45.7933 19.4099 45.833 19.4941 45.8555 19.5886C45.8782 19.6828 45.8894 19.8178 45.8894 19.9935V21.4084ZM47.7012 19.6167V19.1375H47.2832V18.3283L46.6692 18.6831V19.1375H46.3906V19.6167H46.6692V20.6099C46.6692 20.8228 46.6755 20.9644 46.6886 21.0345C46.7044 21.1331 46.7328 21.2114 46.7739 21.2692C46.8152 21.3272 46.8799 21.3746 46.9678 21.4108C47.0559 21.4473 47.1546 21.4656 47.2646 21.4656C47.4435 21.4656 47.6037 21.4355 47.7453 21.3756L47.6916 20.9099C47.5859 20.9483 47.5057 20.9676 47.4497 20.9676C47.4098 20.9676 47.3762 20.9575 47.3482 20.9375C47.3205 20.9174 47.3027 20.8921 47.295 20.8612C47.2871 20.8306 47.2832 20.722 47.2832 20.536V19.6167H47.7012ZM48.0488 20.7674L48.6629 20.6739C48.689 20.7901 48.7419 20.8781 48.8215 20.9385C48.9013 20.9988 49.0127 21.0287 49.1562 21.0287C49.3144 21.0287 49.4333 21 49.5129 20.9426C49.5666 20.9022 49.5935 20.8486 49.5935 20.7809C49.5935 20.7351 49.5788 20.6968 49.5496 20.667C49.5188 20.6381 49.4503 20.6116 49.3438 20.5871C48.8476 20.4793 48.533 20.3811 48.4005 20.2925C48.2166 20.1696 48.1248 19.9985 48.1248 19.78C48.1248 19.5824 48.204 19.4165 48.363 19.2822C48.5223 19.1477 48.7688 19.0804 49.1029 19.0804C49.4209 19.0804 49.6572 19.1308 49.8119 19.2314C49.9665 19.3322 50.0731 19.481 50.1316 19.678L49.5555 19.7838C49.5305 19.6955 49.4831 19.6276 49.4134 19.5806C49.3436 19.5334 49.2441 19.5099 49.115 19.5099C48.9522 19.5099 48.8353 19.532 48.765 19.5768C48.7178 19.6083 48.6945 19.6491 48.6945 19.6993C48.6945 19.7425 48.7147 19.7792 48.7556 19.8095C48.811 19.8495 49.0024 19.9063 49.3296 19.9796C49.6568 20.0529 49.8853 20.1425 50.0151 20.2487C50.1432 20.3562 50.2076 20.5062 50.2076 20.6984C50.2076 20.9078 50.1189 21.0879 49.942 21.2384C49.7647 21.3892 49.503 21.4645 49.1562 21.4645C48.8415 21.4645 48.5924 21.4018 48.4088 21.2769C48.2253 21.1516 48.1054 20.9821 48.0488 20.7674ZM53.5014 19.0064L53.9475 20.1705H53.0703L53.5014 19.0064ZM54.434 21.4109H55.1293L53.8408 18.2737H53.1618L51.9258 21.4109H52.6091L52.8721 20.7014H54.1581L54.434 21.4109ZM56.1843 21.4084H55.5703V19.1364H56.14V19.4595C56.2374 19.3069 56.3247 19.2057 56.4027 19.1555C56.4803 19.1055 56.5684 19.0804 56.6675 19.0804C56.8069 19.0804 56.9412 19.1185 57.0707 19.1944L56.8839 19.7204C56.7803 19.6549 56.6841 19.622 56.5954 19.622C56.5091 19.622 56.4364 19.6453 56.3766 19.6915C56.3168 19.7381 56.2698 19.822 56.2358 19.9433C56.2014 20.0646 56.1843 20.319 56.1843 20.7058V21.4084ZM58.7036 19.6848C58.7911 19.777 58.8371 19.9113 58.8415 20.0882H57.9218C57.9202 19.9214 57.9633 19.7894 58.051 19.6924C58.1385 19.5954 58.2494 19.5466 58.3839 19.5466C58.5093 19.5466 58.6158 19.5928 58.7036 19.6848ZM59.4128 20.7955L58.805 20.6959C58.7712 20.8095 58.7214 20.8919 58.6555 20.9429C58.5895 20.9941 58.5082 21.0196 58.4114 21.0196C58.2694 21.0196 58.1507 20.9698 58.0553 20.8706C57.9602 20.771 57.9104 20.632 57.906 20.4531H59.4444C59.4531 19.9894 59.3577 19.6454 59.1585 19.4205C58.959 19.196 58.6869 19.0837 58.3421 19.0837C58.0352 19.0837 57.7812 19.1907 57.5806 19.4048C57.3796 19.6189 57.2792 19.9151 57.2792 20.2928C57.2792 20.6095 57.3555 20.8714 57.5085 21.079C57.702 21.3381 58.0006 21.4678 58.4039 21.4678C58.6586 21.4678 58.8709 21.4106 59.0404 21.2959C59.21 21.1814 59.3342 21.0144 59.4128 20.7955ZM61.3559 20.3244C61.2777 20.3503 61.1537 20.3809 60.9843 20.4168C60.815 20.4525 60.7044 20.4877 60.6523 20.522C60.5725 20.5779 60.533 20.6489 60.533 20.7347C60.533 20.8194 60.5646 20.8923 60.6284 20.954C60.692 21.0156 60.773 21.0464 60.8717 21.0464C60.9817 21.0464 61.0864 21.0106 61.1865 20.9391C61.2603 20.8845 61.3089 20.818 61.332 20.7391C61.3478 20.6875 61.3559 20.5893 61.3559 20.4445V20.3244ZM60.5298 19.8306L59.979 19.731C60.0414 19.5109 60.1488 19.3482 60.3011 19.2424C60.4537 19.1366 60.6801 19.0837 60.9806 19.0837C61.2535 19.0837 61.4569 19.1155 61.5904 19.1789C61.7239 19.2428 61.8181 19.3235 61.8724 19.4213C61.9269 19.5191 61.9542 19.699 61.9542 19.9605L61.9479 20.6636C61.9479 20.8636 61.9577 21.0114 61.9771 21.1062C61.9967 21.2013 62.0334 21.303 62.0869 21.4116H61.4793C61.4631 21.3724 61.4439 21.314 61.4204 21.2367C61.4161 21.2213 61.4122 21.2083 61.4089 21.1975C61.4067 21.1905 61.4048 21.1845 61.4032 21.1794C61.4015 21.1743 61.4001 21.1702 61.3989 21.167C61.2944 21.2672 61.183 21.3425 61.064 21.3927C60.9451 21.4427 60.8183 21.4678 60.6834 21.4678C60.4456 21.4678 60.258 21.404 60.121 21.2769C59.9843 21.1497 59.9158 20.9887 59.9158 20.7943C59.9158 20.6658 59.9468 20.5511 60.0092 20.4503C60.0716 20.3495 60.1591 20.2722 60.2715 20.2186C60.3842 20.1653 60.5464 20.1181 60.7583 20.078C61.0442 20.0252 61.2423 19.976 61.3527 19.9302V19.8695C61.3527 19.7523 61.3236 19.6689 61.2652 19.6189C61.2069 19.5691 61.0967 19.5442 60.9346 19.5442C60.8252 19.5442 60.7399 19.5655 60.6785 19.6077C60.6173 19.6502 60.5675 19.7245 60.5298 19.8306Z" fill="white"/>
<path fill-rule="evenodd" clip-rule="evenodd" d="M26.7229 3.01293C28.5766 3.01293 30.2309 3.85252 31.3184 5.16757L32.2872 3.12527C30.772 1.71719 28.7099 0.849121 26.4355 0.849121C22.8943 0.849121 19.865 2.95198 18.6217 5.92868H16.7326L15.6172 8.27993H18.0474C18.0292 8.49804 18.0174 8.71635 18.0174 8.93905C18.0174 9.20855 18.0316 9.47487 18.0588 9.738H16.8374L15.7221 12.09H18.6797C19.9584 14.9915 22.9498 17.0284 26.4355 17.0284C28.1921 17.0284 29.8221 16.5109 31.1717 15.6269V12.7444C30.0849 13.961 28.4952 14.7299 26.7229 14.7299C24.6513 14.7299 22.829 13.6796 21.7679 12.09H27.9612L29.0764 9.738H20.8567C20.8143 9.45495 20.7916 9.16573 20.7916 8.87112C20.7916 8.67193 20.8022 8.47473 20.8216 8.27993H29.7676L30.8828 5.92868H21.5953C22.6224 4.18576 24.5338 3.01293 26.7229 3.01293Z" fill="#FFBE00"/>
</svg>
