<svg width="20" height="20" viewBox="0 0 20 20" fill="none" xmlns="http://www.w3.org/2000/svg">
<rect width="20" height="20" rx="10" fill="#BA69C8"/>
<g clip-path="url(#clip0_18825_61444)">
<path fill-rule="evenodd" clip-rule="evenodd" d="M7.25097 5.04639H13.9974C14.0458 5.04662 14.0921 5.06593 14.1263 5.10012C14.1605 5.13432 14.1798 5.18063 14.18 5.22898V6.89694C14.1803 6.92118 14.1759 6.94525 14.1669 6.96776C14.1579 6.99026 14.1445 7.01076 14.1275 7.02807C14.1105 7.04537 14.0903 7.05914 14.068 7.06858C14.0456 7.07802 14.0216 7.08293 13.9974 7.08305H9.22618V9.08459H12.8114C12.8596 9.08505 12.9057 9.10447 12.9397 9.13864C12.9737 9.1728 12.9929 9.21898 12.9931 9.26719V10.9351C12.9927 10.9833 12.9734 11.0293 12.9394 11.0635C12.9055 11.0976 12.8595 11.1171 12.8114 11.1177H9.22618V12.7049H10.3121C10.3583 12.706 10.4023 12.7249 10.435 12.7576C10.4677 12.7903 10.4866 12.8343 10.4877 12.8805V14.1675C10.4864 14.2136 10.4674 14.2575 10.4348 14.2901C10.4021 14.3228 10.3582 14.3417 10.3121 14.343H9.22618V15.6511C9.22572 15.6994 9.20633 15.7455 9.17219 15.7797C9.13804 15.8138 9.09186 15.8332 9.04358 15.8337H7.43356C7.38521 15.8334 7.3389 15.8141 7.3047 15.7799C7.27051 15.7457 7.2512 15.6994 7.25097 15.6511V14.3457H6.17557C6.12901 14.3457 6.08435 14.3272 6.05142 14.2942C6.0185 14.2613 6 14.2167 6 14.1701V12.8831C6 12.8366 6.0185 12.7919 6.05142 12.759C6.08435 12.7261 6.12901 12.7076 6.17557 12.7076H7.25097V5.04639Z" fill="white"/>
</g>
<defs>
<clipPath id="clip0_18825_61444">
<rect width="8.18" height="10.7873" fill="white" transform="translate(6 5.04639)"/>
</clipPath>
</defs>
</svg>
