<svg width="20" height="20" viewBox="0 0 20 20" fill="none" xmlns="http://www.w3.org/2000/svg">
<rect width="20" height="20" rx="10" fill="#01BFA5"/>
<g clip-path="url(#clip0_18825_61434)">
<path d="M17.0658 5V5.16392C16.725 5.50469 16.4112 5.84403 16.1244 6.18192C15.9015 6.43903 15.6954 6.71027 15.5075 6.99396H13.3356C13.1825 6.75527 13.0139 6.52688 12.8309 6.31025C12.6153 6.04497 12.2641 5.66286 11.7773 5.16392V5H13.0132C13.5162 5.30373 13.9839 5.66253 14.4076 6.06977C14.8322 5.65172 15.3105 5.29198 15.83 5L17.0658 5ZM10.9696 14.546H8.82793L6.49751 10.7964L5.70057 11.3679V14.546H3.81445V5.64704H5.70057V9.71907L6.44359 8.67195L8.85057 5.64704H10.9448L7.84335 9.58643L10.9707 14.5471L10.9696 14.546ZM14.3828 14.67C12.2655 14.67 11.2076 13.5078 11.209 11.1835C11.209 10.0261 11.4966 9.14249 12.0717 8.53283C12.6469 7.92318 13.4737 7.61799 14.5521 7.61727C15.2842 7.60487 16.0092 7.7625 16.67 8.07775L16.1222 9.5131C15.8289 9.39663 15.5593 9.29742 15.308 9.22409C15.0629 9.15186 14.8087 9.11553 14.5531 9.11625C13.5869 9.11625 13.1041 9.80175 13.1049 11.1728C13.1049 12.5021 13.5876 13.1667 14.5531 13.1667C14.8885 13.1697 15.2224 13.1214 15.5431 13.0233C15.8669 12.9186 16.1741 12.7682 16.4554 12.5768V14.1664C16.1766 14.3489 15.8689 14.4827 15.5453 14.5622C15.1646 14.6424 14.776 14.6786 14.3871 14.67H14.3828Z" fill="white"/>
</g>
<defs>
<clipPath id="clip0_18825_61434">
<rect width="13.2514" height="9.67" fill="white" transform="translate(3.81445 5)"/>
</clipPath>
</defs>
</svg>
