<svg width="20" height="20" viewBox="0 0 20 20" fill="none" xmlns="http://www.w3.org/2000/svg">
<rect width="20" height="20" rx="10" fill="#EC407A"/>
<path d="M17.5 13.8152C17.5 14.4435 16.9907 14.9528 16.3624 14.9528C15.7341 14.9528 15.2248 14.4435 15.2248 13.8152C15.2248 13.1869 15.7341 12.6776 16.3624 12.6776C16.9907 12.6776 17.5 13.1869 17.5 13.8152Z" fill="white"/>
<path d="M3 5.5V14.709H4.95014V11.4046L5.78979 10.8358L8.20039 14.709H10.3943L7.17114 9.58989L10.3943 5.5H8.20039L4.95014 9.58989V5.5H3Z" fill="white"/>
<path d="M11.0714 7.69391V14.709H12.9945V11.0254C12.9945 10.4656 13.3358 9.34612 14.7009 9.34612C15.1559 9.34612 15.4683 9.40029 15.5676 9.42738L15.6759 7.61266C15.3329 7.54043 14.5167 7.47723 13.9967 7.80225C13.3466 8.20853 12.9674 8.80441 12.8862 8.91275L12.5611 7.69391H11.0714Z" fill="white"/>
</svg>
