<svg width="20" height="20" viewBox="0 0 20 20" fill="none" xmlns="http://www.w3.org/2000/svg">
<rect width="20" height="20" rx="10" fill="#E4B119"/>
<g clip-path="url(#clip0_18825_61430)">
<path d="M6.40778 15.4146H4.23438V5H10.2052V6.80881H6.40778V9.49224H9.94259V11.3011H6.40778V15.4146ZM15.2761 13.8249C15.7422 13.8103 16.2035 13.7259 16.6446 13.5744V15.1904C16.1026 15.4334 15.438 15.5549 14.651 15.5549C13.7804 15.5549 13.1475 15.3355 12.7523 14.8965C12.357 14.4575 12.1587 13.8003 12.1574 12.925V9.08725H11.1192V7.43599H12.3069V5.75544H14.3268V7.45013H16.5557V9.08422H14.3338V12.922C14.3338 13.225 14.4227 13.4593 14.5944 13.6058C14.7886 13.7601 15.0323 13.8387 15.2802 13.8269L15.2761 13.8249Z" fill="white"/>
</g>
<defs>
<clipPath id="clip0_18825_61430">
<rect width="12.4102" height="10.56" fill="white" transform="translate(4.23438 5)"/>
</clipPath>
</defs>
</svg>
