<svg width="200" height="200" viewBox="0 0 200 200" fill="none" xmlns="http://www.w3.org/2000/svg">
<g clip-path="url(#clip0_2268_1866)">
<path d="M200 100C200 44.7715 155.228 0 100 0C44.7715 0 0 44.7715 0 100C0 155.228 44.7715 200 100 200C155.228 200 200 155.228 200 100Z" fill="#30B542"/>
<mask id="mask0_2268_1866" style="mask-type:luminance" maskUnits="userSpaceOnUse" x="41" y="41" width="118" height="118">
<path d="M158.334 41.668H41.667V158.335H158.334V41.668Z" fill="white"/>
</mask>
<g mask="url(#mask0_2268_1866)">
<path d="M127.768 158.335H113.801C112.817 158.335 111.86 157.933 111.175 157.23C110.524 156.597 110.12 155.64 110.12 154.657L110.135 76.9497C110.135 74.9232 111.785 73.276 113.808 73.276H126.003C128.031 73.276 129.677 74.9249 129.677 76.9497V79.8955C134.159 76.3944 141.298 73.0214 152.17 73.0214C154.2 73.0214 155.848 74.6703 155.848 76.6969V88.8546C155.848 89.8438 155.46 90.7713 154.755 91.4671C154.108 92.1321 153.153 92.5313 152.169 92.5313H147.354C139.304 92.7313 133.697 98.1188 132.028 107.309C131.745 109.015 131.447 111.088 131.447 113.235V154.657C131.447 156.685 129.798 158.335 127.768 158.335ZM115.248 153.209H126.319V113.235C126.319 110.714 126.65 108.38 126.979 106.432C129.061 94.943 136.841 87.6688 147.29 87.4071H150.723V78.1715C138.032 78.5713 131.779 84.2046 129.142 87.6138C128.47 88.4788 127.324 88.8221 126.285 88.4713C125.25 88.1163 124.552 87.1421 124.552 86.0455V78.4021H115.26L115.248 153.209ZM103.422 158.335H91.1397C89.843 158.335 88.5855 157.801 87.688 156.874L64.0907 132.295V153.59C64.0907 156.205 61.9463 158.333 59.308 158.333H48.9361C46.2995 158.333 44.1533 156.205 44.1533 153.59V46.4114C44.1533 43.7953 46.2977 41.668 48.9361 41.668H59.308C61.9446 41.668 64.0907 43.7953 64.0907 46.4114V100.516L84.1888 75.0052C85.0788 73.8689 86.4872 73.1854 87.953 73.1854H100.832C102.607 73.1854 104.227 74.1543 105.06 75.7143C105.951 77.37 105.761 79.3983 104.579 80.8781L76.0655 116.545L106.965 150.405C108.276 151.846 108.574 153.902 107.73 155.649C106.92 157.289 105.231 158.335 103.422 158.335ZM91.2747 153.209H102.58L70.8026 118.381C69.9517 117.45 69.9072 116.039 70.695 115.056L100.068 78.3133H88.1121L63.5422 109.497C62.8673 110.354 61.7224 110.687 60.6904 110.33C59.6583 109.973 58.9662 109.002 58.9662 107.91V46.7925H49.2812V153.207H58.9662V126.882C58.9662 125.486 60.0889 124.345 61.4867 124.319L62.3922 124.304C63.1099 124.307 63.79 124.577 64.2838 125.091L91.2747 153.209Z" fill="#005928"/>
<path d="M91.2747 153.209H102.58L70.8026 118.382C69.9517 117.45 69.9073 116.039 70.695 115.057L100.068 78.3138H88.1122L63.5422 109.498C62.8673 110.354 61.7224 110.688 60.6904 110.33C59.6583 109.973 58.9662 109.003 58.9662 107.911V46.793H49.2812V153.208H58.9662V126.883C58.9662 125.487 60.0889 124.345 61.4867 124.319L62.3922 124.304C63.1099 124.308 63.79 124.578 64.2838 125.092L91.2747 153.209Z" fill="#005928"/>
<path d="M115.248 153.209H126.319V113.235C126.319 110.714 126.651 108.38 126.979 106.433C129.061 94.9434 136.841 87.6692 147.291 87.4075H150.723V78.1719C138.032 78.5717 131.779 84.205 129.142 87.6142C128.471 88.4792 127.324 88.8225 126.285 88.4717C125.25 88.1167 124.552 87.1425 124.552 86.0459V78.4025H115.261L115.248 153.209Z" fill="#005928"/>
</g>
</g>
<defs>
<clipPath id="clip0_2268_1866">
<rect width="200" height="200" fill="white"/>
</clipPath>
</defs>
</svg>
