<svg width="20" height="20" viewBox="0 0 20 20" fill="none" xmlns="http://www.w3.org/2000/svg">
<rect width="20" height="20" rx="10" fill="#26C7DB"/>
<g clip-path="url(#clip0_18825_61386)">
<path d="M5.62588 5.00069V14.8608C5.62588 14.9721 5.53546 15.0626 5.42386 15.0626H4.20186C4.09042 15.0626 4 14.9721 4 14.8608V5.00069C4 4.88924 4.09042 4.79883 4.20186 4.79883H5.42386C5.53546 4.79883 5.62588 4.88908 5.62588 5.00069ZM13.0975 11.1388C13.0975 11.4046 13.0824 11.6079 13.0518 11.7619C13.0329 11.856 12.9501 11.9243 12.8539 11.9243C12.8539 11.9243 12.8535 11.9243 12.8532 11.9243L8.35698 11.9113C8.48508 13.6467 9.84262 13.8398 10.4374 13.8398C11.3197 13.8398 11.8347 13.6789 12.2222 13.5212C12.2763 13.499 12.3372 13.5019 12.3892 13.5278C12.4411 13.5543 12.4794 13.6014 12.4938 13.6579L12.7159 14.5188C12.7403 14.614 12.6929 14.7128 12.6035 14.7535C12.1507 14.958 11.3784 15.2017 10.2708 15.2017C8.14023 15.2017 6.76344 13.7923 6.76344 11.6114C6.76344 9.35022 8.14848 7.77093 10.1317 7.77093C12.3207 7.7706 13.0975 9.58508 13.0975 11.1388ZM8.39563 10.6311H11.508C11.4873 10.3209 11.3965 9.79487 11.0376 9.42948C10.79 9.17715 10.4526 9.04921 10.0346 9.04921C9.04828 9.04937 8.54897 9.8573 8.39563 10.6311ZM14.9928 7.10518H15.0067C15.5728 7.10518 16.0002 6.67817 16.0002 6.1114C16.0002 5.55305 15.5791 5.13219 15.0203 5.13219C14.4542 5.13219 14.0268 5.55305 14.0268 6.1114C14.0268 6.67817 14.4422 7.10518 14.9928 7.10518ZM15.6314 7.9372H14.4094C14.2979 7.9372 14.2074 8.02778 14.2074 8.13906V14.8608C14.2074 14.9721 14.2978 15.0626 14.4094 15.0626H15.6314C15.743 15.0626 15.8334 14.9721 15.8334 14.8608V8.13906C15.8332 8.02778 15.7431 7.9372 15.6314 7.9372Z" fill="white"/>
</g>
<defs>
<clipPath id="clip0_18825_61386">
<rect width="12" height="12" fill="white" transform="translate(4 4)"/>
</clipPath>
</defs>
</svg>
