<svg width="20" height="20" viewBox="0 0 20 20" fill="none" xmlns="http://www.w3.org/2000/svg">
<rect width="20" height="20" rx="10" fill="white"/>
<path d="M5.3125 16V3.39392H10.7538C11.6894 3.39392 12.508 3.56422 13.2098 3.90481C13.9115 4.2454 14.4572 4.73578 14.8471 5.37593C15.2369 6.01608 15.4318 6.78344 15.4318 7.67801C15.4318 8.58079 15.2307 9.342 14.8286 9.96163C14.4306 10.5813 13.8704 11.0491 13.1482 11.365C12.4301 11.681 11.5909 11.839 10.6307 11.839H7.38068V9.17991H9.94129C10.3434 9.17991 10.6861 9.13066 10.9692 9.03218C11.2565 8.92959 11.476 8.7675 11.6278 8.54591C11.7838 8.32432 11.8617 8.03502 11.8617 7.67801C11.8617 7.3169 11.7838 7.0235 11.6278 6.7978C11.476 6.56801 11.2565 6.39976 10.9692 6.29307C10.6861 6.18227 10.3434 6.12687 9.94129 6.12687H8.73485V16H5.3125ZM12.6989 10.214L15.8504 16H12.1326L9.05492 10.214H12.6989Z" fill="#0F8740"/>
</svg>
